<svg width="125" height="60" viewBox="0 0 125 60" fill="none" xmlns="http://www.w3.org/2000/svg">
<mask id="path-1-outside-1_169_8" maskUnits="userSpaceOnUse" x="0" y="11" width="78" height="35" fill="black">
<rect fill="white" y="11" width="78" height="35"/>
<path d="M3.71484 31.8711C3.71484 29.9831 3.75391 28.0169 3.83203 25.9727C3.89714 23.8242 4.0013 21.9297 4.14453 20.2891H4.10547L1.89844 19.8789C1.75521 19.2409 1.65104 18.7005 1.58594 18.2578C1.53385 17.8021 1.50781 17.3333 1.50781 16.8516C1.50781 16.513 1.51432 16.2526 1.52734 16.0703C1.80078 15.7188 2.21745 15.3672 2.77734 15.0156C3.35026 14.651 4.01432 14.3451 4.76953 14.0977C5.52474 13.8503 6.30599 13.7266 7.11328 13.7266C8.76693 13.7266 9.9974 14.1497 10.8047 14.9961C11.612 15.8424 11.9766 17.1055 11.8984 18.7852L11.8398 20.4844C11.7878 23.3359 11.6706 25.6536 11.4883 27.4375H18.1289C18.168 24.8464 18.2852 22.457 18.4805 20.2695H18.4414L15.6484 19.8594C15.5052 19.2214 15.401 18.681 15.3359 18.2383C15.2839 17.7826 15.2578 17.3138 15.2578 16.832C15.2578 16.4935 15.2643 16.2331 15.2773 16.0508C15.5508 15.7122 16.0195 15.3607 16.6836 14.9961C17.3477 14.6315 18.1094 14.3255 18.9688 14.0781C19.8411 13.8307 20.7005 13.707 21.5469 13.707C23.2005 13.707 24.4635 14.1367 25.3359 14.9961C26.2214 15.8424 26.6641 17.099 26.6641 18.7656C26.6641 23.4271 25.9414 29.957 24.4961 38.3555L27.3867 37.1055C28.3763 37.9648 28.9427 39.1237 29.0859 40.582C29.0859 40.6732 28.7799 41.0508 28.168 41.7148C27.569 42.3659 26.7812 42.9779 25.8047 43.5508C24.8411 44.1107 23.7409 44.3906 22.5039 44.3906C21.1888 44.3906 20.1016 44.0391 19.2422 43.3359C18.3958 42.6328 17.9792 41.4023 17.9922 39.6445V38.375C17.9922 36.2135 18.0378 34.4167 18.1289 32.9844C17.8294 33.0104 17.3737 33.0234 16.7617 33.0234C15.8633 33.0234 14.5417 32.9453 12.7969 32.7891C11.9635 32.7109 11.3711 32.6589 11.0195 32.6328C11.0586 33.9479 11.1562 35.2565 11.3125 36.5586C11.4688 37.8477 11.6706 39.306 11.918 40.9336C12.0742 41.9622 12.1849 42.737 12.25 43.2578C11.7161 43.5833 10.8698 43.8503 9.71094 44.0586C8.55208 44.2669 7.56901 44.3711 6.76172 44.3711C6.35807 44.3711 5.97396 44.3385 5.60938 44.2734C5.25781 44.2083 4.86719 44.1107 4.4375 43.9805C3.95573 40.9727 3.71484 36.9362 3.71484 31.8711ZM36.8789 31.1289C37.6471 31.1289 38.4935 31.207 39.418 31.3633C40.3555 31.5195 41.2148 31.7083 41.9961 31.9297V31.3242C41.9961 30.9206 41.9831 30.4714 41.957 29.9766C41.944 29.4818 41.918 29.1562 41.8789 29C41.7617 28.7786 41.4232 28.5508 40.8633 28.3164C40.3164 28.082 39.418 27.9648 38.168 27.9648C37.3997 27.9648 36.6055 28.0625 35.7852 28.2578C34.9779 28.4401 34.0794 28.6875 33.0898 29C32.556 28.1146 32.1263 27.2747 31.8008 26.4805C31.4883 25.6732 31.332 24.8659 31.332 24.0586C31.332 23.8112 31.3516 23.5638 31.3906 23.3164C33.5 21.6758 36.2279 20.8555 39.5742 20.8555C41.4232 20.8555 43.0638 21.0638 44.4961 21.4805C45.9284 21.8971 47.1068 22.7044 48.0312 23.9023C48.9557 25.1003 49.418 26.7995 49.418 29C49.418 31.1484 49.1641 33.2318 48.6562 35.25C48.1615 37.2552 47.9076 38.2773 47.8945 38.3164L50.7266 37.1055C51.1042 37.5091 51.4362 38.0039 51.7227 38.5898C52.0221 39.1628 52.2109 39.8268 52.2891 40.582C52.1068 40.9727 51.7096 41.474 51.0977 42.0859C50.4857 42.6849 49.737 43.2188 48.8516 43.6875C47.9661 44.1562 47.0417 44.3906 46.0781 44.3906C44.9974 44.3906 44.1771 44.0716 43.6172 43.4336C43.0703 42.7956 42.7969 41.9688 42.7969 40.9531C42.7969 40.3802 42.8815 39.8008 43.0508 39.2148L42.4648 39.0391C42.1003 41.0964 41.3255 42.5026 40.1406 43.2578C38.9557 44.013 37.6471 44.3906 36.2148 44.3906C35.2773 44.3906 34.3724 44.1302 33.5 43.6094C32.6276 43.0755 31.918 42.3073 31.3711 41.3047C30.8242 40.2891 30.5508 39.1042 30.5508 37.75C30.5508 35.5885 31.0911 33.9479 32.1719 32.8281C33.2526 31.6953 34.8216 31.1289 36.8789 31.1289ZM39.1055 38.5703C39.431 38.5052 39.8151 38.3229 40.2578 38.0234C40.7135 37.724 41.1172 37.3659 41.4688 36.9492C41.8203 36.5326 42.0286 36.1354 42.0938 35.7578L41.9766 35.2891C41.2865 35.1979 40.5508 35.1523 39.7695 35.1523C39.1055 35.1523 38.6497 35.2044 38.4023 35.3086C37.9857 35.7773 37.7773 36.2982 37.7773 36.8711C37.7773 37.2878 37.8815 37.6654 38.0898 38.0039C38.3112 38.3424 38.6497 38.5312 39.1055 38.5703ZM53.3438 32.7305C53.3438 30.7513 53.6172 28.8568 54.1641 27.0469C54.724 25.237 55.5964 23.7526 56.7812 22.5938C57.9792 21.4349 59.4831 20.8555 61.293 20.8555C63.3242 20.8555 65.2643 21.5 67.1133 22.7891L67.4258 22.5938C67.3867 21.0703 67.1979 19.6901 66.8594 18.4531L62.8945 18.1992C62.7122 17.9648 62.569 17.6198 62.4648 17.1641C62.3607 16.6953 62.3086 16.2135 62.3086 15.7188C62.3086 15.0547 62.3867 14.4818 62.543 14C63.3242 13.4401 64.3268 13.0169 65.5508 12.7305C66.7747 12.444 67.9987 12.3008 69.2227 12.3008C70.5768 12.3008 71.599 12.5872 72.2891 13.1602C72.9792 13.7201 73.4414 14.5729 73.6758 15.7188C73.9232 16.8516 74.0469 18.4271 74.0469 20.4453C74.0469 23.1016 73.9362 26.1159 73.7148 29.4883C73.4935 32.8607 73.207 35.6146 72.8555 37.75L72.7773 38.082L75.043 37.1055C75.4206 37.5091 75.7526 38.0039 76.0391 38.5898C76.3385 39.1628 76.5273 39.8268 76.6055 40.582C76.4232 40.9727 76.026 41.474 75.4141 42.0859C74.8021 42.6849 74.0534 43.2188 73.168 43.6875C72.2826 44.1562 71.3581 44.3906 70.3945 44.3906C69.3138 44.3906 68.4805 44.0716 67.8945 43.4336C67.3216 42.7826 67.0352 41.9557 67.0352 40.9531C67.0352 40.6927 67.1003 40.1589 67.2305 39.3516C67.3737 38.5443 67.4909 37.9844 67.582 37.6719L66.9961 37.4961C66.332 39.8268 65.4531 41.5586 64.3594 42.6914C63.2656 43.8242 61.9115 44.3906 60.2969 44.3906C58.5651 44.3906 57.1784 43.8177 56.1367 42.6719C55.1081 41.513 54.3854 40.0612 53.9688 38.3164C53.5521 36.5716 53.3438 34.7096 53.3438 32.7305ZM66.7422 32.3789C66.8203 31.9102 66.8594 31.3633 66.8594 30.7383C66.8594 30.3346 66.8398 29.9505 66.8008 29.5859C66.7747 29.2214 66.7422 28.9609 66.7031 28.8047C66.1823 28.4271 65.5898 28.1602 64.9258 28.0039C64.2747 27.8477 63.6758 27.7695 63.1289 27.7695C62.7904 27.7695 62.4258 27.8021 62.0352 27.8672C61.7747 28.1276 61.5664 28.694 61.4102 29.5664C61.2539 30.4258 61.1758 31.3958 61.1758 32.4766C61.1758 33.6354 61.2539 34.7617 61.4102 35.8555C61.5794 36.9362 61.8138 37.7826 62.1133 38.3945C62.3216 38.3945 62.7253 38.0755 63.3242 37.4375C63.9362 36.7865 64.5677 35.9922 65.2188 35.0547C65.8698 34.1042 66.3776 33.2122 66.7422 32.3789Z"/>
</mask>
<path d="M3.83203 25.9727L4.83133 26.0108L4.83157 26.0029L3.83203 25.9727ZM4.14453 20.2891L5.14074 20.376L5.23564 19.2891H4.14453V20.2891ZM4.10547 20.2891L3.92276 21.2722L4.01334 21.2891H4.10547V20.2891ZM1.89844 19.8789L0.922721 20.0979L1.0672 20.7416L1.71573 20.8621L1.89844 19.8789ZM1.58594 18.2578L0.592405 18.3714L0.594234 18.3874L0.596578 18.4033L1.58594 18.2578ZM1.52734 16.0703L0.737992 15.4564L0.551524 15.6961L0.529885 15.9991L1.52734 16.0703ZM2.77734 15.0156L3.30912 15.8625L3.31422 15.8593L2.77734 15.0156ZM10.8047 14.9961L10.0811 15.6863L10.8047 14.9961ZM11.8984 18.7852L10.8994 18.7387L10.899 18.7507L11.8984 18.7852ZM11.8398 20.4844L10.8404 20.4499L10.8402 20.458L10.84 20.4661L11.8398 20.4844ZM11.4883 27.4375L10.4935 27.3358L10.3809 28.4375H11.4883V27.4375ZM18.1289 27.4375V28.4375H19.1139L19.1288 27.4526L18.1289 27.4375ZM18.4805 20.2695L19.4765 20.3585L19.5737 19.2695H18.4805V20.2695ZM18.4414 20.2695L18.2961 21.2589L18.3684 21.2695H18.4414V20.2695ZM15.6484 19.8594L14.6727 20.0784L14.8232 20.7489L15.5031 20.8488L15.6484 19.8594ZM15.3359 18.2383L14.3424 18.3518L14.3442 18.3678L14.3466 18.3838L15.3359 18.2383ZM15.2773 16.0508L14.4994 15.4224L14.3022 15.6665L14.2799 15.9795L15.2773 16.0508ZM18.9688 14.0781L18.6959 13.1161L18.6921 13.1172L18.9688 14.0781ZM25.3359 14.9961L24.6342 15.7085L24.6395 15.7138L24.645 15.719L25.3359 14.9961ZM24.4961 38.3555L23.5106 38.1859L23.1972 40.0066L24.893 39.2733L24.4961 38.3555ZM27.3867 37.1055L28.0424 36.3504L27.5673 35.9379L26.9898 36.1876L27.3867 37.1055ZM29.0859 40.582H30.0859V40.533L30.0811 40.4843L29.0859 40.582ZM28.168 41.7148L27.4326 41.0372L27.432 41.0378L28.168 41.7148ZM25.8047 43.5508L26.3071 44.4154L26.3107 44.4133L25.8047 43.5508ZM19.2422 43.3359L18.6031 44.1051L18.6089 44.1099L19.2422 43.3359ZM17.9922 39.6445L18.9922 39.6519V39.6445H17.9922ZM18.1289 32.9844L19.1269 33.0479L19.2007 31.8874L18.0423 31.9881L18.1289 32.9844ZM12.7969 32.7891L12.7035 33.7847L12.7077 33.7851L12.7969 32.7891ZM11.0195 32.6328L11.0934 31.6355L9.98703 31.5536L10.02 32.6625L11.0195 32.6328ZM11.3125 36.5586L10.3196 36.6777L10.3198 36.6789L11.3125 36.5586ZM11.918 40.9336L12.9066 40.7834L12.9066 40.7833L11.918 40.9336ZM12.25 43.2578L12.7706 44.1116L13.3224 43.7751L13.2423 43.1338L12.25 43.2578ZM5.60938 44.2734L5.42728 45.2567L5.43358 45.2579L5.60938 44.2734ZM4.4375 43.9805L3.45009 44.1386L3.54899 44.7561L4.14749 44.9375L4.4375 43.9805ZM3.71484 31.8711H4.71484C4.71484 29.9968 4.75362 28.0434 4.8313 26.0108L3.83203 25.9727L2.83276 25.9345C2.75419 27.9904 2.71484 29.9693 2.71484 31.8711H3.71484ZM3.83203 25.9727L4.83157 26.0029C4.89627 23.8681 4.99957 21.9931 5.14074 20.376L4.14453 20.2891L3.14832 20.2021C3.00304 21.8662 2.89801 23.7804 2.83249 25.9424L3.83203 25.9727ZM4.14453 20.2891V19.2891H4.10547V20.2891V21.2891H4.14453V20.2891ZM4.10547 20.2891L4.28818 19.3059L2.08115 18.8957L1.89844 19.8789L1.71573 20.8621L3.92276 21.2722L4.10547 20.2891ZM1.89844 19.8789L2.87415 19.6599C2.73415 19.0362 2.63554 18.522 2.5753 18.1123L1.58594 18.2578L0.596578 18.4033C0.666546 18.8791 0.776271 19.4456 0.922721 20.0979L1.89844 19.8789ZM1.58594 18.2578L2.57947 18.1443C2.5319 17.7281 2.50781 17.2973 2.50781 16.8516H1.50781H0.507812C0.507812 17.3694 0.535804 17.8761 0.592405 18.3714L1.58594 18.2578ZM1.50781 16.8516H2.50781C2.50781 16.5204 2.51434 16.2881 2.5248 16.1416L1.52734 16.0703L0.529885 15.9991C0.514309 16.2171 0.507812 16.5056 0.507812 16.8516H1.50781ZM1.52734 16.0703L2.3167 16.6843C2.49274 16.4579 2.80477 16.1792 3.30911 15.8625L2.77734 15.0156L2.24558 14.1687C1.63012 14.5552 1.10882 14.9796 0.737992 15.4564L1.52734 16.0703ZM2.77734 15.0156L3.31422 15.8593C3.80595 15.5464 4.39189 15.2737 5.08084 15.048L4.76953 14.0977L4.45822 13.1473C3.63676 13.4164 2.89457 13.7557 2.24047 14.172L2.77734 15.0156ZM4.76953 14.0977L5.08084 15.048C5.73395 14.834 6.41003 14.7266 7.11328 14.7266V13.7266V12.7266C6.20195 12.7266 5.31552 12.8665 4.45822 13.1473L4.76953 14.0977ZM7.11328 13.7266V14.7266C8.60877 14.7266 9.5295 15.108 10.0811 15.6863L10.8047 14.9961L11.5283 14.3059C10.4653 13.1914 8.92508 12.7266 7.11328 12.7266V13.7266ZM10.8047 14.9961L10.0811 15.6863C10.6301 16.2619 10.9706 17.211 10.8995 18.7387L11.8984 18.7852L12.8974 18.8316C12.9826 16.9999 12.5939 15.423 11.5283 14.3059L10.8047 14.9961ZM11.8984 18.7852L10.899 18.7507L10.8404 20.4499L11.8398 20.4844L12.8392 20.5188L12.8978 18.8196L11.8984 18.7852ZM11.8398 20.4844L10.84 20.4661C10.7882 23.304 10.6718 25.5909 10.4935 27.3358L11.4883 27.4375L12.4831 27.5392C12.6694 25.7164 12.7873 23.3679 12.8397 20.5026L11.8398 20.4844ZM11.4883 27.4375V28.4375H18.1289V27.4375V26.4375H11.4883V27.4375ZM18.1289 27.4375L19.1288 27.4526C19.1675 24.8818 19.2837 22.5175 19.4765 20.3585L18.4805 20.2695L17.4844 20.1806C17.2866 22.3966 17.1684 24.8109 17.129 27.4224L18.1289 27.4375ZM18.4805 20.2695V19.2695H18.4414V20.2695V21.2695H18.4805V20.2695ZM18.4414 20.2695L18.5867 19.2801L15.7937 18.87L15.6484 19.8594L15.5031 20.8488L18.2961 21.2589L18.4414 20.2695ZM15.6484 19.8594L16.6242 19.6403C16.4841 19.0167 16.3855 18.5024 16.3253 18.0928L15.3359 18.2383L14.3466 18.3838C14.4165 18.8596 14.5263 19.426 14.6727 20.0784L15.6484 19.8594ZM15.3359 18.2383L16.3295 18.1247C16.2819 17.7085 16.2578 17.2778 16.2578 16.832H15.2578H14.2578C14.2578 17.3499 14.2858 17.8566 14.3424 18.3518L15.3359 18.2383ZM15.2578 16.832H16.2578C16.2578 16.5009 16.2643 16.2685 16.2748 16.122L15.2773 16.0508L14.2799 15.9795C14.2643 16.1976 14.2578 16.4861 14.2578 16.832H15.2578ZM15.2773 16.0508L16.0553 16.6791C16.2076 16.4905 16.543 16.2141 17.1649 15.8727L16.6836 14.9961L16.2023 14.1195C15.4961 14.5072 14.8939 14.934 14.4994 15.4224L15.2773 16.0508ZM16.6836 14.9961L17.1649 15.8727C17.7537 15.5494 18.4448 15.2696 19.2454 15.0391L18.9688 14.0781L18.6921 13.1172C17.774 13.3815 16.9417 13.7136 16.2023 14.1195L16.6836 14.9961ZM18.9688 14.0781L19.2416 15.0402C20.0315 14.8162 20.7991 14.707 21.5469 14.707V13.707V12.707C20.6019 12.707 19.6508 12.8453 18.6959 13.1161L18.9688 14.0781ZM21.5469 13.707V14.707C23.0323 14.707 24.0068 15.0905 24.6342 15.7085L25.3359 14.9961L26.0377 14.2837C24.9203 13.183 23.3687 12.707 21.5469 12.707V13.707ZM25.3359 14.9961L24.645 15.719C25.2699 16.3163 25.6641 17.2703 25.6641 18.7656H26.6641H27.6641C27.6641 16.9276 27.1728 15.3686 26.0269 14.2732L25.3359 14.9961ZM26.6641 18.7656H25.6641C25.6641 23.3417 24.9528 29.8056 23.5106 38.1859L24.4961 38.3555L25.4816 38.5251C26.9301 30.1084 27.6641 23.5125 27.6641 18.7656H26.6641ZM24.4961 38.3555L24.893 39.2733L27.7836 38.0233L27.3867 37.1055L26.9898 36.1876L24.0992 37.4376L24.4961 38.3555ZM27.3867 37.1055L26.731 37.8605C27.5042 38.5319 27.9693 39.4433 28.0907 40.6798L29.0859 40.582L30.0811 40.4843C29.9161 38.8041 29.2484 37.3977 28.0424 36.3504L27.3867 37.1055ZM29.0859 40.582H28.0859C28.0859 40.4566 28.1107 40.3612 28.1249 40.314C28.1406 40.2619 28.1573 40.2239 28.1666 40.2043C28.1844 40.1664 28.1972 40.1482 28.1912 40.1575C28.1804 40.174 28.1476 40.2199 28.0795 40.304C27.9467 40.4679 27.7342 40.7099 27.4326 41.0372L28.168 41.7148L28.9033 42.3925C29.2138 42.0557 29.4602 41.7769 29.6334 41.5632C29.7182 41.4585 29.8002 41.3514 29.8659 41.2507C29.8981 41.2014 29.9397 41.1336 29.9766 41.055C29.9994 41.0064 30.0859 40.8238 30.0859 40.582H29.0859ZM28.168 41.7148L27.432 41.0378C26.9158 41.5989 26.2125 42.1522 25.2987 42.6883L25.8047 43.5508L26.3107 44.4133C27.35 43.8036 28.2222 43.1329 28.9039 42.3919L28.168 41.7148ZM25.8047 43.5508L25.3023 42.6862C24.5077 43.1479 23.5843 43.3906 22.5039 43.3906V44.3906V45.3906C23.8975 45.3906 25.1746 45.0735 26.3071 44.4154L25.8047 43.5508ZM22.5039 44.3906V43.3906C21.3752 43.3906 20.5245 43.0931 19.8754 42.562L19.2422 43.3359L18.6089 44.1099C19.6786 44.9851 21.0024 45.3906 22.5039 45.3906V44.3906ZM19.2422 43.3359L19.8812 42.5667C19.3744 42.1457 18.98 41.2881 18.9922 39.6519L17.9922 39.6445L16.9922 39.6371C16.9783 41.5166 17.4173 43.1199 18.6032 44.1051L19.2422 43.3359ZM17.9922 39.6445H18.9922V38.375H17.9922H16.9922V39.6445H17.9922ZM17.9922 38.375H18.9922C18.9922 36.2253 19.0376 34.4513 19.1269 33.0479L18.1289 32.9844L17.1309 32.9209C17.0379 34.382 16.9922 36.2018 16.9922 38.375H17.9922ZM18.1289 32.9844L18.0423 31.9881C17.7879 32.0103 17.3679 32.0234 16.7617 32.0234V33.0234V34.0234C17.3795 34.0234 17.8709 34.0106 18.2155 33.9806L18.1289 32.9844ZM16.7617 33.0234V32.0234C15.9092 32.0234 14.6234 31.9486 12.8861 31.793L12.7969 32.7891L12.7077 33.7851C14.4599 33.942 15.8174 34.0234 16.7617 34.0234V33.0234ZM12.7969 32.7891L12.8902 31.7934C12.0568 31.7153 11.4557 31.6624 11.0934 31.6355L11.0195 32.6328L10.9457 33.6301C11.2865 33.6553 11.8703 33.7066 12.7035 33.7847L12.7969 32.7891ZM11.0195 32.6328L10.02 32.6625C10.0599 34.0074 10.1598 35.3459 10.3196 36.6777L11.3125 36.5586L12.3054 36.4394C12.1527 35.1672 12.0573 33.8884 12.0191 32.6031L11.0195 32.6328ZM11.3125 36.5586L10.3198 36.6789C10.4775 37.9802 10.6808 39.4488 10.9293 41.0839L11.918 40.9336L12.9066 40.7833C12.6604 39.1632 12.46 37.7151 12.3052 36.4383L11.3125 36.5586ZM11.918 40.9336L10.9293 41.0838C11.0853 42.1104 11.1943 42.8745 11.2577 43.3818L12.25 43.2578L13.2423 43.1338C13.1755 42.5994 13.0632 41.8141 12.9066 40.7834L11.918 40.9336ZM12.25 43.2578L11.7294 42.404C11.3571 42.631 10.6592 42.8721 9.534 43.0744L9.71094 44.0586L9.88788 45.0428C11.0803 44.8284 12.0752 44.5357 12.7706 44.1116L12.25 43.2578ZM9.71094 44.0586L9.534 43.0744C8.40959 43.2765 7.4895 43.3711 6.76172 43.3711V44.3711V45.3711C7.64852 45.3711 8.69458 45.2573 9.88788 45.0428L9.71094 44.0586ZM6.76172 44.3711V43.3711C6.4118 43.3711 6.08681 43.3429 5.78517 43.289L5.60938 44.2734L5.43358 45.2579C5.8611 45.3342 6.30434 45.3711 6.76172 45.3711V44.3711ZM5.60938 44.2734L5.79146 43.2902C5.48414 43.2332 5.13025 43.1455 4.72751 43.0234L4.4375 43.9805L4.14749 44.9375C4.60412 45.0759 5.03148 45.1834 5.42729 45.2567L5.60938 44.2734ZM4.4375 43.9805L5.42491 43.8223C4.95519 40.8897 4.71484 36.913 4.71484 31.8711H3.71484H2.71484C2.71484 36.9594 2.95627 41.0556 3.45009 44.1386L4.4375 43.9805ZM39.418 31.3633L39.2513 32.3493L39.2536 32.3497L39.418 31.3633ZM41.9961 31.9297L41.7235 32.8918L42.9961 33.2524V31.9297H41.9961ZM41.957 29.9766L40.9574 30.0029L40.9577 30.016L40.9584 30.0291L41.957 29.9766ZM41.8789 29L42.849 28.7575L42.8196 28.6395L42.7627 28.5321L41.8789 29ZM40.8633 28.3164L40.4693 29.2356L40.4771 29.2388L40.8633 28.3164ZM35.7852 28.2578L36.0054 29.2333L36.0168 29.2306L35.7852 28.2578ZM33.0898 29L32.2335 29.5163L32.6401 30.1907L33.391 29.9536L33.0898 29ZM31.8008 26.4805L30.8682 26.8415L30.8718 26.8506L30.8755 26.8597L31.8008 26.4805ZM31.3906 23.3164L30.7767 22.5271L30.4645 22.7698L30.4029 23.1604L31.3906 23.3164ZM48.0312 23.9023L48.8229 23.2914L48.0312 23.9023ZM48.6562 35.25L47.6865 35.006L47.6854 35.0104L48.6562 35.25ZM47.8945 38.3164L46.9458 38.0002L46.2424 40.1104L48.2877 39.2359L47.8945 38.3164ZM50.7266 37.1055L51.4568 36.4223L50.9779 35.9104L50.3334 36.186L50.7266 37.1055ZM51.7227 38.5898L50.8243 39.0291L50.8302 39.0412L50.8364 39.0531L51.7227 38.5898ZM52.2891 40.582L53.1952 41.0049L53.3122 40.7543L53.2838 40.4791L52.2891 40.582ZM51.0977 42.0859L51.7972 42.8006L51.8048 42.793L51.0977 42.0859ZM48.8516 43.6875L49.3195 44.5713L48.8516 43.6875ZM43.6172 43.4336L42.8579 44.0844L42.8656 44.0932L43.6172 43.4336ZM43.0508 39.2148L44.0115 39.4924L44.2862 38.5414L43.3381 38.257L43.0508 39.2148ZM42.4648 39.0391L42.7522 38.0812L41.6762 37.7584L41.4802 38.8646L42.4648 39.0391ZM40.1406 43.2578L40.6781 44.1011L40.1406 43.2578ZM33.5 43.6094L32.978 44.4624L32.9874 44.468L33.5 43.6094ZM31.3711 41.3047L30.4906 41.7788L30.4932 41.7835L31.3711 41.3047ZM32.1719 32.8281L32.8914 33.5226L32.8954 33.5184L32.1719 32.8281ZM39.1055 38.5703L39.0201 39.5667L39.1619 39.5788L39.3016 39.5509L39.1055 38.5703ZM40.2578 38.0234L39.7086 37.1877L39.6975 37.1952L40.2578 38.0234ZM42.0938 35.7578L43.0792 35.9277L43.115 35.7199L43.0639 35.5153L42.0938 35.7578ZM41.9766 35.2891L42.9467 35.0465L42.7818 34.3867L42.1075 34.2977L41.9766 35.2891ZM38.4023 35.3086L38.0143 34.387L37.8055 34.4749L37.6549 34.6442L38.4023 35.3086ZM38.0898 38.0039L37.2382 38.528L37.2454 38.5397L37.2529 38.5512L38.0898 38.0039ZM36.8789 31.1289V32.1289C37.5807 32.1289 38.3704 32.2004 39.2513 32.3493L39.418 31.3633L39.5846 30.3773C38.6166 30.2137 37.7136 30.1289 36.8789 30.1289V31.1289ZM39.418 31.3633L39.2536 32.3497C40.1606 32.5008 40.9832 32.6821 41.7235 32.8918L41.9961 31.9297L42.2687 30.9676C41.4465 30.7346 40.5504 30.5382 39.5824 30.3769L39.418 31.3633ZM41.9961 31.9297H42.9961V31.3242H41.9961H40.9961V31.9297H41.9961ZM41.9961 31.3242H42.9961C42.9961 30.8996 42.9824 30.4325 42.9556 29.924L41.957 29.9766L40.9584 30.0291C40.9837 30.5102 40.9961 30.9415 40.9961 31.3242H41.9961ZM41.957 29.9766L42.9567 29.9503C42.9442 29.4763 42.9193 29.0386 42.849 28.7575L41.8789 29L40.9088 29.2425C40.9074 29.237 40.9188 29.2894 40.9309 29.4411C40.942 29.5795 40.9511 29.7652 40.9574 30.0029L41.957 29.9766ZM41.8789 29L42.7627 28.5321C42.5931 28.2118 42.3248 27.9879 42.0955 27.8335C41.8527 27.6701 41.5635 27.5255 41.2494 27.394L40.8633 28.3164L40.4771 29.2388C40.7229 29.3417 40.883 29.4282 40.9787 29.4927C41.0252 29.524 41.0448 29.5422 41.0475 29.5449C41.0509 29.5483 41.0247 29.5238 40.9951 29.4679L41.8789 29ZM40.8633 28.3164L41.2572 27.3973C40.511 27.0775 39.4369 26.9648 38.168 26.9648V27.9648V28.9648C39.399 28.9648 40.1218 29.0866 40.4694 29.2356L40.8633 28.3164ZM38.168 27.9648V26.9648C37.3146 26.9648 36.4424 27.0734 35.5535 27.285L35.7852 28.2578L36.0168 29.2306C36.7685 29.0516 37.4849 28.9648 38.168 28.9648V27.9648ZM35.7852 28.2578L35.5649 27.2824C34.7246 27.4721 33.7986 27.7275 32.7887 28.0464L33.0898 29L33.391 29.9536C34.3603 29.6475 35.2312 29.4081 36.0054 29.2333L35.7852 28.2578ZM33.0898 29L33.9462 28.4837C33.4337 27.6336 33.0287 26.8397 32.7261 26.1012L31.8008 26.4805L30.8755 26.8597C31.2239 27.7098 31.6783 28.5956 32.2335 29.5163L33.0898 29ZM31.8008 26.4805L32.7333 26.1195C32.4622 25.4189 32.332 24.7337 32.332 24.0586H31.332H30.332C30.332 24.998 30.5144 25.9274 30.8682 26.8415L31.8008 26.4805ZM31.332 24.0586H32.332C32.332 23.8641 32.3474 23.6688 32.3784 23.4724L31.3906 23.3164L30.4029 23.1604C30.3558 23.4588 30.332 23.7583 30.332 24.0586H31.332ZM31.3906 23.3164L32.0046 24.1058C33.8981 22.633 36.3931 21.8555 39.5742 21.8555V20.8555V19.8555C36.0626 19.8555 33.1019 20.7185 30.7767 22.5271L31.3906 23.3164ZM39.5742 20.8555V21.8555C41.3503 21.8555 42.8939 22.0558 44.2168 22.4407L44.4961 21.4805L44.7754 20.5203C43.2337 20.0718 41.4961 19.8555 39.5742 19.8555V20.8555ZM44.4961 21.4805L44.2168 22.4407C45.4425 22.7972 46.4426 23.4805 47.2396 24.5133L48.0312 23.9023L48.8229 23.2914C47.771 21.9283 46.4143 20.997 44.7754 20.5203L44.4961 21.4805ZM48.0312 23.9023L47.2396 24.5133C47.9798 25.4724 48.418 26.9236 48.418 29H49.418H50.418C50.418 26.6753 49.9317 24.7281 48.8229 23.2914L48.0312 23.9023ZM49.418 29H48.418C48.418 31.0688 48.1736 33.0701 47.6865 35.006L48.6562 35.25L49.626 35.494C50.1546 33.3934 50.418 31.228 50.418 29H49.418ZM48.6562 35.25L47.6854 35.0104C47.438 36.0129 47.251 36.7691 47.1242 37.2794C47.0608 37.5347 47.0127 37.7277 46.9797 37.8588C46.9374 38.0271 46.9334 38.0376 46.9458 38.0002L47.8945 38.3164L48.8432 38.6326C48.8622 38.5757 48.8948 38.4438 48.9193 38.3467C48.953 38.2126 49.0017 38.0174 49.0652 37.7616C49.1924 37.2497 49.3797 36.4923 49.6271 35.4896L48.6562 35.25ZM47.8945 38.3164L48.2877 39.2359L51.1197 38.0249L50.7266 37.1055L50.3334 36.186L47.5014 37.3969L47.8945 38.3164ZM50.7266 37.1055L49.9963 37.7886C50.2951 38.1081 50.5738 38.5167 50.8243 39.0291L51.7227 38.5898L52.621 38.1506C52.2986 37.4911 51.9132 36.9101 51.4568 36.4223L50.7266 37.1055ZM51.7227 38.5898L50.8364 39.0531C51.068 39.4961 51.227 40.034 51.2944 40.6849L52.2891 40.582L53.2838 40.4791C53.1948 39.6196 52.9763 38.8294 52.6089 38.1266L51.7227 38.5898ZM52.2891 40.582L51.3829 40.1591C51.278 40.384 50.986 40.7834 50.3905 41.3788L51.0977 42.0859L51.8048 42.793C52.4333 42.1645 52.9356 41.5614 53.1952 41.0049L52.2891 40.582ZM51.0977 42.0859L50.3982 41.3713C49.8654 41.8927 49.1982 42.3725 48.3837 42.8037L48.8516 43.6875L49.3195 44.5713C50.2757 44.065 51.106 43.477 51.7971 42.8006L51.0977 42.0859ZM48.8516 43.6875L48.3837 42.8037C47.6365 43.1993 46.872 43.3906 46.0781 43.3906V44.3906V45.3906C47.2114 45.3906 48.2958 45.1132 49.3195 44.5713L48.8516 43.6875ZM46.0781 44.3906V43.3906C45.2009 43.3906 44.6895 43.1395 44.3688 42.774L43.6172 43.4336L42.8656 44.0932C43.6646 45.0038 44.7939 45.3906 46.0781 45.3906V44.3906ZM43.6172 43.4336L44.3764 42.7828C44.0157 42.3619 43.7969 41.782 43.7969 40.9531H42.7969H41.7969C41.7969 42.1555 42.1249 43.2292 42.8579 44.0844L43.6172 43.4336ZM42.7969 40.9531H43.7969C43.7969 40.48 43.8666 39.9939 44.0115 39.4924L43.0508 39.2148L42.0901 38.9373C41.8964 39.6076 41.7969 40.2804 41.7969 40.9531H42.7969ZM43.0508 39.2148L43.3381 38.257L42.7522 38.0812L42.4648 39.0391L42.1775 39.9969L42.7634 40.1727L43.0508 39.2148ZM42.4648 39.0391L41.4802 38.8646C41.1405 40.7811 40.4569 41.8704 39.6032 42.4145L40.1406 43.2578L40.6781 44.1011C42.1941 43.1349 43.06 41.4116 43.4495 39.2136L42.4648 39.0391ZM40.1406 43.2578L39.6032 42.4145C38.5821 43.0653 37.4606 43.3906 36.2148 43.3906V44.3906V45.3906C37.8337 45.3906 39.3294 44.9607 40.6781 44.1011L40.1406 43.2578ZM36.2148 44.3906V43.3906C35.4729 43.3906 34.7435 43.1871 34.0126 42.7508L33.5 43.6094L32.9874 44.468C34.0013 45.0733 35.0818 45.3906 36.2148 45.3906V44.3906ZM33.5 43.6094L34.022 42.7564C33.3158 42.3243 32.722 41.6931 32.249 40.8258L31.3711 41.3047L30.4932 41.7835C31.1139 42.9215 31.9394 43.8268 32.978 44.4623L33.5 43.6094ZM31.3711 41.3047L32.2516 40.8306C31.7958 39.9841 31.5508 38.9675 31.5508 37.75H30.5508H29.5508C29.5508 39.2408 29.8527 40.594 30.4906 41.7788L31.3711 41.3047ZM30.5508 37.75H31.5508C31.5508 35.7456 32.0508 34.3936 32.8914 33.5226L32.1719 32.8281L31.4523 32.1337C30.1315 33.5022 29.5508 35.4315 29.5508 37.75H30.5508ZM32.1719 32.8281L32.8954 33.5184C33.7333 32.6401 35.0052 32.1289 36.8789 32.1289V31.1289V30.1289C34.638 30.1289 32.7719 30.7505 31.4483 32.1378L32.1719 32.8281ZM39.1055 38.5703L39.3016 39.5509C39.8128 39.4487 40.3245 39.1857 40.8181 38.8517L40.2578 38.0234L39.6975 37.1952C39.3057 37.4602 39.0492 37.5618 38.9094 37.5897L39.1055 38.5703ZM40.2578 38.0234L40.807 38.8591C41.3432 38.5068 41.8193 38.0844 42.233 37.5941L41.4688 36.9492L40.7045 36.3043C40.4151 36.6474 40.0839 36.9412 39.7086 37.1877L40.2578 38.0234ZM41.4688 36.9492L42.233 37.5941C42.6534 37.0959 42.9738 36.5393 43.0792 35.9277L42.0938 35.7578L41.1083 35.5879C41.0835 35.7315 40.9872 35.9692 40.7045 36.3043L41.4688 36.9492ZM42.0938 35.7578L43.0639 35.5153L42.9467 35.0465L41.9766 35.2891L41.0064 35.5316L41.1236 36.0003L42.0938 35.7578ZM41.9766 35.2891L42.1075 34.2977C41.3691 34.2001 40.5894 34.1523 39.7695 34.1523V35.1523V36.1523C40.5122 36.1523 41.2038 36.1957 41.8456 36.2805L41.9766 35.2891ZM39.7695 35.1523V34.1523C39.1129 34.1523 38.4689 34.1956 38.0143 34.387L38.4023 35.3086L38.7904 36.2302C38.786 36.2321 38.8531 36.2067 39.0432 36.1849C39.2208 36.1646 39.4603 36.1523 39.7695 36.1523V35.1523ZM38.4023 35.3086L37.6549 34.6442C37.0922 35.2773 36.7773 36.0293 36.7773 36.8711H37.7773H38.7773C38.7773 36.567 38.8791 36.2774 39.1498 35.973L38.4023 35.3086ZM37.7773 36.8711H36.7773C36.7773 37.4635 36.9281 38.0241 37.2382 38.528L38.0898 38.0039L38.9415 37.4798C38.8349 37.3066 38.7773 37.112 38.7773 36.8711H37.7773ZM38.0898 38.0039L37.2529 38.5512C37.6659 39.1829 38.3036 39.5052 39.0201 39.5667L39.1055 38.5703L39.1909 37.574C38.9959 37.5573 38.9565 37.502 38.9268 37.4567L38.0898 38.0039ZM54.1641 27.0469L53.2087 26.7513L53.2068 26.7576L54.1641 27.0469ZM56.7812 22.5938L56.0859 21.875L56.082 21.8788L56.7812 22.5938ZM67.1133 22.7891L66.5414 23.6094L67.0832 23.9871L67.6433 23.6371L67.1133 22.7891ZM67.4258 22.5938L67.9558 23.4417L68.4401 23.1391L68.4255 22.5681L67.4258 22.5938ZM66.8594 18.4531L67.8239 18.1891L67.6355 17.5008L66.9233 17.4552L66.8594 18.4531ZM62.8945 18.1992L62.1052 18.8132L62.3815 19.1684L62.8306 19.1972L62.8945 18.1992ZM62.4648 17.1641L61.4886 17.381L61.49 17.3869L62.4648 17.1641ZM62.543 14L61.9604 13.1872L61.6932 13.3787L61.5917 13.6915L62.543 14ZM72.2891 13.1602L71.6503 13.9296L71.659 13.9367L72.2891 13.1602ZM73.6758 15.7188L72.696 15.9192L72.6988 15.9321L73.6758 15.7188ZM72.8555 37.75L73.8289 37.979L73.8367 37.946L73.8422 37.9124L72.8555 37.75ZM72.7773 38.082L71.8039 37.853L71.3489 39.7867L73.1732 39.0004L72.7773 38.082ZM75.043 37.1055L75.7732 36.4223L75.2929 35.9088L74.6471 36.1871L75.043 37.1055ZM76.0391 38.5898L75.1407 39.0291L75.1466 39.0412L75.1528 39.0531L76.0391 38.5898ZM76.6055 40.582L77.5117 41.0049L77.6286 40.7543L77.6002 40.4791L76.6055 40.582ZM75.4141 42.0859L76.1136 42.8006L76.1212 42.793L75.4141 42.0859ZM67.8945 43.4336L67.1438 44.0942L67.1508 44.1022L67.158 44.11L67.8945 43.4336ZM67.2305 39.3516L66.2458 39.1769L66.2445 39.1846L66.2432 39.1923L67.2305 39.3516ZM67.582 37.6719L68.542 37.9519L68.8199 36.9992L67.8694 36.714L67.582 37.6719ZM66.9961 37.4961L67.2834 36.5383L66.3122 36.2469L66.0344 37.2221L66.9961 37.4961ZM56.1367 42.6719L55.3888 43.3358L55.3968 43.3445L56.1367 42.6719ZM66.7422 32.3789L67.6583 32.7797L67.7082 32.6659L67.7286 32.5433L66.7422 32.3789ZM66.8008 29.5859L65.8033 29.6572L65.8046 29.6749L65.8065 29.6925L66.8008 29.5859ZM66.7031 28.8047L67.6733 28.5622L67.5849 28.2088L67.2901 27.9951L66.7031 28.8047ZM64.9258 28.0039L64.6924 28.9763L64.6967 28.9773L64.9258 28.0039ZM62.0352 27.8672L61.8708 26.8808L61.5547 26.9335L61.328 27.1601L62.0352 27.8672ZM61.4102 29.5664L62.394 29.7453L62.3945 29.7427L61.4102 29.5664ZM61.4102 35.8555L60.4201 35.9969L60.4222 36.0102L61.4102 35.8555ZM62.1133 38.3945L61.2151 38.8341L61.4893 39.3945H62.1133V38.3945ZM63.3242 37.4375L62.5956 36.7526L62.5951 36.7531L63.3242 37.4375ZM65.2188 35.0547L66.0401 35.6251L66.0438 35.6198L65.2188 35.0547ZM53.3438 32.7305H54.3438C54.3438 30.8447 54.6041 29.0479 55.1213 27.3361L54.1641 27.0469L53.2068 26.7576C52.6303 28.6656 52.3438 30.6579 52.3438 32.7305H53.3438ZM54.1641 27.0469L55.1194 27.3424C55.6372 25.6685 56.4306 24.3355 57.4805 23.3087L56.7812 22.5938L56.082 21.8788C54.7621 23.1697 53.8107 24.8055 53.2087 26.7513L54.1641 27.0469ZM56.7812 22.5938L57.4765 23.3125C58.4711 22.3504 59.7181 21.8555 61.293 21.8555V20.8555V19.8555C59.248 19.8555 57.4872 20.5194 56.086 21.875L56.7812 22.5938ZM61.293 20.8555V21.8555C63.0975 21.8555 64.841 22.4239 66.5414 23.6094L67.1133 22.7891L67.6852 21.9687C65.6877 20.5761 63.551 19.8555 61.293 19.8555V20.8555ZM67.1133 22.7891L67.6433 23.6371L67.9558 23.4417L67.4258 22.5938L66.8958 21.7458L66.5833 21.9411L67.1133 22.7891ZM67.4258 22.5938L68.4255 22.5681C68.3847 20.9787 68.1873 19.5168 67.8239 18.1891L66.8594 18.4531L65.8948 18.7171C66.2086 19.8634 66.3887 21.1619 66.4261 22.6194L67.4258 22.5938ZM66.8594 18.4531L66.9233 17.4552L62.9584 17.2013L62.8945 18.1992L62.8306 19.1972L66.7955 19.4511L66.8594 18.4531ZM62.8945 18.1992L63.6839 17.5853C63.628 17.5135 63.528 17.3277 63.4397 16.9412L62.4648 17.1641L61.49 17.3869C61.61 17.9119 61.7964 18.4162 62.1052 18.8132L62.8945 18.1992ZM62.4648 17.1641L63.441 16.9471C63.3532 16.5517 63.3086 16.1428 63.3086 15.7188H62.3086H61.3086C61.3086 16.2843 61.3682 16.8389 61.4887 17.381L62.4648 17.1641ZM62.3086 15.7188H63.3086C63.3086 15.1288 63.3785 14.6651 63.4942 14.3085L62.543 14L61.5917 13.6915C61.3949 14.2984 61.3086 14.9806 61.3086 15.7188H62.3086ZM62.543 14L63.1255 14.8128C63.7729 14.3488 64.6449 13.9695 65.7787 13.7042L65.5508 12.7305L65.3229 11.7568C64.0087 12.0644 62.8755 12.5314 61.9604 13.1872L62.543 14ZM65.5508 12.7305L65.7787 13.7042C66.9299 13.4347 68.0775 13.3008 69.2227 13.3008V12.3008V11.3008C67.9199 11.3008 66.6195 11.4533 65.3229 11.7568L65.5508 12.7305ZM69.2227 12.3008V13.3008C70.4577 13.3008 71.2114 13.5652 71.6503 13.9296L72.2891 13.1602L72.9278 12.3907C71.9865 11.6093 70.6959 11.3008 69.2227 11.3008V12.3008ZM72.2891 13.1602L71.659 13.9367C72.1194 14.3102 72.4933 14.9277 72.6961 15.9191L73.6758 15.7188L74.6555 15.5184C74.3895 14.2181 73.8389 13.1299 72.9191 12.3836L72.2891 13.1602ZM73.6758 15.7188L72.6988 15.9321C72.9237 16.9618 73.0469 18.4544 73.0469 20.4453H74.0469H75.0469C75.0469 18.3997 74.9227 16.7413 74.6528 15.5054L73.6758 15.7188ZM74.0469 20.4453H73.0469C73.0469 23.0748 72.9373 26.0666 72.717 29.4228L73.7148 29.4883L74.7127 29.5538C74.9351 26.1651 75.0469 23.1283 75.0469 20.4453H74.0469ZM73.7148 29.4883L72.717 29.4228C72.4967 32.7785 72.213 35.4968 71.8688 37.5876L72.8555 37.75L73.8422 37.9124C74.2011 35.7324 74.4902 32.9428 74.7127 29.5538L73.7148 29.4883ZM72.8555 37.75L71.8821 37.521L71.8039 37.853L72.7773 38.082L73.7508 38.3111L73.8289 37.979L72.8555 37.75ZM72.7773 38.082L73.1732 39.0004L75.4388 38.0238L75.043 37.1055L74.6471 36.1871L72.3815 37.1637L72.7773 38.082ZM75.043 37.1055L74.3127 37.7886C74.6115 38.1081 74.8902 38.5167 75.1407 39.0291L76.0391 38.5898L76.9374 38.1506C76.615 37.4911 76.2296 36.9101 75.7732 36.4223L75.043 37.1055ZM76.0391 38.5898L75.1528 39.0531C75.3844 39.4961 75.5434 40.034 75.6108 40.6849L76.6055 40.582L77.6002 40.4791C77.5112 39.6196 77.2927 38.8294 76.9253 38.1266L76.0391 38.5898ZM76.6055 40.582L75.6993 40.1591C75.5944 40.384 75.3024 40.7834 74.707 41.3788L75.4141 42.0859L76.1212 42.793C76.7497 42.1645 77.252 41.5614 77.5117 41.0049L76.6055 40.582ZM75.4141 42.0859L74.7146 41.3713C74.1818 41.8927 73.5146 42.3725 72.7001 42.8037L73.168 43.6875L73.6359 44.5713C74.5922 44.065 75.4224 43.477 76.1135 42.8006L75.4141 42.0859ZM73.168 43.6875L72.7001 42.8037C71.9529 43.1993 71.1884 43.3906 70.3945 43.3906V44.3906V45.3906C71.5278 45.3906 72.6122 45.1132 73.6359 44.5713L73.168 43.6875ZM70.3945 44.3906V43.3906C69.5195 43.3906 68.9826 43.14 68.6311 42.7572L67.8945 43.4336L67.158 44.11C67.9783 45.0032 69.1081 45.3906 70.3945 45.3906V44.3906ZM67.8945 43.4336L68.6452 42.773C68.2578 42.3327 68.0352 41.7529 68.0352 40.9531H67.0352H66.0352C66.0352 42.1586 66.3855 43.2325 67.1438 44.0942L67.8945 43.4336ZM67.0352 40.9531H68.0352C68.0352 40.7871 68.0849 40.3342 68.2177 39.5108L67.2305 39.3516L66.2432 39.1923C66.1156 39.9835 66.0352 40.5983 66.0352 40.9531H67.0352ZM67.2305 39.3516L68.2151 39.5263C68.3586 38.7171 68.4678 38.2063 68.542 37.9519L67.582 37.6719L66.622 37.3919C66.5139 37.7625 66.3888 38.3714 66.2458 39.1769L67.2305 39.3516ZM67.582 37.6719L67.8694 36.714L67.2834 36.5383L66.9961 37.4961L66.7087 38.4539L67.2947 38.6297L67.582 37.6719ZM66.9961 37.4961L66.0344 37.2221C65.3932 39.4724 64.5744 41.029 63.64 41.9968L64.3594 42.6914L65.0788 43.386C66.3319 42.0881 67.2708 40.1813 67.9578 37.7701L66.9961 37.4961ZM64.3594 42.6914L63.64 41.9968C62.74 42.9289 61.6479 43.3906 60.2969 43.3906V44.3906V45.3906C62.175 45.3906 63.7913 44.7195 65.0788 43.386L64.3594 42.6914ZM60.2969 44.3906V43.3906C58.8098 43.3906 57.7053 42.9107 56.8767 41.9992L56.1367 42.6719L55.3968 43.3445C56.6515 44.7248 58.3204 45.3906 60.2969 45.3906V44.3906ZM56.1367 42.6719L56.8846 42.008C55.9814 40.9905 55.3259 39.6942 54.9414 38.0841L53.9688 38.3164L52.9961 38.5487C53.445 40.4282 54.2348 42.0356 55.3888 43.3357L56.1367 42.6719ZM53.9688 38.3164L54.9414 38.0841C54.5447 36.4228 54.3438 34.6394 54.3438 32.7305H53.3438H52.3438C52.3438 34.7799 52.5595 36.7204 52.9961 38.5487L53.9688 38.3164ZM66.7422 32.3789L67.7286 32.5433C67.8181 32.0064 67.8594 31.4023 67.8594 30.7383H66.8594H65.8594C65.8594 31.3243 65.8226 31.8139 65.7558 32.2145L66.7422 32.3789ZM66.8594 30.7383H67.8594C67.8594 30.3026 67.8383 29.8827 67.7951 29.4794L66.8008 29.5859L65.8065 29.6925C65.8414 30.0183 65.8594 30.3667 65.8594 30.7383H66.8594ZM66.8008 29.5859L67.7982 29.5147C67.7719 29.1462 67.7352 28.8099 67.6733 28.5622L66.7031 28.8047L65.733 29.0472C65.7492 29.1119 65.7776 29.2965 65.8033 29.6572L66.8008 29.5859ZM66.7031 28.8047L67.2901 27.9951C66.6556 27.5351 65.94 27.2152 65.1548 27.0305L64.9258 28.0039L64.6967 28.9773C65.2397 29.1051 65.709 29.3191 66.1162 29.6143L66.7031 28.8047ZM64.9258 28.0039L65.1592 27.0315C64.448 26.8609 63.7696 26.7695 63.1289 26.7695V27.7695V28.7695C63.582 28.7695 64.1014 28.8345 64.6924 28.9763L64.9258 28.0039ZM63.1289 27.7695V26.7695C62.727 26.7695 62.3068 26.8081 61.8708 26.8808L62.0352 27.8672L62.1996 28.8536C62.5447 28.7961 62.8538 28.7695 63.1289 28.7695V27.7695ZM62.0352 27.8672L61.328 27.1601C61.0503 27.4378 60.8712 27.7993 60.7451 28.1421C60.6138 28.4991 60.5099 28.9204 60.4258 29.3901L61.4102 29.5664L62.3945 29.7427C62.4666 29.34 62.5451 29.0419 62.6221 28.8325C62.7044 28.6089 62.7596 28.557 62.7423 28.5743L62.0352 27.8672ZM61.4102 29.5664L60.4263 29.3875C60.2571 30.3178 60.1758 31.3493 60.1758 32.4766H61.1758H62.1758C62.1758 31.4423 62.2507 30.5337 62.394 29.7453L61.4102 29.5664ZM61.1758 32.4766H60.1758C60.1758 33.6804 60.2569 34.8541 60.4202 35.9969L61.4102 35.8555L62.4001 35.714C62.2509 34.6694 62.1758 33.5904 62.1758 32.4766H61.1758ZM61.4102 35.8555L60.4222 36.0102C60.5988 37.1377 60.8532 38.0946 61.2151 38.8341L62.1133 38.3945L63.0115 37.955C62.7744 37.4705 62.5601 36.7347 62.3981 35.7007L61.4102 35.8555ZM62.1133 38.3945V39.3945C62.399 39.3945 62.6318 39.2927 62.7684 39.2215C62.9205 39.1422 63.0636 39.0416 63.1923 38.9398C63.4505 38.7358 63.7399 38.4558 64.0533 38.1219L63.3242 37.4375L62.5951 36.7531C62.3096 37.0573 62.0977 37.2557 61.9522 37.3707C61.9177 37.398 61.8908 37.4175 61.871 37.4308C61.8507 37.4445 61.842 37.4489 61.8439 37.448C61.8448 37.4475 61.8659 37.4364 61.9044 37.4245C61.9417 37.4129 62.0145 37.3945 62.1133 37.3945V38.3945ZM63.3242 37.4375L64.0528 38.1224C64.7063 37.4273 65.3683 36.5925 66.0401 35.6251L65.2188 35.0547L64.3974 34.4843C63.7671 35.3919 63.1661 36.1456 62.5956 36.7526L63.3242 37.4375ZM65.2188 35.0547L66.0438 35.6198C66.7214 34.6305 67.263 33.6834 67.6583 32.7797L66.7422 32.3789L65.826 31.9781C65.4922 32.7411 65.0182 33.5779 64.3937 34.4896L65.2188 35.0547Z" fill="#9D4EDD" mask="url(#path-1-outside-1_169_8)"/>
<mask id="path-3-outside-2_169_8" maskUnits="userSpaceOnUse" x="82" y="13" width="43" height="31" fill="black">
<rect fill="white" x="82" y="13" width="43" height="31"/>
<path d="M105.6 36L107.32 40.68L108.16 41.4L113.16 41.96L113.08 40.92C112.76 36.6 112.587 33.88 112.56 32.76C113.68 34.52 114.667 35.6667 115.52 36.2C116 36.4933 116.573 36.7333 117.24 36.92C117.88 37.08 118.507 37.16 119.12 37.16C120.533 37.16 121.667 36.72 122.52 35.84C123.373 34.96 123.8 33.9467 123.8 32.8C123.8 31.36 123.307 29.7867 122.32 28.08C121.307 26.3467 120.08 24.88 118.64 23.68C117.2 22.48 115.88 21.88 114.68 21.88C112.547 21.88 110.907 22.6667 109.76 24.24C108.587 25.8133 108 28.0267 108 30.88C108.027 31.44 108.067 32.1867 108.12 33.12C108.173 34.0533 108.227 34.8667 108.28 35.56L105.84 35.32L105.6 36ZM115.8 31.6C114.653 31.6 113.653 31.32 112.8 30.76C113.12 29.7467 113.733 29.0267 114.64 28.6C115.547 28.1733 116.76 27.96 118.28 27.96C119.133 27.96 119.893 28.08 120.56 28.32C120.373 29.28 119.813 30.0667 118.88 30.68C117.947 31.2933 116.92 31.6 115.8 31.6ZM118.32 16.4L111.08 14.44L111.88 18.56L119 20.12L118.32 16.4ZM100.444 31.2C100.817 34.7467 101.684 37.9067 103.044 40.68C104.271 41.0533 105.977 41.36 108.164 41.6L105.844 35.52C104.511 35.36 103.431 35.16 102.604 34.92C102.231 33.4533 101.937 32.2 101.724 31.16L100.444 31.2ZM105.404 24.52L98.1641 22.56L98.9641 26.68L106.084 28.24L105.404 24.52ZM83.2262 30.28C83.2262 32.3333 83.6129 34.3067 84.3862 36.2C85.1329 38.0933 86.1996 39.64 87.5862 40.84C88.9729 42.0133 90.5329 42.6 92.2662 42.6C93.4662 42.6 94.8529 42.3067 96.4262 41.72C97.9996 41.1067 99.1596 40.44 99.9063 39.72C97.7996 39.1067 95.4529 38.3333 92.8662 37.4C90.2529 36.44 88.1062 35.5733 86.4262 34.8L86.6662 33.4H88.5462C89.5596 33.4 90.3729 33.2533 90.9862 32.96C91.5996 32.64 91.9062 32.2 91.9062 31.64C91.9062 30.9733 91.5462 30.08 90.8262 28.96C90.1062 27.84 89.2529 26.8533 88.2662 26C87.2796 25.12 86.4262 24.68 85.7062 24.68C84.9862 24.68 84.3996 25.2 83.9462 26.24C83.4662 27.28 83.2262 28.6267 83.2262 30.28Z"/>
</mask>
<path d="M105.6 36L104.661 36.345L104.537 36.0069L104.657 35.6672L105.6 36ZM107.32 40.68L106.669 41.4393L106.471 41.2696L106.381 41.025L107.32 40.68ZM108.16 41.4L108.049 42.3938L107.743 42.3595L107.509 42.1593L108.16 41.4ZM113.16 41.96L114.157 41.8833L114.25 43.0883L113.049 42.9538L113.16 41.96ZM113.08 40.92L112.083 40.9967L112.083 40.9939L113.08 40.92ZM112.56 32.76L111.56 32.7838L111.475 29.192L113.404 32.2231L112.56 32.76ZM115.52 36.2L114.999 37.0533L114.99 37.048L115.52 36.2ZM117.24 36.92L116.997 37.8901L116.984 37.8867L116.97 37.883L117.24 36.92ZM122.52 35.84L121.802 35.1439L121.802 35.1439L122.52 35.84ZM122.32 28.08L123.183 27.5753L123.186 27.5795L122.32 28.08ZM118.64 23.68L119.28 22.9118L119.28 22.9118L118.64 23.68ZM109.76 24.24L110.568 24.829L110.562 24.8378L109.76 24.24ZM108 30.88L107.001 30.9276L107 30.9038V30.88H108ZM108.12 33.12L109.118 33.0629L109.118 33.0629L108.12 33.12ZM108.28 35.56L109.277 35.4833L109.368 36.6719L108.182 36.5552L108.28 35.56ZM105.84 35.32L104.897 34.9872L105.158 34.2481L105.938 34.3248L105.84 35.32ZM112.8 30.76L112.251 31.596L111.618 31.1807L111.846 30.4589L112.8 30.76ZM114.64 28.6L115.066 29.5048L115.066 29.5048L114.64 28.6ZM120.56 28.32L120.899 27.3791L121.705 27.6695L121.542 28.5109L120.56 28.32ZM118.88 30.68L118.331 29.8443L118.331 29.8443L118.88 30.68ZM118.32 16.4L118.581 15.4347L119.19 15.5996L119.304 16.2202L118.32 16.4ZM111.08 14.44L110.098 14.6306L109.792 13.0554L111.341 13.4747L111.08 14.44ZM111.88 18.56L111.666 19.5368L111.024 19.3961L110.898 18.7506L111.88 18.56ZM119 20.12L119.984 19.9402L120.254 21.4185L118.786 21.0968L119 20.12ZM105.6 36L106.539 35.655L108.259 40.335L107.32 40.68L106.381 41.025L104.661 36.345L105.6 36ZM107.32 40.68L107.971 39.9207L108.811 40.6407L108.16 41.4L107.509 42.1593L106.669 41.4393L107.32 40.68ZM108.16 41.4L108.271 40.4062L113.271 40.9662L113.16 41.96L113.049 42.9538L108.049 42.3938L108.16 41.4ZM113.16 41.96L112.163 42.0367L112.083 40.9967L113.08 40.92L114.077 40.8433L114.157 41.8833L113.16 41.96ZM113.08 40.92L112.083 40.9939C111.763 36.6826 111.588 33.9344 111.56 32.7838L112.56 32.76L113.56 32.7362C113.586 33.8256 113.757 36.5174 114.077 40.8461L113.08 40.92ZM112.56 32.76L113.404 32.2231C114.512 33.9641 115.399 34.9449 116.05 35.352L115.52 36.2L114.99 37.048C113.935 36.3885 112.848 35.0759 111.716 33.2969L112.56 32.76ZM115.52 36.2L116.041 35.3467C116.427 35.5825 116.912 35.7897 117.51 35.957L117.24 36.92L116.97 37.883C116.235 37.677 115.573 37.4041 114.999 37.0533L115.52 36.2ZM117.24 36.92L117.483 35.9499C118.049 36.0915 118.594 36.16 119.12 36.16V37.16V38.16C118.419 38.16 117.711 38.0685 116.997 37.8901L117.24 36.92ZM119.12 37.16V36.16C120.308 36.16 121.166 35.7995 121.802 35.1439L122.52 35.84L123.238 36.5361C122.167 37.6405 120.759 38.16 119.12 38.16V37.16ZM122.52 35.84L121.802 35.1439C122.488 34.4362 122.8 33.6677 122.8 32.8H123.8H124.8C124.8 34.2257 124.258 35.4838 123.238 36.5361L122.52 35.84ZM123.8 32.8H122.8C122.8 31.5889 122.384 30.1888 121.454 28.5805L122.32 28.08L123.186 27.5795C124.229 29.3845 124.8 31.1311 124.8 32.8H123.8ZM122.32 28.08L121.457 28.5847C120.498 26.9443 119.345 25.5689 118 24.4482L118.64 23.68L119.28 22.9118C120.815 24.1911 122.116 25.749 123.183 27.5753L122.32 28.08ZM118.64 23.68L118 24.4482C116.644 23.3182 115.546 22.88 114.68 22.88V21.88V20.88C116.214 20.88 117.756 21.6418 119.28 22.9118L118.64 23.68ZM114.68 21.88V22.88C112.831 22.88 111.507 23.5414 110.568 24.829L109.76 24.24L108.952 23.651C110.307 21.792 112.263 20.88 114.68 20.88V21.88ZM109.76 24.24L110.562 24.8378C109.564 26.1758 109 28.1481 109 30.88H108H107C107 27.9052 107.61 25.4508 108.958 23.6422L109.76 24.24ZM108 30.88L108.999 30.8324C109.025 31.3879 109.065 32.131 109.118 33.0629L108.12 33.12L107.122 33.177C107.068 32.2423 107.028 31.4921 107.001 30.9276L108 30.88ZM108.12 33.12L109.118 33.0629C109.171 33.9918 109.224 34.7983 109.277 35.4833L108.28 35.56L107.283 35.6367C107.229 34.935 107.175 34.1149 107.122 33.177L108.12 33.12ZM108.28 35.56L108.182 36.5552L105.742 36.3152L105.84 35.32L105.938 34.3248L108.378 34.5648L108.28 35.56ZM105.84 35.32L106.783 35.6528L106.543 36.3328L105.6 36L104.657 35.6672L104.897 34.9872L105.84 35.32ZM115.8 31.6V32.6C114.483 32.6 113.287 32.2759 112.251 31.596L112.8 30.76L113.349 29.924C114.019 30.3641 114.823 30.6 115.8 30.6V31.6ZM112.8 30.76L111.846 30.4589C112.245 29.1976 113.038 28.2485 114.214 27.6952L114.64 28.6L115.066 29.5048C114.428 29.8048 113.995 30.2957 113.754 31.0611L112.8 30.76ZM114.64 28.6L114.214 27.6952C115.305 27.1819 116.682 26.96 118.28 26.96V27.96V28.96C116.838 28.96 115.788 29.1648 115.066 29.5048L114.64 28.6ZM118.28 27.96V26.96C119.226 26.96 120.104 27.0929 120.899 27.3791L120.56 28.32L120.221 29.2609C119.683 29.0671 119.041 28.96 118.28 28.96V27.96ZM120.56 28.32L121.542 28.5109C121.296 29.7736 120.553 30.7774 119.429 31.5157L118.88 30.68L118.331 29.8443C119.074 29.356 119.451 28.7864 119.578 28.1291L120.56 28.32ZM118.88 30.68L119.429 31.5157C118.332 32.2365 117.115 32.6 115.8 32.6V31.6V30.6C116.725 30.6 117.561 30.3501 118.331 29.8443L118.88 30.68ZM118.32 16.4L118.059 17.3653L110.819 15.4053L111.08 14.44L111.341 13.4747L118.581 15.4347L118.32 16.4ZM111.08 14.44L112.062 14.2494L112.862 18.3694L111.88 18.56L110.898 18.7506L110.098 14.6306L111.08 14.44ZM111.88 18.56L112.094 17.5832L119.214 19.1432L119 20.12L118.786 21.0968L111.666 19.5368L111.88 18.56ZM119 20.12L118.016 20.2998L117.336 16.5798L118.32 16.4L119.304 16.2202L119.984 19.9402L119 20.12ZM100.444 31.2L99.4496 31.3047L99.3369 30.2341L100.413 30.2005L100.444 31.2ZM103.044 40.68L102.753 41.6367L102.337 41.5102L102.146 41.1203L103.044 40.68ZM108.164 41.6L109.098 41.2435L109.682 42.7726L108.055 42.594L108.164 41.6ZM105.844 35.52L105.963 34.5271L106.563 34.5991L106.778 35.1635L105.844 35.52ZM102.604 34.92L102.325 35.8803L101.776 35.7209L101.635 35.1667L102.604 34.92ZM101.724 31.16L101.693 30.1605L102.534 30.1342L102.704 30.9591L101.724 31.16ZM105.404 24.52L105.665 23.5547L106.274 23.7196L106.388 24.3402L105.404 24.52ZM98.1641 22.56L97.1824 22.7506L96.8765 21.1754L98.4254 21.5947L98.1641 22.56ZM98.9641 26.68L98.75 27.6568L98.1077 27.5161L97.9824 26.8706L98.9641 26.68ZM106.084 28.24L107.068 28.0602L107.338 29.5385L105.87 29.2168L106.084 28.24ZM100.444 31.2L101.439 31.0953C101.801 34.5431 102.641 37.5866 103.942 40.2397L103.044 40.68L102.146 41.1203C100.727 38.2267 99.8333 34.9503 99.4496 31.3047L100.444 31.2ZM103.044 40.68L103.335 39.7233C104.475 40.0703 106.111 40.3687 108.273 40.606L108.164 41.6L108.055 42.594C105.844 42.3513 104.066 42.0364 102.753 41.6367L103.044 40.68ZM108.164 41.6L107.23 41.9565L104.91 35.8765L105.844 35.52L106.778 35.1635L109.098 41.2435L108.164 41.6ZM105.844 35.52L105.725 36.5129C104.364 36.3496 103.225 36.1415 102.325 35.8803L102.604 34.92L102.883 33.9597C103.637 34.1785 104.658 34.3704 105.963 34.5271L105.844 35.52ZM102.604 34.92L101.635 35.1667C101.259 33.6906 100.962 32.4212 100.744 31.3609L101.724 31.16L102.704 30.9591C102.913 31.9788 103.202 33.216 103.573 34.6733L102.604 34.92ZM101.724 31.16L101.755 32.1595L100.475 32.1995L100.444 31.2L100.413 30.2005L101.693 30.1605L101.724 31.16ZM105.404 24.52L105.143 25.4853L97.9028 23.5253L98.1641 22.56L98.4254 21.5947L105.665 23.5547L105.404 24.52ZM98.1641 22.56L99.1457 22.3694L99.9457 26.4894L98.9641 26.68L97.9824 26.8706L97.1824 22.7506L98.1641 22.56ZM98.9641 26.68L99.1781 25.7032L106.298 27.2632L106.084 28.24L105.87 29.2168L98.75 27.6568L98.9641 26.68ZM106.084 28.24L105.1 28.4198L104.42 24.6998L105.404 24.52L106.388 24.3402L107.068 28.0602L106.084 28.24ZM84.3862 36.2L85.3121 35.8218L85.3165 35.8331L84.3862 36.2ZM87.5862 40.84L86.9403 41.6034L86.9319 41.5962L87.5862 40.84ZM96.4262 41.72L96.7895 42.6517L96.7826 42.6544L96.7756 42.657L96.4262 41.72ZM99.9063 39.72L100.186 38.7599L101.842 39.2422L100.6 40.4398L99.9063 39.72ZM92.8662 37.4L92.5268 38.3407L92.5214 38.3387L92.8662 37.4ZM86.4262 34.8L86.0081 35.7084L85.311 35.3875L85.4406 34.631L86.4262 34.8ZM86.6662 33.4L85.6806 33.231L85.8231 32.4H86.6662V33.4ZM90.9862 32.96L91.4488 33.8466L91.4334 33.8546L91.4177 33.8621L90.9862 32.96ZM90.8262 28.96L89.9851 29.5008L89.9851 29.5008L90.8262 28.96ZM88.2662 26L87.6121 26.7564L87.6063 26.7514L87.6006 26.7463L88.2662 26ZM83.9462 26.24L84.8629 26.6396L84.8587 26.6494L84.8542 26.6591L83.9462 26.24ZM83.2262 30.28H84.2262C84.2262 32.2042 84.5879 34.0491 85.312 35.8219L84.3862 36.2L83.4605 36.5781C82.6379 34.5643 82.2262 32.4625 82.2262 30.28H83.2262ZM84.3862 36.2L85.3165 35.8331C86.0106 37.5931 86.9889 39.0006 88.2406 40.0838L87.5862 40.84L86.9319 41.5962C85.4102 40.2794 84.2552 38.5936 83.456 36.5669L84.3862 36.2ZM87.5862 40.84L88.2322 40.0766C89.4477 41.1051 90.7815 41.6 92.2662 41.6V42.6V43.6C90.2844 43.6 88.4981 42.9215 86.9403 41.6034L87.5862 40.84ZM92.2662 42.6V41.6C93.3097 41.6 94.574 41.3434 96.0769 40.783L96.4262 41.72L96.7756 42.657C95.1318 43.2699 93.6228 43.6 92.2662 43.6V42.6ZM96.4262 41.72L96.063 40.7883C97.581 40.1966 98.6019 39.5886 99.2121 39.0002L99.9063 39.72L100.6 40.4398C99.7173 41.2914 98.4182 42.0168 96.7895 42.6517L96.4262 41.72ZM99.9063 39.72L99.6267 40.6801C97.4956 40.0597 95.1286 39.2794 92.5268 38.3406L92.8662 37.4L93.2057 36.4594C95.7773 37.3873 98.1036 38.1536 100.186 38.7599L99.9063 39.72ZM92.8662 37.4L92.5214 38.3387C89.8943 37.3736 87.7209 36.4968 86.0081 35.7084L86.4262 34.8L86.8444 33.8916C88.4916 34.6499 90.6115 35.5064 93.2111 36.4613L92.8662 37.4ZM86.4262 34.8L85.4406 34.631L85.6806 33.231L86.6662 33.4L87.6519 33.569L87.4119 34.969L86.4262 34.8ZM86.6662 33.4V32.4H88.5462V33.4V34.4H86.6662V33.4ZM88.5462 33.4V32.4C89.4773 32.4 90.1258 32.263 90.5548 32.0579L90.9862 32.96L91.4177 33.8621C90.62 34.2436 89.6419 34.4 88.5462 34.4V33.4ZM90.9862 32.96L90.5237 32.0734C90.8994 31.8774 90.9062 31.7333 90.9062 31.64H91.9062H92.9062C92.9062 32.6667 92.2998 33.4026 91.4488 33.8466L90.9862 32.96ZM91.9062 31.64H90.9062C90.9062 31.2778 90.6866 30.592 89.9851 29.5008L90.8262 28.96L91.6674 28.4192C92.4059 29.568 92.9062 30.6689 92.9062 31.64H91.9062ZM90.8262 28.96L89.9851 29.5008C89.3157 28.4595 88.5249 27.5458 87.6121 26.7564L88.2662 26L88.9204 25.2436C89.9809 26.1608 90.8968 27.2205 91.6674 28.4192L90.8262 28.96ZM88.2662 26L87.6006 26.7463C86.6608 25.908 86.0448 25.68 85.7062 25.68V24.68V23.68C86.8077 23.68 87.8984 24.332 88.9319 25.2537L88.2662 26ZM85.7062 24.68V25.68C85.5892 25.68 85.2598 25.7291 84.8629 26.6396L83.9462 26.24L83.0296 25.8404C83.5393 24.6709 84.3833 23.68 85.7062 23.68V24.68ZM83.9462 26.24L84.8542 26.6591C84.4556 27.5228 84.2262 28.7121 84.2262 30.28H83.2262H82.2262C82.2262 28.5413 82.4769 27.0372 83.0383 25.8209L83.9462 26.24Z" fill="#FFB627" mask="url(#path-3-outside-2_169_8)"/>
</svg>
