<svg width="125" height="60" viewBox="0 0 125 60" fill="none" xmlns="http://www.w3.org/2000/svg">
<mask id="path-1-outside-1_265_2" maskUnits="userSpaceOnUse" x="-0.507812" y="11" width="78" height="35" fill="black">
<rect fill="white" x="-0.507812" y="11" width="78" height="35"/>
<path d="M3.20703 31.8711C3.20703 29.9831 3.24609 28.0169 3.32422 25.9727C3.38932 23.8242 3.49349 21.9297 3.63672 20.2891H3.59766L1.39062 19.8789C1.2474 19.2409 1.14323 18.7005 1.07812 18.2578C1.02604 17.8021 1 17.3333 1 16.8516C1 16.513 1.00651 16.2526 1.01953 16.0703C1.29297 15.7188 1.70964 15.3672 2.26953 15.0156C2.84245 14.651 3.50651 14.3451 4.26172 14.0977C5.01693 13.8503 5.79818 13.7266 6.60547 13.7266C8.25911 13.7266 9.48958 14.1497 10.2969 14.9961C11.1042 15.8424 11.4688 17.1055 11.3906 18.7852L11.332 20.4844C11.2799 23.3359 11.1628 25.6536 10.9805 27.4375H17.6211C17.6602 24.8464 17.7773 22.457 17.9727 20.2695H17.9336L15.1406 19.8594C14.9974 19.2214 14.8932 18.681 14.8281 18.2383C14.776 17.7826 14.75 17.3138 14.75 16.832C14.75 16.4935 14.7565 16.2331 14.7695 16.0508C15.043 15.7122 15.5117 15.3607 16.1758 14.9961C16.8398 14.6315 17.6016 14.3255 18.4609 14.0781C19.3333 13.8307 20.1927 13.707 21.0391 13.707C22.6927 13.707 23.9557 14.1367 24.8281 14.9961C25.7135 15.8424 26.1562 17.099 26.1562 18.7656C26.1562 23.4271 25.4336 29.957 23.9883 38.3555L26.8789 37.1055C27.8685 37.9648 28.4349 39.1237 28.5781 40.582C28.5781 40.6732 28.2721 41.0508 27.6602 41.7148C27.0612 42.3659 26.2734 42.9779 25.2969 43.5508C24.3333 44.1107 23.2331 44.3906 21.9961 44.3906C20.681 44.3906 19.5938 44.0391 18.7344 43.3359C17.888 42.6328 17.4714 41.4023 17.4844 39.6445V38.375C17.4844 36.2135 17.5299 34.4167 17.6211 32.9844C17.3216 33.0104 16.8659 33.0234 16.2539 33.0234C15.3555 33.0234 14.0339 32.9453 12.2891 32.7891C11.4557 32.7109 10.8633 32.6589 10.5117 32.6328C10.5508 33.9479 10.6484 35.2565 10.8047 36.5586C10.9609 37.8477 11.1628 39.306 11.4102 40.9336C11.5664 41.9622 11.6771 42.737 11.7422 43.2578C11.2083 43.5833 10.362 43.8503 9.20312 44.0586C8.04427 44.2669 7.0612 44.3711 6.25391 44.3711C5.85026 44.3711 5.46615 44.3385 5.10156 44.2734C4.75 44.2083 4.35938 44.1107 3.92969 43.9805C3.44792 40.9727 3.20703 36.9362 3.20703 31.8711ZM36.3711 31.1289C37.1393 31.1289 37.9857 31.207 38.9102 31.3633C39.8477 31.5195 40.707 31.7083 41.4883 31.9297V31.3242C41.4883 30.9206 41.4753 30.4714 41.4492 29.9766C41.4362 29.4818 41.4102 29.1562 41.3711 29C41.2539 28.7786 40.9154 28.5508 40.3555 28.3164C39.8086 28.082 38.9102 27.9648 37.6602 27.9648C36.8919 27.9648 36.0977 28.0625 35.2773 28.2578C34.4701 28.4401 33.5716 28.6875 32.582 29C32.0482 28.1146 31.6185 27.2747 31.293 26.4805C30.9805 25.6732 30.8242 24.8659 30.8242 24.0586C30.8242 23.8112 30.8438 23.5638 30.8828 23.3164C32.9922 21.6758 35.7201 20.8555 39.0664 20.8555C40.9154 20.8555 42.556 21.0638 43.9883 21.4805C45.4206 21.8971 46.599 22.7044 47.5234 23.9023C48.4479 25.1003 48.9102 26.7995 48.9102 29C48.9102 31.1484 48.6562 33.2318 48.1484 35.25C47.6536 37.2552 47.3997 38.2773 47.3867 38.3164L50.2188 37.1055C50.5964 37.5091 50.9284 38.0039 51.2148 38.5898C51.5143 39.1628 51.7031 39.8268 51.7812 40.582C51.599 40.9727 51.2018 41.474 50.5898 42.0859C49.9779 42.6849 49.2292 43.2188 48.3438 43.6875C47.4583 44.1562 46.5339 44.3906 45.5703 44.3906C44.4896 44.3906 43.6693 44.0716 43.1094 43.4336C42.5625 42.7956 42.2891 41.9688 42.2891 40.9531C42.2891 40.3802 42.3737 39.8008 42.543 39.2148L41.957 39.0391C41.5924 41.0964 40.8177 42.5026 39.6328 43.2578C38.4479 44.013 37.1393 44.3906 35.707 44.3906C34.7695 44.3906 33.8646 44.1302 32.9922 43.6094C32.1198 43.0755 31.4102 42.3073 30.8633 41.3047C30.3164 40.2891 30.043 39.1042 30.043 37.75C30.043 35.5885 30.5833 33.9479 31.6641 32.8281C32.7448 31.6953 34.3138 31.1289 36.3711 31.1289ZM38.5977 38.5703C38.9232 38.5052 39.3073 38.3229 39.75 38.0234C40.2057 37.724 40.6094 37.3659 40.9609 36.9492C41.3125 36.5326 41.5208 36.1354 41.5859 35.7578L41.4688 35.2891C40.7786 35.1979 40.043 35.1523 39.2617 35.1523C38.5977 35.1523 38.1419 35.2044 37.8945 35.3086C37.4779 35.7773 37.2695 36.2982 37.2695 36.8711C37.2695 37.2878 37.3737 37.6654 37.582 38.0039C37.8034 38.3424 38.1419 38.5312 38.5977 38.5703ZM52.8359 32.7305C52.8359 30.7513 53.1094 28.8568 53.6562 27.0469C54.2161 25.237 55.0885 23.7526 56.2734 22.5938C57.4714 21.4349 58.9753 20.8555 60.7852 20.8555C62.8164 20.8555 64.7565 21.5 66.6055 22.7891L66.918 22.5938C66.8789 21.0703 66.6901 19.6901 66.3516 18.4531L62.3867 18.1992C62.2044 17.9648 62.0612 17.6198 61.957 17.1641C61.8529 16.6953 61.8008 16.2135 61.8008 15.7188C61.8008 15.0547 61.8789 14.4818 62.0352 14C62.8164 13.4401 63.819 13.0169 65.043 12.7305C66.2669 12.444 67.4909 12.3008 68.7148 12.3008C70.069 12.3008 71.0911 12.5872 71.7812 13.1602C72.4714 13.7201 72.9336 14.5729 73.168 15.7188C73.4154 16.8516 73.5391 18.4271 73.5391 20.4453C73.5391 23.1016 73.4284 26.1159 73.207 29.4883C72.9857 32.8607 72.6992 35.6146 72.3477 37.75L72.2695 38.082L74.5352 37.1055C74.9128 37.5091 75.2448 38.0039 75.5312 38.5898C75.8307 39.1628 76.0195 39.8268 76.0977 40.582C75.9154 40.9727 75.5182 41.474 74.9062 42.0859C74.2943 42.6849 73.5456 43.2188 72.6602 43.6875C71.7747 44.1562 70.8503 44.3906 69.8867 44.3906C68.806 44.3906 67.9727 44.0716 67.3867 43.4336C66.8138 42.7826 66.5273 41.9557 66.5273 40.9531C66.5273 40.6927 66.5924 40.1589 66.7227 39.3516C66.8659 38.5443 66.9831 37.9844 67.0742 37.6719L66.4883 37.4961C65.8242 39.8268 64.9453 41.5586 63.8516 42.6914C62.7578 43.8242 61.4036 44.3906 59.7891 44.3906C58.0573 44.3906 56.6706 43.8177 55.6289 42.6719C54.6003 41.513 53.8776 40.0612 53.4609 38.3164C53.0443 36.5716 52.8359 34.7096 52.8359 32.7305ZM66.2344 32.3789C66.3125 31.9102 66.3516 31.3633 66.3516 30.7383C66.3516 30.3346 66.332 29.9505 66.293 29.5859C66.2669 29.2214 66.2344 28.9609 66.1953 28.8047C65.6745 28.4271 65.082 28.1602 64.418 28.0039C63.7669 27.8477 63.168 27.7695 62.6211 27.7695C62.2826 27.7695 61.918 27.8021 61.5273 27.8672C61.2669 28.1276 61.0586 28.694 60.9023 29.5664C60.7461 30.4258 60.668 31.3958 60.668 32.4766C60.668 33.6354 60.7461 34.7617 60.9023 35.8555C61.0716 36.9362 61.306 37.7826 61.6055 38.3945C61.8138 38.3945 62.2174 38.0755 62.8164 37.4375C63.4284 36.7865 64.0599 35.9922 64.7109 35.0547C65.362 34.1042 65.8698 33.2122 66.2344 32.3789Z"/>
</mask>
<path d="M3.32422 25.9727L4.32352 26.0108L4.32376 26.0029L3.32422 25.9727ZM3.63672 20.2891L4.63293 20.376L4.72782 19.2891H3.63672V20.2891ZM3.59766 20.2891L3.41494 21.2722L3.50552 21.2891H3.59766V20.2891ZM1.39062 19.8789L0.414909 20.0979L0.559392 20.7416L1.20791 20.8621L1.39062 19.8789ZM1.07812 18.2578L0.0845923 18.3714L0.0864217 18.3874L0.0887659 18.4033L1.07812 18.2578ZM1.01953 16.0703L0.230179 15.4564L0.0437118 15.6961L0.0220726 15.9991L1.01953 16.0703ZM2.26953 15.0156L2.80131 15.8625L2.80641 15.8593L2.26953 15.0156ZM10.2969 14.9961L9.57327 15.6863L10.2969 14.9961ZM11.3906 18.7852L10.3916 18.7387L10.3912 18.7507L11.3906 18.7852ZM11.332 20.4844L10.3326 20.4499L10.3323 20.458L10.3322 20.4661L11.332 20.4844ZM10.9805 27.4375L9.98565 27.3358L9.87307 28.4375H10.9805V27.4375ZM17.6211 27.4375V28.4375H18.6061L18.621 27.4526L17.6211 27.4375ZM17.9727 20.2695L18.9687 20.3585L19.0659 19.2695H17.9727V20.2695ZM17.9336 20.2695L17.7883 21.2589L17.8606 21.2695H17.9336V20.2695ZM15.1406 19.8594L14.1649 20.0784L14.3154 20.7489L14.9953 20.8488L15.1406 19.8594ZM14.8281 18.2383L13.8346 18.3518L13.8364 18.3678L13.8388 18.3838L14.8281 18.2383ZM14.7695 16.0508L13.9916 15.4224L13.7944 15.6665L13.7721 15.9795L14.7695 16.0508ZM18.4609 14.0781L18.1881 13.1161L18.1843 13.1172L18.4609 14.0781ZM24.8281 14.9961L24.1264 15.7085L24.1317 15.7138L24.1371 15.719L24.8281 14.9961ZM23.9883 38.3555L23.0028 38.1859L22.6894 40.0066L24.3852 39.2733L23.9883 38.3555ZM26.8789 37.1055L27.5346 36.3504L27.0595 35.9379L26.482 36.1876L26.8789 37.1055ZM28.5781 40.582H29.5781V40.533L29.5733 40.4843L28.5781 40.582ZM27.6602 41.7148L26.9248 41.0372L26.9242 41.0378L27.6602 41.7148ZM25.2969 43.5508L25.7993 44.4154L25.8029 44.4133L25.2969 43.5508ZM18.7344 43.3359L18.0953 44.1051L18.1011 44.1099L18.7344 43.3359ZM17.4844 39.6445L18.4844 39.6519V39.6445H17.4844ZM17.6211 32.9844L18.6191 33.0479L18.6929 31.8874L17.5345 31.9881L17.6211 32.9844ZM12.2891 32.7891L12.1957 33.7847L12.1999 33.7851L12.2891 32.7891ZM10.5117 32.6328L10.5856 31.6355L9.47922 31.5536L9.51216 32.6625L10.5117 32.6328ZM10.8047 36.5586L9.81181 36.6777L9.81195 36.6789L10.8047 36.5586ZM11.4102 40.9336L12.3988 40.7834L12.3988 40.7833L11.4102 40.9336ZM11.7422 43.2578L12.2628 44.1116L12.8146 43.7751L12.7345 43.1338L11.7422 43.2578ZM5.10156 44.2734L4.91947 45.2567L4.92577 45.2579L5.10156 44.2734ZM3.92969 43.9805L2.94227 44.1386L3.04118 44.7561L3.63968 44.9375L3.92969 43.9805ZM3.20703 31.8711H4.20703C4.20703 29.9968 4.24581 28.0434 4.32349 26.0108L3.32422 25.9727L2.32495 25.9345C2.24638 27.9904 2.20703 29.9693 2.20703 31.8711H3.20703ZM3.32422 25.9727L4.32376 26.0029C4.38845 23.8681 4.49175 21.9931 4.63293 20.376L3.63672 20.2891L2.64051 20.2021C2.49522 21.8662 2.39019 23.7804 2.32468 25.9424L3.32422 25.9727ZM3.63672 20.2891V19.2891H3.59766V20.2891V21.2891H3.63672V20.2891ZM3.59766 20.2891L3.78037 19.3059L1.57334 18.8957L1.39062 19.8789L1.20791 20.8621L3.41494 21.2722L3.59766 20.2891ZM1.39062 19.8789L2.36634 19.6599C2.22633 19.0362 2.12773 18.522 2.06748 18.1123L1.07812 18.2578L0.0887659 18.4033C0.158733 18.8791 0.268459 19.4456 0.414909 20.0979L1.39062 19.8789ZM1.07812 18.2578L2.07166 18.1443C2.02409 17.7281 2 17.2973 2 16.8516H1H0C0 17.3694 0.0279916 17.8761 0.0845923 18.3714L1.07812 18.2578ZM1 16.8516H2C2 16.5204 2.00652 16.2881 2.01699 16.1416L1.01953 16.0703L0.0220726 15.9991C0.00649625 16.2171 0 16.5056 0 16.8516H1ZM1.01953 16.0703L1.80888 16.6843C1.98493 16.4579 2.29696 16.1792 2.8013 15.8625L2.26953 15.0156L1.73776 14.1687C1.12231 14.5552 0.60101 14.9796 0.230179 15.4564L1.01953 16.0703ZM2.26953 15.0156L2.80641 15.8593C3.29814 15.5464 3.88408 15.2737 4.57303 15.048L4.26172 14.0977L3.95041 13.1473C3.12895 13.4164 2.38676 13.7557 1.73266 14.172L2.26953 15.0156ZM4.26172 14.0977L4.57303 15.048C5.22614 14.834 5.90222 14.7266 6.60547 14.7266V13.7266V12.7266C5.69413 12.7266 4.80771 12.8665 3.95041 13.1473L4.26172 14.0977ZM6.60547 13.7266V14.7266C8.10096 14.7266 9.02169 15.108 9.57327 15.6863L10.2969 14.9961L11.0205 14.3059C9.95748 13.1914 8.41727 12.7266 6.60547 12.7266V13.7266ZM10.2969 14.9961L9.57327 15.6863C10.1223 16.2619 10.4628 17.211 10.3917 18.7387L11.3906 18.7852L12.3895 18.8316C12.4747 16.9999 12.0861 15.423 11.0205 14.3059L10.2969 14.9961ZM11.3906 18.7852L10.3912 18.7507L10.3326 20.4499L11.332 20.4844L12.3314 20.5188L12.39 18.8196L11.3906 18.7852ZM11.332 20.4844L10.3322 20.4661C10.2804 23.304 10.164 25.5909 9.98565 27.3358L10.9805 27.4375L11.9753 27.5392C12.1616 25.7164 12.2795 23.3679 12.3319 20.5026L11.332 20.4844ZM10.9805 27.4375V28.4375H17.6211V27.4375V26.4375H10.9805V27.4375ZM17.6211 27.4375L18.621 27.4526C18.6597 24.8818 18.7759 22.5175 18.9687 20.3585L17.9727 20.2695L16.9766 20.1806C16.7788 22.3966 16.6606 24.8109 16.6212 27.4224L17.6211 27.4375ZM17.9727 20.2695V19.2695H17.9336V20.2695V21.2695H17.9727V20.2695ZM17.9336 20.2695L18.0789 19.2801L15.2859 18.87L15.1406 19.8594L14.9953 20.8488L17.7883 21.2589L17.9336 20.2695ZM15.1406 19.8594L16.1163 19.6403C15.9763 19.0167 15.8777 18.5024 15.8175 18.0928L14.8281 18.2383L13.8388 18.3838C13.9087 18.8596 14.0185 19.426 14.1649 20.0784L15.1406 19.8594ZM14.8281 18.2383L15.8217 18.1247C15.7741 17.7085 15.75 17.2778 15.75 16.832H14.75H13.75C13.75 17.3499 13.778 17.8566 13.8346 18.3518L14.8281 18.2383ZM14.75 16.832H15.75C15.75 16.5009 15.7565 16.2685 15.767 16.122L14.7695 16.0508L13.7721 15.9795C13.7565 16.1976 13.75 16.4861 13.75 16.832H14.75ZM14.7695 16.0508L15.5475 16.6791C15.6998 16.4905 16.0351 16.2141 16.657 15.8727L16.1758 14.9961L15.6945 14.1195C14.9883 14.5072 14.3861 14.934 13.9916 15.4224L14.7695 16.0508ZM16.1758 14.9961L16.657 15.8727C17.2458 15.5494 17.937 15.2696 18.7376 15.0391L18.4609 14.0781L18.1843 13.1172C17.2662 13.3815 16.4338 13.7136 15.6945 14.1195L16.1758 14.9961ZM18.4609 14.0781L18.7338 15.0402C19.5237 14.8162 20.2913 14.707 21.0391 14.707V13.707V12.707C20.0941 12.707 19.143 12.8453 18.1881 13.1161L18.4609 14.0781ZM21.0391 13.707V14.707C22.5245 14.707 23.499 15.0905 24.1264 15.7085L24.8281 14.9961L25.5299 14.2837C24.4125 13.183 22.8609 12.707 21.0391 12.707V13.707ZM24.8281 14.9961L24.1371 15.719C24.7621 16.3163 25.1562 17.2703 25.1562 18.7656H26.1562H27.1562C27.1562 16.9276 26.665 15.3686 25.5191 14.2732L24.8281 14.9961ZM26.1562 18.7656H25.1562C25.1562 23.3417 24.4449 29.8056 23.0028 38.1859L23.9883 38.3555L24.9738 38.5251C26.4222 30.1084 27.1562 23.5125 27.1562 18.7656H26.1562ZM23.9883 38.3555L24.3852 39.2733L27.2758 38.0233L26.8789 37.1055L26.482 36.1876L23.5914 37.4376L23.9883 38.3555ZM26.8789 37.1055L26.2232 37.8605C26.9964 38.5319 27.4615 39.4433 27.5829 40.6798L28.5781 40.582L29.5733 40.4843C29.4083 38.8041 28.7406 37.3977 27.5346 36.3504L26.8789 37.1055ZM28.5781 40.582H27.5781C27.5781 40.4566 27.6028 40.3612 27.6171 40.314C27.6327 40.2619 27.6495 40.2239 27.6588 40.2043C27.6766 40.1664 27.6894 40.1482 27.6834 40.1575C27.6726 40.174 27.6398 40.2199 27.5717 40.304C27.4389 40.4679 27.2264 40.7099 26.9248 41.0372L27.6602 41.7148L28.3955 42.3925C28.7059 42.0557 28.9524 41.7769 29.1256 41.5632C29.2104 41.4585 29.2924 41.3514 29.3581 41.2507C29.3903 41.2014 29.4319 41.1336 29.4688 41.055C29.4916 41.0064 29.5781 40.8238 29.5781 40.582H28.5781ZM27.6602 41.7148L26.9242 41.0378C26.408 41.5989 25.7046 42.1522 24.7909 42.6883L25.2969 43.5508L25.8029 44.4133C26.8422 43.8036 27.7144 43.1329 28.3961 42.3919L27.6602 41.7148ZM25.2969 43.5508L24.7945 42.6862C23.9998 43.1479 23.0765 43.3906 21.9961 43.3906V44.3906V45.3906C23.3897 45.3906 24.6668 45.0735 25.7993 44.4154L25.2969 43.5508ZM21.9961 44.3906V43.3906C20.8674 43.3906 20.0167 43.0931 19.3676 42.562L18.7344 43.3359L18.1011 44.1099C19.1708 44.9851 20.4946 45.3906 21.9961 45.3906V44.3906ZM18.7344 43.3359L19.3734 42.5667C18.8666 42.1457 18.4722 41.2881 18.4843 39.6519L17.4844 39.6445L16.4844 39.6371C16.4705 41.5166 16.9094 43.1199 18.0954 44.1051L18.7344 43.3359ZM17.4844 39.6445H18.4844V38.375H17.4844H16.4844V39.6445H17.4844ZM17.4844 38.375H18.4844C18.4844 36.2253 18.5298 34.4514 18.6191 33.0479L17.6211 32.9844L16.6231 32.9209C16.5301 34.382 16.4844 36.2018 16.4844 38.375H17.4844ZM17.6211 32.9844L17.5345 31.9881C17.2801 32.0103 16.8601 32.0234 16.2539 32.0234V33.0234V34.0234C16.8717 34.0234 17.3631 34.0106 17.7077 33.9806L17.6211 32.9844ZM16.2539 33.0234V32.0234C15.4014 32.0234 14.1156 31.9486 12.3783 31.793L12.2891 32.7891L12.1999 33.7851C13.9521 33.942 15.3096 34.0234 16.2539 34.0234V33.0234ZM12.2891 32.7891L12.3824 31.7934C11.5489 31.7153 10.9479 31.6624 10.5856 31.6355L10.5117 32.6328L10.4378 33.6301C10.7787 33.6553 11.3625 33.7066 12.1957 33.7847L12.2891 32.7891ZM10.5117 32.6328L9.51216 32.6625C9.55211 34.0074 9.65198 35.3459 9.81181 36.6777L10.8047 36.5586L11.7976 36.4394C11.6449 35.1672 11.5495 33.8884 11.5113 32.6031L10.5117 32.6328ZM10.8047 36.5586L9.81195 36.6789C9.96969 37.9802 10.173 39.4488 10.4215 41.0839L11.4102 40.9336L12.3988 40.7833C12.1525 39.1632 11.9522 37.7151 11.7974 36.4383L10.8047 36.5586ZM11.4102 40.9336L10.4215 41.0838C10.5774 42.1104 10.6865 42.8745 10.7499 43.3818L11.7422 43.2578L12.7345 43.1338C12.6677 42.5994 12.5554 41.8141 12.3988 40.7834L11.4102 40.9336ZM11.7422 43.2578L11.2216 42.404C10.8493 42.631 10.1514 42.8721 9.02619 43.0744L9.20312 44.0586L9.38006 45.0428C10.5725 44.8284 11.5673 44.5357 12.2628 44.1116L11.7422 43.2578ZM9.20312 44.0586L9.02619 43.0744C7.90178 43.2765 6.98168 43.3711 6.25391 43.3711V44.3711V45.3711C7.14071 45.3711 8.18676 45.2573 9.38006 45.0428L9.20312 44.0586ZM6.25391 44.3711V43.3711C5.90399 43.3711 5.579 43.3429 5.27735 43.289L5.10156 44.2734L4.92577 45.2579C5.35329 45.3342 5.79653 45.3711 6.25391 45.3711V44.3711ZM5.10156 44.2734L5.28365 43.2902C4.97633 43.2332 4.62244 43.1455 4.21969 43.0234L3.92969 43.9805L3.63968 44.9375C4.09631 45.0759 4.52367 45.1834 4.91947 45.2567L5.10156 44.2734ZM3.92969 43.9805L4.9171 43.8223C4.44738 40.8897 4.20703 36.913 4.20703 31.8711H3.20703H2.20703C2.20703 36.9594 2.44846 41.0556 2.94227 44.1386L3.92969 43.9805ZM38.9102 31.3633L38.7435 32.3493L38.7458 32.3497L38.9102 31.3633ZM41.4883 31.9297L41.2157 32.8918L42.4883 33.2524V31.9297H41.4883ZM41.4492 29.9766L40.4496 30.0029L40.4499 30.016L40.4506 30.0291L41.4492 29.9766ZM41.3711 29L42.3412 28.7575L42.3118 28.6395L42.2549 28.5321L41.3711 29ZM40.3555 28.3164L39.9615 29.2356L39.9693 29.2388L40.3555 28.3164ZM35.2773 28.2578L35.4976 29.2333L35.509 29.2306L35.2773 28.2578ZM32.582 29L31.7257 29.5163L32.1323 30.1907L32.8832 29.9536L32.582 29ZM31.293 26.4805L30.3604 26.8415L30.3639 26.8506L30.3677 26.8597L31.293 26.4805ZM30.8828 23.3164L30.2689 22.5271L29.9567 22.7698L29.8951 23.1604L30.8828 23.3164ZM47.5234 23.9023L48.3151 23.2914L47.5234 23.9023ZM48.1484 35.25L47.1787 35.006L47.1776 35.0104L48.1484 35.25ZM47.3867 38.3164L46.438 38.0002L45.7346 40.1104L47.7799 39.2359L47.3867 38.3164ZM50.2188 37.1055L50.949 36.4223L50.4701 35.9104L49.8256 36.186L50.2188 37.1055ZM51.2148 38.5898L50.3165 39.0291L50.3224 39.0412L50.3286 39.0531L51.2148 38.5898ZM51.7812 40.582L52.6874 41.0049L52.8044 40.7543L52.7759 40.4791L51.7812 40.582ZM50.5898 42.0859L51.2893 42.8006L51.297 42.793L50.5898 42.0859ZM48.3438 43.6875L48.8116 44.5713L48.3438 43.6875ZM43.1094 43.4336L42.3501 44.0844L42.3577 44.0932L43.1094 43.4336ZM42.543 39.2148L43.5037 39.4924L43.7784 38.5414L42.8303 38.257L42.543 39.2148ZM41.957 39.0391L42.2444 38.0812L41.1684 37.7584L40.9724 38.8646L41.957 39.0391ZM32.9922 43.6094L32.4702 44.4624L32.4796 44.468L32.9922 43.6094ZM30.8633 41.3047L29.9828 41.7788L29.9854 41.7835L30.8633 41.3047ZM31.6641 32.8281L32.3836 33.5226L32.3876 33.5184L31.6641 32.8281ZM38.5977 38.5703L38.5123 39.5667L38.6541 39.5788L38.7938 39.5509L38.5977 38.5703ZM39.75 38.0234L39.2008 37.1877L39.1897 37.1952L39.75 38.0234ZM41.5859 35.7578L42.5714 35.9277L42.6072 35.7199L42.5561 35.5153L41.5859 35.7578ZM41.4688 35.2891L42.4389 35.0465L42.2739 34.3867L41.5997 34.2977L41.4688 35.2891ZM37.8945 35.3086L37.5065 34.387L37.2977 34.4749L37.1471 34.6442L37.8945 35.3086ZM37.582 38.0039L36.7304 38.528L36.7376 38.5397L36.7451 38.5512L37.582 38.0039ZM36.3711 31.1289V32.1289C37.0729 32.1289 37.8626 32.2004 38.7435 32.3493L38.9102 31.3633L39.0768 30.3773C38.1088 30.2137 37.2058 30.1289 36.3711 30.1289V31.1289ZM38.9102 31.3633L38.7458 32.3497C39.6527 32.5008 40.4754 32.6821 41.2157 32.8918L41.4883 31.9297L41.7609 30.9676C40.9387 30.7346 40.0426 30.5382 39.0746 30.3769L38.9102 31.3633ZM41.4883 31.9297H42.4883V31.3242H41.4883H40.4883V31.9297H41.4883ZM41.4883 31.3242H42.4883C42.4883 30.8996 42.4746 30.4325 42.4478 29.924L41.4492 29.9766L40.4506 30.0291C40.4759 30.5102 40.4883 30.9415 40.4883 31.3242H41.4883ZM41.4492 29.9766L42.4489 29.9503C42.4364 29.4763 42.4115 29.0386 42.3412 28.7575L41.3711 29L40.401 29.2425C40.3996 29.237 40.411 29.2894 40.4231 29.4411C40.4342 29.5795 40.4433 29.7652 40.4496 30.0029L41.4492 29.9766ZM41.3711 29L42.2549 28.5321C42.0853 28.2118 41.817 27.9879 41.5877 27.8335C41.3449 27.6701 41.0557 27.5255 40.7416 27.394L40.3555 28.3164L39.9693 29.2388C40.2151 29.3417 40.3752 29.4282 40.4709 29.4927C40.5174 29.524 40.537 29.5422 40.5397 29.5449C40.5431 29.5483 40.5169 29.5238 40.4873 29.4679L41.3711 29ZM40.3555 28.3164L40.7494 27.3973C40.0032 27.0775 38.9291 26.9648 37.6602 26.9648V27.9648V28.9648C38.8912 28.9648 39.614 29.0866 39.9615 29.2355L40.3555 28.3164ZM37.6602 27.9648V26.9648C36.8068 26.9648 35.9346 27.0734 35.0457 27.285L35.2773 28.2578L35.509 29.2306C36.2607 29.0516 36.9771 28.9648 37.6602 28.9648V27.9648ZM35.2773 28.2578L35.0571 27.2824C34.2167 27.4721 33.2908 27.7275 32.2809 28.0464L32.582 29L32.8832 29.9536C33.8525 29.6475 34.7234 29.4081 35.4976 29.2333L35.2773 28.2578ZM32.582 29L33.4384 28.4837C32.9259 27.6336 32.5209 26.8397 32.2183 26.1012L31.293 26.4805L30.3677 26.8597C30.7161 27.7098 31.1705 28.5956 31.7257 29.5163L32.582 29ZM31.293 26.4805L32.2255 26.1195C31.9544 25.4189 31.8242 24.7337 31.8242 24.0586H30.8242H29.8242C29.8242 24.998 30.0066 25.9274 30.3604 26.8415L31.293 26.4805ZM30.8242 24.0586H31.8242C31.8242 23.8641 31.8396 23.6688 31.8706 23.4724L30.8828 23.3164L29.8951 23.1604C29.8479 23.4588 29.8242 23.7583 29.8242 24.0586H30.8242ZM30.8828 23.3164L31.4968 24.1058C33.3903 22.633 35.8853 21.8555 39.0664 21.8555V20.8555V19.8555C35.5548 19.8555 32.5941 20.7185 30.2689 22.5271L30.8828 23.3164ZM39.0664 20.8555V21.8555C40.8425 21.8555 42.3861 22.0558 43.709 22.4407L43.9883 21.4805L44.2676 20.5203C42.7259 20.0718 40.9883 19.8555 39.0664 19.8555V20.8555ZM43.9883 21.4805L43.709 22.4407C44.9346 22.7972 45.9348 23.4805 46.7318 24.5133L47.5234 23.9023L48.3151 23.2914C47.2632 21.9283 45.9065 20.997 44.2676 20.5203L43.9883 21.4805ZM47.5234 23.9023L46.7318 24.5133C47.472 25.4724 47.9102 26.9236 47.9102 29H48.9102H49.9102C49.9102 26.6753 49.4239 24.7281 48.3151 23.2914L47.5234 23.9023ZM48.9102 29H47.9102C47.9102 31.0688 47.6658 33.0701 47.1787 35.006L48.1484 35.25L49.1182 35.494C49.6467 33.3934 49.9102 31.228 49.9102 29H48.9102ZM48.1484 35.25L47.1776 35.0104C46.9302 36.0129 46.7432 36.7691 46.6164 37.2794C46.553 37.5347 46.5049 37.7277 46.4719 37.8588C46.4295 38.0271 46.4256 38.0376 46.438 38.0002L47.3867 38.3164L48.3354 38.6326C48.3544 38.5757 48.387 38.4438 48.4114 38.3467C48.4452 38.2126 48.4939 38.0174 48.5574 37.7616C48.6846 37.2497 48.8719 36.4923 49.1193 35.4896L48.1484 35.25ZM47.3867 38.3164L47.7799 39.2359L50.6119 38.0249L50.2188 37.1055L49.8256 36.186L46.9936 37.3969L47.3867 38.3164ZM50.2188 37.1055L49.4885 37.7886C49.7873 38.1081 50.066 38.5167 50.3165 39.0291L51.2148 38.5898L52.1132 38.1506C51.7908 37.4911 51.4054 36.9101 50.949 36.4223L50.2188 37.1055ZM51.2148 38.5898L50.3286 39.0531C50.5602 39.4961 50.7192 40.034 50.7866 40.6849L51.7812 40.582L52.7759 40.4791C52.687 39.6196 52.4685 38.8294 52.1011 38.1266L51.2148 38.5898ZM51.7812 40.582L50.8751 40.1591C50.7702 40.384 50.4782 40.7834 49.8827 41.3788L50.5898 42.0859L51.297 42.793C51.9255 42.1645 52.4278 41.5614 52.6874 41.0049L51.7812 40.582ZM50.5898 42.0859L49.8904 41.3713C49.3576 41.8927 48.6904 42.3725 47.8759 42.8037L48.3438 43.6875L48.8116 44.5713C49.7679 44.065 50.5982 43.477 51.2893 42.8006L50.5898 42.0859ZM48.3438 43.6875L47.8759 42.8037C47.1287 43.1993 46.3642 43.3906 45.5703 43.3906V44.3906V45.3906C46.7035 45.3906 47.788 45.1132 48.8116 44.5713L48.3438 43.6875ZM45.5703 44.3906V43.3906C44.6931 43.3906 44.1817 43.1395 43.861 42.774L43.1094 43.4336L42.3577 44.0932C43.1568 45.0038 44.286 45.3906 45.5703 45.3906V44.3906ZM43.1094 43.4336L43.8686 42.7828C43.5079 42.3619 43.2891 41.782 43.2891 40.9531H42.2891H41.2891C41.2891 42.1555 41.6171 43.2292 42.3501 44.0844L43.1094 43.4336ZM42.2891 40.9531H43.2891C43.2891 40.48 43.3588 39.9939 43.5037 39.4924L42.543 39.2148L41.5823 38.9373C41.3886 39.6076 41.2891 40.2804 41.2891 40.9531H42.2891ZM42.543 39.2148L42.8303 38.257L42.2444 38.0812L41.957 39.0391L41.6697 39.9969L42.2556 40.1727L42.543 39.2148ZM41.957 39.0391L40.9724 38.8646C40.6327 40.7811 39.9491 41.8704 39.0953 42.4145L39.6328 43.2578L40.1703 44.1011C41.6863 43.1349 42.5522 41.4116 42.9417 39.2136L41.957 39.0391ZM39.6328 43.2578L39.0953 42.4145C38.0743 43.0653 36.9528 43.3906 35.707 43.3906V44.3906V45.3906C37.3259 45.3906 38.8216 44.9607 40.1703 44.1011L39.6328 43.2578ZM35.707 44.3906V43.3906C34.9651 43.3906 34.2356 43.1871 33.5048 42.7508L32.9922 43.6094L32.4796 44.468C33.4935 45.0733 34.574 45.3906 35.707 45.3906V44.3906ZM32.9922 43.6094L33.5142 42.7564C32.808 42.3243 32.2142 41.6931 31.7412 40.8258L30.8633 41.3047L29.9854 41.7835C30.6061 42.9215 31.4316 43.8268 32.4702 44.4623L32.9922 43.6094ZM30.8633 41.3047L31.7438 40.8306C31.288 39.9841 31.043 38.9675 31.043 37.75H30.043H29.043C29.043 39.2408 29.3449 40.594 29.9828 41.7788L30.8633 41.3047ZM30.043 37.75H31.043C31.043 35.7456 31.543 34.3936 32.3836 33.5226L31.6641 32.8281L30.9445 32.1337C29.6237 33.5022 29.043 35.4315 29.043 37.75H30.043ZM31.6641 32.8281L32.3876 33.5184C33.2255 32.6401 34.4974 32.1289 36.3711 32.1289V31.1289V30.1289C34.1302 30.1289 32.2641 30.7505 30.9405 32.1378L31.6641 32.8281ZM38.5977 38.5703L38.7938 39.5509C39.305 39.4487 39.8167 39.1857 40.3103 38.8517L39.75 38.0234L39.1897 37.1952C38.7979 37.4602 38.5414 37.5618 38.4015 37.5897L38.5977 38.5703ZM39.75 38.0234L40.2992 38.8591C40.8354 38.5068 41.3115 38.0844 41.7252 37.5941L40.9609 36.9492L40.1966 36.3043C39.9072 36.6474 39.576 36.9412 39.2008 37.1877L39.75 38.0234ZM40.9609 36.9492L41.7252 37.5941C42.1456 37.0959 42.466 36.5393 42.5714 35.9277L41.5859 35.7578L40.6005 35.5879C40.5757 35.7315 40.4794 35.9692 40.1966 36.3043L40.9609 36.9492ZM41.5859 35.7578L42.5561 35.5153L42.4389 35.0465L41.4688 35.2891L40.4986 35.5316L40.6158 36.0003L41.5859 35.7578ZM41.4688 35.2891L41.5997 34.2977C40.8613 34.2001 40.0815 34.1523 39.2617 34.1523V35.1523V36.1523C40.0044 36.1523 40.696 36.1957 41.3378 36.2805L41.4688 35.2891ZM39.2617 35.1523V34.1523C38.6051 34.1523 37.9611 34.1956 37.5065 34.387L37.8945 35.3086L38.2826 36.2302C38.2782 36.2321 38.3453 36.2067 38.5354 36.1849C38.713 36.1646 38.9524 36.1523 39.2617 36.1523V35.1523ZM37.8945 35.3086L37.1471 34.6442C36.5844 35.2773 36.2695 36.0293 36.2695 36.8711H37.2695H38.2695C38.2695 36.5671 38.3713 36.2774 38.6419 35.973L37.8945 35.3086ZM37.2695 36.8711H36.2695C36.2695 37.4635 36.4203 38.0241 36.7304 38.528L37.582 38.0039L38.4337 37.4798C38.3271 37.3066 38.2695 37.112 38.2695 36.8711H37.2695ZM37.582 38.0039L36.7451 38.5512C37.1581 39.1829 37.7958 39.5052 38.5123 39.5667L38.5977 38.5703L38.6831 37.574C38.4881 37.5573 38.4487 37.502 38.419 37.4567L37.582 38.0039ZM53.6562 27.0469L52.7009 26.7513L52.699 26.7576L53.6562 27.0469ZM56.2734 22.5938L55.5781 21.875L55.5742 21.8788L56.2734 22.5938ZM66.6055 22.7891L66.0336 23.6094L66.5754 23.9871L67.1355 23.6371L66.6055 22.7891ZM66.918 22.5938L67.448 23.4417L67.9323 23.1391L67.9176 22.5681L66.918 22.5938ZM66.3516 18.4531L67.3161 18.1891L67.1277 17.5008L66.4155 17.4552L66.3516 18.4531ZM62.3867 18.1992L61.5974 18.8132L61.8737 19.1684L62.3228 19.1972L62.3867 18.1992ZM61.957 17.1641L60.9808 17.381L60.9822 17.3869L61.957 17.1641ZM62.0352 14L61.4526 13.1872L61.1854 13.3787L61.0839 13.6915L62.0352 14ZM71.7812 13.1602L71.1425 13.9296L71.1512 13.9367L71.7812 13.1602ZM73.168 15.7188L72.1882 15.9192L72.191 15.9321L73.168 15.7188ZM72.3477 37.75L73.3211 37.979L73.3289 37.946L73.3344 37.9124L72.3477 37.75ZM72.2695 38.082L71.2961 37.853L70.8411 39.7867L72.6654 39.0004L72.2695 38.082ZM74.5352 37.1055L75.2654 36.4223L74.7851 35.9088L74.1393 36.1871L74.5352 37.1055ZM75.5312 38.5898L74.6329 39.0291L74.6388 39.0412L74.645 39.0531L75.5312 38.5898ZM76.0977 40.582L77.0038 41.0049L77.1208 40.7543L77.0923 40.4791L76.0977 40.582ZM74.9062 42.0859L75.6058 42.8006L75.6134 42.793L74.9062 42.0859ZM67.3867 43.4336L66.636 44.0942L66.643 44.1022L66.6502 44.11L67.3867 43.4336ZM66.7227 39.3516L65.738 39.1769L65.7367 39.1846L65.7354 39.1923L66.7227 39.3516ZM67.0742 37.6719L68.0342 37.9519L68.3121 36.9992L67.3616 36.714L67.0742 37.6719ZM66.4883 37.4961L66.7756 36.5383L65.8044 36.2469L65.5266 37.2221L66.4883 37.4961ZM55.6289 42.6719L54.881 43.3358L54.889 43.3445L55.6289 42.6719ZM66.2344 32.3789L67.1505 32.7797L67.2003 32.6659L67.2208 32.5433L66.2344 32.3789ZM66.293 29.5859L65.2955 29.6572L65.2968 29.6749L65.2987 29.6925L66.293 29.5859ZM66.1953 28.8047L67.1655 28.5622L67.0771 28.2088L66.7823 27.9951L66.1953 28.8047ZM64.418 28.0039L64.1846 28.9763L64.1889 28.9773L64.418 28.0039ZM61.5273 27.8672L61.3629 26.8808L61.0468 26.9335L60.8202 27.1601L61.5273 27.8672ZM60.9023 29.5664L61.8862 29.7453L61.8867 29.7427L60.9023 29.5664ZM60.9023 35.8555L59.9123 35.9969L59.9144 36.0102L60.9023 35.8555ZM61.6055 38.3945L60.7073 38.8341L60.9815 39.3945H61.6055V38.3945ZM62.8164 37.4375L62.0878 36.7526L62.0873 36.7531L62.8164 37.4375ZM64.7109 35.0547L65.5323 35.6251L65.536 35.6198L64.7109 35.0547ZM52.8359 32.7305H53.8359C53.8359 30.8447 54.0963 29.0479 54.6135 27.3361L53.6562 27.0469L52.699 26.7576C52.1225 28.6656 51.8359 30.6579 51.8359 32.7305H52.8359ZM53.6562 27.0469L54.6116 27.3424C55.1294 25.6685 55.9228 24.3355 56.9726 23.3087L56.2734 22.5938L55.5742 21.8788C54.2543 23.1697 53.3029 24.8055 52.7009 26.7513L53.6562 27.0469ZM56.2734 22.5938L56.9687 23.3125C57.9633 22.3504 59.2103 21.8555 60.7852 21.8555V20.8555V19.8555C58.7402 19.8555 56.9794 20.5194 55.5781 21.875L56.2734 22.5938ZM60.7852 20.8555V21.8555C62.5897 21.8555 64.3332 22.4239 66.0336 23.6094L66.6055 22.7891L67.1774 21.9687C65.1798 20.5761 63.0432 19.8555 60.7852 19.8555V20.8555ZM66.6055 22.7891L67.1355 23.6371L67.448 23.4417L66.918 22.5938L66.388 21.7458L66.0755 21.9411L66.6055 22.7891ZM66.918 22.5938L67.9176 22.5681C67.8769 20.9787 67.6795 19.5168 67.3161 18.1891L66.3516 18.4531L65.387 18.7171C65.7008 19.8634 65.8809 21.1619 65.9183 22.6194L66.918 22.5938ZM66.3516 18.4531L66.4155 17.4552L62.4506 17.2013L62.3867 18.1992L62.3228 19.1972L66.2877 19.4511L66.3516 18.4531ZM62.3867 18.1992L63.1761 17.5853C63.1202 17.5135 63.0202 17.3277 62.9319 16.9412L61.957 17.1641L60.9822 17.3869C61.1022 17.9119 61.2886 18.4162 61.5974 18.8132L62.3867 18.1992ZM61.957 17.1641L62.9332 16.9471C62.8454 16.5517 62.8008 16.1428 62.8008 15.7188H61.8008H60.8008C60.8008 16.2843 60.8604 16.8389 60.9808 17.381L61.957 17.1641ZM61.8008 15.7188H62.8008C62.8008 15.1288 62.8707 14.6651 62.9864 14.3085L62.0352 14L61.0839 13.6915C60.8871 14.2984 60.8008 14.9806 60.8008 15.7188H61.8008ZM62.0352 14L62.6177 14.8128C63.2651 14.3488 64.1371 13.9695 65.2709 13.7042L65.043 12.7305L64.8151 11.7568C63.5009 12.0644 62.3677 12.5314 61.4526 13.1872L62.0352 14ZM65.043 12.7305L65.2709 13.7042C66.4221 13.4347 67.5697 13.3008 68.7148 13.3008V12.3008V11.3008C67.4121 11.3008 66.1117 11.4533 64.8151 11.7568L65.043 12.7305ZM68.7148 12.3008V13.3008C69.9499 13.3008 70.7036 13.5652 71.1425 13.9296L71.7812 13.1602L72.42 12.3907C71.4787 11.6093 70.1881 11.3008 68.7148 11.3008V12.3008ZM71.7812 13.1602L71.1512 13.9367C71.6116 14.3102 71.9855 14.9277 72.1883 15.9191L73.168 15.7188L74.1477 15.5184C73.8817 14.2181 73.3311 13.1299 72.4113 12.3836L71.7812 13.1602ZM73.168 15.7188L72.191 15.9321C72.4159 16.9618 72.5391 18.4544 72.5391 20.4453H73.5391H74.5391C74.5391 18.3997 74.4149 16.7413 74.1449 15.5054L73.168 15.7188ZM73.5391 20.4453H72.5391C72.5391 23.0748 72.4295 26.0666 72.2092 29.4228L73.207 29.4883L74.2049 29.5538C74.4273 26.1651 74.5391 23.1283 74.5391 20.4453H73.5391ZM73.207 29.4883L72.2092 29.4228C71.9889 32.7785 71.7051 35.4968 71.3609 37.5876L72.3477 37.75L73.3344 37.9124C73.6933 35.7324 73.9824 32.9428 74.2049 29.5538L73.207 29.4883ZM72.3477 37.75L71.3742 37.521L71.2961 37.853L72.2695 38.082L73.243 38.3111L73.3211 37.979L72.3477 37.75ZM72.2695 38.082L72.6654 39.0004L74.931 38.0238L74.5352 37.1055L74.1393 36.1871L71.8737 37.1637L72.2695 38.082ZM74.5352 37.1055L73.8049 37.7886C74.1037 38.1081 74.3824 38.5167 74.6329 39.0291L75.5312 38.5898L76.4296 38.1506C76.1072 37.4911 75.7218 36.9101 75.2654 36.4223L74.5352 37.1055ZM75.5312 38.5898L74.645 39.0531C74.8766 39.4961 75.0356 40.034 75.103 40.6849L76.0977 40.582L77.0923 40.4791C77.0034 39.6196 76.7849 38.8294 76.4175 38.1266L75.5312 38.5898ZM76.0977 40.582L75.1915 40.1591C75.0866 40.384 74.7946 40.7834 74.1991 41.3788L74.9062 42.0859L75.6134 42.793C76.2419 42.1645 76.7442 41.5614 77.0038 41.0049L76.0977 40.582ZM74.9062 42.0859L74.2068 41.3713C73.674 41.8927 73.0068 42.3725 72.1923 42.8037L72.6602 43.6875L73.128 44.5713C74.0843 44.065 74.9146 43.477 75.6057 42.8006L74.9062 42.0859ZM72.6602 43.6875L72.1923 42.8037C71.4451 43.1993 70.6806 43.3906 69.8867 43.3906V44.3906V45.3906C71.02 45.3906 72.1044 45.1132 73.128 44.5713L72.6602 43.6875ZM69.8867 44.3906V43.3906C69.0117 43.3906 68.4748 43.14 68.1232 42.7572L67.3867 43.4336L66.6502 44.11C67.4705 45.0032 68.6003 45.3906 69.8867 45.3906V44.3906ZM67.3867 43.4336L68.1374 42.773C67.75 42.3327 67.5273 41.7529 67.5273 40.9531H66.5273H65.5273C65.5273 42.1586 65.8776 43.2324 66.636 44.0942L67.3867 43.4336ZM66.5273 40.9531H67.5273C67.5273 40.7871 67.5771 40.3342 67.7099 39.5108L66.7227 39.3516L65.7354 39.1923C65.6078 39.9835 65.5273 40.5983 65.5273 40.9531H66.5273ZM66.7227 39.3516L67.7073 39.5263C67.8508 38.7171 67.96 38.2063 68.0342 37.9519L67.0742 37.6719L66.1142 37.3919C66.0061 37.7625 65.8809 38.3714 65.738 39.1769L66.7227 39.3516ZM67.0742 37.6719L67.3616 36.714L66.7756 36.5383L66.4883 37.4961L66.2009 38.4539L66.7869 38.6297L67.0742 37.6719ZM66.4883 37.4961L65.5266 37.2221C64.8854 39.4724 64.0666 41.029 63.1322 41.9968L63.8516 42.6914L64.571 43.386C65.8241 42.0881 66.763 40.1813 67.45 37.7701L66.4883 37.4961ZM63.8516 42.6914L63.1322 41.9968C62.2322 42.9289 61.1401 43.3906 59.7891 43.3906V44.3906V45.3906C61.6672 45.3906 63.2835 44.7195 64.571 43.386L63.8516 42.6914ZM59.7891 44.3906V43.3906C58.302 43.3906 57.1974 42.9107 56.3688 41.9992L55.6289 42.6719L54.889 43.3445C56.1437 44.7248 57.8126 45.3906 59.7891 45.3906V44.3906ZM55.6289 42.6719L56.3768 42.008C55.4736 40.9905 54.8181 39.6942 54.4336 38.0841L53.4609 38.3164L52.4883 38.5487C52.9371 40.4282 53.727 42.0356 54.881 43.3357L55.6289 42.6719ZM53.4609 38.3164L54.4336 38.0841C54.0368 36.4228 53.8359 34.6394 53.8359 32.7305H52.8359H51.8359C51.8359 34.7799 52.0517 36.7204 52.4883 38.5487L53.4609 38.3164ZM66.2344 32.3789L67.2208 32.5433C67.3103 32.0064 67.3516 31.4023 67.3516 30.7383H66.3516H65.3516C65.3516 31.3243 65.3147 31.8139 65.248 32.2145L66.2344 32.3789ZM66.3516 30.7383H67.3516C67.3516 30.3026 67.3305 29.8827 67.2873 29.4794L66.293 29.5859L65.2987 29.6925C65.3336 30.0183 65.3516 30.3667 65.3516 30.7383H66.3516ZM66.293 29.5859L67.2904 29.5147C67.2641 29.1462 67.2274 28.8099 67.1655 28.5622L66.1953 28.8047L65.2252 29.0472C65.2413 29.1119 65.2697 29.2965 65.2955 29.6572L66.293 29.5859ZM66.1953 28.8047L66.7823 27.9951C66.1478 27.5351 65.4321 27.2152 64.647 27.0305L64.418 28.0039L64.1889 28.9773C64.7319 29.1051 65.2012 29.3191 65.6083 29.6143L66.1953 28.8047ZM64.418 28.0039L64.6513 27.0315C63.9402 26.8609 63.2618 26.7695 62.6211 26.7695V27.7695V28.7695C63.0742 28.7695 63.5936 28.8345 64.1846 28.9763L64.418 28.0039ZM62.6211 27.7695V26.7695C62.2191 26.7695 61.799 26.8081 61.3629 26.8808L61.5273 27.8672L61.6917 28.8536C62.0369 28.7961 62.346 28.7695 62.6211 28.7695V27.7695ZM61.5273 27.8672L60.8202 27.1601C60.5425 27.4378 60.3634 27.7993 60.2373 28.1421C60.1059 28.4991 60.0021 28.9204 59.918 29.3901L60.9023 29.5664L61.8867 29.7427C61.9588 29.34 62.0373 29.0419 62.1143 28.8325C62.1965 28.6089 62.2518 28.5569 62.2345 28.5743L61.5273 27.8672ZM60.9023 29.5664L59.9185 29.3875C59.7493 30.3178 59.668 31.3493 59.668 32.4766H60.668H61.668C61.668 31.4423 61.7429 30.5337 61.8862 29.7453L60.9023 29.5664ZM60.668 32.4766H59.668C59.668 33.6804 59.7491 34.8541 59.9124 35.9969L60.9023 35.8555L61.8923 35.714C61.743 34.6694 61.668 33.5904 61.668 32.4766H60.668ZM60.9023 35.8555L59.9144 36.0102C60.091 37.1377 60.3454 38.0947 60.7073 38.8341L61.6055 38.3945L62.5037 37.955C62.2666 37.4705 62.0522 36.7347 61.8903 35.7007L60.9023 35.8555ZM61.6055 38.3945V39.3945C61.8912 39.3945 62.124 39.2927 62.2606 39.2215C62.4127 39.1422 62.5558 39.0416 62.6845 38.9398C62.9427 38.7358 63.2321 38.4558 63.5455 38.1219L62.8164 37.4375L62.0873 36.7531C61.8018 37.0573 61.5899 37.2557 61.4444 37.3707C61.4099 37.398 61.383 37.4175 61.3632 37.4308C61.3429 37.4445 61.3342 37.4489 61.3361 37.448C61.337 37.4475 61.3581 37.4364 61.3965 37.4245C61.4338 37.4129 61.5067 37.3945 61.6055 37.3945V38.3945ZM62.8164 37.4375L63.545 38.1224C64.1984 37.4273 64.8605 36.5925 65.5323 35.6251L64.7109 35.0547L63.8896 34.4843C63.2593 35.3919 62.6583 36.1456 62.0878 36.7526L62.8164 37.4375ZM64.7109 35.0547L65.536 35.6198C66.2136 34.6305 66.7552 33.6834 67.1505 32.7797L66.2344 32.3789L65.3182 31.9781C64.9844 32.7411 64.5104 33.5779 63.8859 34.4896L64.7109 35.0547Z" fill="#9D4EDD" mask="url(#path-1-outside-1_265_2)"/>
<mask id="path-3-outside-2_265_2" maskUnits="userSpaceOnUse" x="81.4922" y="13" width="43" height="31" fill="black">
<rect fill="white" x="81.4922" y="13" width="43" height="31"/>
<path d="M105.092 36L106.812 40.68L107.652 41.4L112.652 41.96L112.572 40.92C112.252 36.6 112.079 33.88 112.052 32.76C113.172 34.52 114.159 35.6667 115.012 36.2C115.492 36.4933 116.066 36.7333 116.732 36.92C117.372 37.08 117.999 37.16 118.612 37.16C120.026 37.16 121.159 36.72 122.012 35.84C122.866 34.96 123.292 33.9467 123.292 32.8C123.292 31.36 122.799 29.7867 121.812 28.08C120.799 26.3467 119.572 24.88 118.132 23.68C116.692 22.48 115.372 21.88 114.172 21.88C112.039 21.88 110.399 22.6667 109.252 24.24C108.079 25.8133 107.492 28.0267 107.492 30.88C107.519 31.44 107.559 32.1867 107.612 33.12C107.666 34.0533 107.719 34.8667 107.772 35.56L105.332 35.32L105.092 36ZM115.292 31.6C114.146 31.6 113.146 31.32 112.292 30.76C112.612 29.7467 113.226 29.0267 114.132 28.6C115.039 28.1733 116.252 27.96 117.772 27.96C118.626 27.96 119.386 28.08 120.052 28.32C119.866 29.28 119.306 30.0667 118.372 30.68C117.439 31.2933 116.412 31.6 115.292 31.6ZM117.812 16.4L110.572 14.44L111.372 18.56L118.492 20.12L117.812 16.4ZM99.9362 31.2C100.31 34.7467 101.176 37.9067 102.536 40.68C103.763 41.0533 105.47 41.36 107.656 41.6L105.336 35.52C104.003 35.36 102.923 35.16 102.096 34.92C101.723 33.4533 101.43 32.2 101.216 31.16L99.9362 31.2ZM104.896 24.52L97.6562 22.56L98.4562 26.68L105.576 28.24L104.896 24.52ZM82.7184 30.28C82.7184 32.3333 83.1051 34.3067 83.8784 36.2C84.6251 38.0933 85.6918 39.64 87.0784 40.84C88.4651 42.0133 90.0251 42.6 91.7584 42.6C92.9584 42.6 94.3451 42.3067 95.9184 41.72C97.4918 41.1067 98.6518 40.44 99.3984 39.72C97.2918 39.1067 94.9451 38.3333 92.3584 37.4C89.7451 36.44 87.5984 35.5733 85.9184 34.8L86.1584 33.4H88.0384C89.0518 33.4 89.8651 33.2533 90.4784 32.96C91.0918 32.64 91.3984 32.2 91.3984 31.64C91.3984 30.9733 91.0384 30.08 90.3184 28.96C89.5984 27.84 88.7451 26.8533 87.7584 26C86.7718 25.12 85.9184 24.68 85.1984 24.68C84.4784 24.68 83.8918 25.2 83.4384 26.24C82.9584 27.28 82.7184 28.6267 82.7184 30.28Z"/>
</mask>
<path d="M105.092 36L104.154 36.345L104.029 36.0069L104.149 35.6672L105.092 36ZM106.812 40.68L106.161 41.4393L105.963 41.2696L105.874 41.025L106.812 40.68ZM107.652 41.4L107.541 42.3938L107.235 42.3595L107.001 42.1593L107.652 41.4ZM112.652 41.96L113.649 41.8833L113.742 43.0883L112.541 42.9538L112.652 41.96ZM112.572 40.92L111.575 40.9967L111.575 40.9939L112.572 40.92ZM112.052 32.76L111.052 32.7838L110.967 29.192L112.896 32.2231L112.052 32.76ZM115.012 36.2L114.491 37.0533L114.482 37.048L115.012 36.2ZM116.732 36.92L116.49 37.8901L116.476 37.8867L116.463 37.883L116.732 36.92ZM122.012 35.84L121.294 35.1439H121.294L122.012 35.84ZM121.812 28.08L122.675 27.5753L122.678 27.5795L121.812 28.08ZM118.132 23.68L118.772 22.9118H118.772L118.132 23.68ZM109.252 24.24L110.06 24.829L110.054 24.8378L109.252 24.24ZM107.492 30.88L106.493 30.9276L106.492 30.9038V30.88H107.492ZM107.612 33.12L108.611 33.063V33.063L107.612 33.12ZM107.772 35.56L108.769 35.4833L108.861 36.6719L107.674 36.5552L107.772 35.56ZM105.332 35.32L104.389 34.9872L104.65 34.2481L105.43 34.3248L105.332 35.32ZM112.292 30.76L111.744 31.596L111.111 31.1807L111.339 30.4589L112.292 30.76ZM114.132 28.6L114.558 29.5048V29.5048L114.132 28.6ZM120.052 28.32L120.391 27.3791L121.197 27.6695L121.034 28.5109L120.052 28.32ZM118.372 30.68L117.823 29.8443V29.8443L118.372 30.68ZM117.812 16.4L118.073 15.4347L118.682 15.5996L118.796 16.2202L117.812 16.4ZM110.572 14.44L109.591 14.6306L109.285 13.0554L110.833 13.4747L110.572 14.44ZM111.372 18.56L111.158 19.5368L110.516 19.3961L110.391 18.7506L111.372 18.56ZM118.492 20.12L119.476 19.9402L119.746 21.4185L118.278 21.0968L118.492 20.12ZM105.092 36L106.031 35.655L107.751 40.335L106.812 40.68L105.874 41.025L104.154 36.345L105.092 36ZM106.812 40.68L107.463 39.9207L108.303 40.6407L107.652 41.4L107.001 42.1593L106.161 41.4393L106.812 40.68ZM107.652 41.4L107.763 40.4062L112.763 40.9662L112.652 41.96L112.541 42.9538L107.541 42.3938L107.652 41.4ZM112.652 41.96L111.655 42.0367L111.575 40.9967L112.572 40.92L113.569 40.8433L113.649 41.8833L112.652 41.96ZM112.572 40.92L111.575 40.9939C111.256 36.6826 111.08 33.9344 111.052 32.7838L112.052 32.76L113.052 32.7362C113.078 33.8256 113.249 36.5174 113.569 40.8461L112.572 40.92ZM112.052 32.76L112.896 32.2231C114.004 33.9641 114.891 34.9449 115.542 35.352L115.012 36.2L114.482 37.048C113.427 36.3885 112.341 35.0759 111.209 33.2969L112.052 32.76ZM115.012 36.2L115.534 35.3467C115.92 35.5825 116.404 35.7897 117.002 35.957L116.732 36.92L116.463 37.883C115.727 37.677 115.065 37.4041 114.491 37.0533L115.012 36.2ZM116.732 36.92L116.975 35.9499C117.541 36.0915 118.087 36.16 118.612 36.16V37.16V38.16C117.911 38.16 117.203 38.0685 116.49 37.8901L116.732 36.92ZM118.612 37.16V36.16C119.8 36.16 120.659 35.7995 121.294 35.1439L122.012 35.84L122.73 36.5361C121.659 37.6405 120.251 38.16 118.612 38.16V37.16ZM122.012 35.84L121.294 35.1439C121.98 34.4362 122.292 33.6677 122.292 32.8H123.292H124.292C124.292 34.2257 123.751 35.4838 122.73 36.5361L122.012 35.84ZM123.292 32.8H122.292C122.292 31.5889 121.876 30.1888 120.946 28.5805L121.812 28.08L122.678 27.5795C123.721 29.3845 124.292 31.1311 124.292 32.8H123.292ZM121.812 28.08L120.949 28.5847C119.99 26.9443 118.837 25.5689 117.492 24.4482L118.132 23.68L118.772 22.9118C120.308 24.1911 121.608 25.749 122.675 27.5753L121.812 28.08ZM118.132 23.68L117.492 24.4482C116.136 23.3182 115.038 22.88 114.172 22.88V21.88V20.88C115.706 20.88 117.248 21.6418 118.772 22.9118L118.132 23.68ZM114.172 21.88V22.88C112.323 22.88 110.999 23.5414 110.06 24.829L109.252 24.24L108.444 23.651C109.799 21.792 111.755 20.88 114.172 20.88V21.88ZM109.252 24.24L110.054 24.8378C109.056 26.1758 108.492 28.1481 108.492 30.88H107.492H106.492C106.492 27.9052 107.102 25.4508 108.451 23.6422L109.252 24.24ZM107.492 30.88L108.491 30.8324C108.518 31.3879 108.557 32.131 108.611 33.063L107.612 33.12L106.614 33.177C106.56 32.2423 106.52 31.4921 106.493 30.9276L107.492 30.88ZM107.612 33.12L108.611 33.063C108.664 33.9918 108.717 34.7983 108.769 35.4833L107.772 35.56L106.775 35.6367C106.721 34.935 106.667 34.1149 106.614 33.177L107.612 33.12ZM107.772 35.56L107.674 36.5552L105.234 36.3152L105.332 35.32L105.43 34.3248L107.87 34.5648L107.772 35.56ZM105.332 35.32L106.275 35.6528L106.035 36.3328L105.092 36L104.149 35.6672L104.389 34.9872L105.332 35.32ZM115.292 31.6V32.6C113.975 32.6 112.779 32.2759 111.744 31.596L112.292 30.76L112.841 29.924C113.512 30.3641 114.316 30.6 115.292 30.6V31.6ZM112.292 30.76L111.339 30.4589C111.737 29.1976 112.531 28.2485 113.706 27.6952L114.132 28.6L114.558 29.5048C113.92 29.8048 113.487 30.2957 113.246 31.0611L112.292 30.76ZM114.132 28.6L113.706 27.6952C114.797 27.1819 116.174 26.96 117.772 26.96V27.96V28.96C116.33 28.96 115.281 29.1648 114.558 29.5048L114.132 28.6ZM117.772 27.96V26.96C118.718 26.96 119.596 27.0929 120.391 27.3791L120.052 28.32L119.713 29.2609C119.175 29.0671 118.533 28.96 117.772 28.96V27.96ZM120.052 28.32L121.034 28.5109C120.788 29.7736 120.045 30.7774 118.921 31.5157L118.372 30.68L117.823 29.8443C118.566 29.356 118.943 28.7864 119.071 28.1291L120.052 28.32ZM118.372 30.68L118.921 31.5157C117.824 32.2365 116.607 32.6 115.292 32.6V31.6V30.6C116.218 30.6 117.053 30.3501 117.823 29.8443L118.372 30.68ZM117.812 16.4L117.551 17.3653L110.311 15.4053L110.572 14.44L110.833 13.4747L118.073 15.4347L117.812 16.4ZM110.572 14.44L111.554 14.2494L112.354 18.3694L111.372 18.56L110.391 18.7506L109.591 14.6306L110.572 14.44ZM111.372 18.56L111.586 17.5832L118.706 19.1432L118.492 20.12L118.278 21.0968L111.158 19.5368L111.372 18.56ZM118.492 20.12L117.508 20.2998L116.828 16.5798L117.812 16.4L118.796 16.2202L119.476 19.9402L118.492 20.12ZM99.9362 31.2L98.9417 31.3047L98.8291 30.2341L99.905 30.2005L99.9362 31.2ZM102.536 40.68L102.245 41.6367L101.83 41.5102L101.638 41.1203L102.536 40.68ZM107.656 41.6L108.591 41.2435L109.174 42.7726L107.547 42.594L107.656 41.6ZM105.336 35.52L105.455 34.5271L106.055 34.5991L106.271 35.1635L105.336 35.52ZM102.096 34.92L101.817 35.8803L101.268 35.7209L101.127 35.1667L102.096 34.92ZM101.216 31.16L101.185 30.1605L102.027 30.1342L102.196 30.9591L101.216 31.16ZM104.896 24.52L105.158 23.5547L105.767 23.7196L105.88 24.3402L104.896 24.52ZM97.6562 22.56L96.6746 22.7506L96.3687 21.1754L97.9176 21.5947L97.6562 22.56ZM98.4562 26.68L98.2422 27.6568L97.5999 27.5161L97.4746 26.8706L98.4562 26.68ZM105.576 28.24L106.56 28.0602L106.83 29.5385L105.362 29.2168L105.576 28.24ZM99.9362 31.2L100.931 31.0953C101.294 34.5431 102.133 37.5866 103.434 40.2397L102.536 40.68L101.638 41.1203C100.219 38.2267 99.3255 34.9503 98.9417 31.3047L99.9362 31.2ZM102.536 40.68L102.827 39.7233C103.967 40.0703 105.603 40.3687 107.765 40.606L107.656 41.6L107.547 42.594C105.336 42.3513 103.558 42.0364 102.245 41.6367L102.536 40.68ZM107.656 41.6L106.722 41.9565L104.402 35.8765L105.336 35.52L106.271 35.1635L108.591 41.2435L107.656 41.6ZM105.336 35.52L105.217 36.5129C103.856 36.3496 102.717 36.1415 101.817 35.8803L102.096 34.92L102.375 33.9597C103.129 34.1785 104.15 34.3704 105.455 34.5271L105.336 35.52ZM102.096 34.92L101.127 35.1667C100.751 33.6906 100.454 32.4212 100.237 31.3609L101.216 31.16L102.196 30.9591C102.405 31.9788 102.694 33.216 103.065 34.6733L102.096 34.92ZM101.216 31.16L101.247 32.1595L99.9675 32.1995L99.9362 31.2L99.905 30.2005L101.185 30.1605L101.216 31.16ZM104.896 24.52L104.635 25.4853L97.3949 23.5253L97.6562 22.56L97.9176 21.5947L105.158 23.5547L104.896 24.52ZM97.6562 22.56L98.6379 22.3694L99.4379 26.4894L98.4562 26.68L97.4746 26.8706L96.6746 22.7506L97.6562 22.56ZM98.4562 26.68L98.6703 25.7032L105.79 27.2632L105.576 28.24L105.362 29.2168L98.2422 27.6568L98.4562 26.68ZM105.576 28.24L104.593 28.4198L103.913 24.6998L104.896 24.52L105.88 24.3402L106.56 28.0602L105.576 28.24ZM83.8784 36.2L84.8043 35.8218L84.8087 35.8331L83.8784 36.2ZM87.0784 40.84L86.4325 41.6034L86.4241 41.5962L87.0784 40.84ZM95.9184 41.72L96.2816 42.6517L96.2748 42.6544L96.2678 42.657L95.9184 41.72ZM99.3984 39.72L99.678 38.7599L101.335 39.2422L100.093 40.4398L99.3984 39.72ZM92.3584 37.4L92.019 38.3407L92.0136 38.3387L92.3584 37.4ZM85.9184 34.8L85.5003 35.7084L84.8031 35.3875L84.9328 34.631L85.9184 34.8ZM86.1584 33.4L85.1728 33.231L85.3153 32.4H86.1584V33.4ZM90.4784 32.96L90.941 33.8466L90.9256 33.8546L90.9099 33.8621L90.4784 32.96ZM90.3184 28.96L89.4773 29.5008V29.5008L90.3184 28.96ZM87.7584 26L87.1043 26.7564L87.0985 26.7514L87.0928 26.7463L87.7584 26ZM83.4384 26.24L84.3551 26.6396L84.3509 26.6494L84.3464 26.6591L83.4384 26.24ZM82.7184 30.28H83.7184C83.7184 32.2042 84.0801 34.0491 84.8042 35.8219L83.8784 36.2L82.9527 36.5781C82.1301 34.5643 81.7184 32.4625 81.7184 30.28H82.7184ZM83.8784 36.2L84.8087 35.8331C85.5028 37.5931 86.4811 39.0006 87.7328 40.0838L87.0784 40.84L86.4241 41.5962C84.9024 40.2794 83.7474 38.5936 82.9482 36.5669L83.8784 36.2ZM87.0784 40.84L87.7244 40.0766C88.9399 41.1051 90.2737 41.6 91.7584 41.6V42.6V43.6C89.7765 43.6 87.9903 42.9215 86.4325 41.6034L87.0784 40.84ZM91.7584 42.6V41.6C92.8019 41.6 94.0662 41.3434 95.5691 40.783L95.9184 41.72L96.2678 42.657C94.624 43.2699 93.115 43.6 91.7584 43.6V42.6ZM95.9184 41.72L95.5552 40.7883C97.0732 40.1966 98.0941 39.5886 98.7043 39.0002L99.3984 39.72L100.093 40.4398C99.2095 41.2914 97.9104 42.0168 96.2816 42.6517L95.9184 41.72ZM99.3984 39.72L99.1189 40.6801C96.9878 40.0597 94.6208 39.2794 92.019 38.3406L92.3584 37.4L92.6978 36.4594C95.2695 37.3873 97.5957 38.1536 99.678 38.7599L99.3984 39.72ZM92.3584 37.4L92.0136 38.3387C89.3865 37.3736 87.2131 36.4968 85.5003 35.7084L85.9184 34.8L86.3366 33.8916C87.9838 34.6499 90.1037 35.5064 92.7033 36.4613L92.3584 37.4ZM85.9184 34.8L84.9328 34.631L85.1728 33.231L86.1584 33.4L87.1441 33.569L86.9041 34.969L85.9184 34.8ZM86.1584 33.4V32.4H88.0384V33.4V34.4H86.1584V33.4ZM88.0384 33.4V32.4C88.9695 32.4 89.618 32.263 90.047 32.0579L90.4784 32.96L90.9099 33.8621C90.1122 34.2436 89.1341 34.4 88.0384 34.4V33.4ZM90.4784 32.96L90.0159 32.0734C90.3916 31.8774 90.3984 31.7333 90.3984 31.64H91.3984H92.3984C92.3984 32.6667 91.792 33.4026 90.941 33.8466L90.4784 32.96ZM91.3984 31.64H90.3984C90.3984 31.2778 90.1788 30.592 89.4773 29.5008L90.3184 28.96L91.1596 28.4192C91.8981 29.568 92.3984 30.6689 92.3984 31.64H91.3984ZM90.3184 28.96L89.4773 29.5008C88.8079 28.4595 88.0171 27.5458 87.1043 26.7564L87.7584 26L88.4126 25.2436C89.4731 26.1608 90.389 27.2205 91.1596 28.4192L90.3184 28.96ZM87.7584 26L87.0928 26.7463C86.153 25.908 85.537 25.68 85.1984 25.68V24.68V23.68C86.2999 23.68 87.3906 24.332 88.4241 25.2537L87.7584 26ZM85.1984 24.68V25.68C85.0814 25.68 84.752 25.7291 84.3551 26.6396L83.4384 26.24L82.5217 25.8404C83.0315 24.6709 83.8754 23.68 85.1984 23.68V24.68ZM83.4384 26.24L84.3464 26.6591C83.9478 27.5228 83.7184 28.7121 83.7184 30.28H82.7184H81.7184C81.7184 28.5413 81.9691 27.0372 82.5305 25.8209L83.4384 26.24Z" fill="#FFB627" mask="url(#path-3-outside-2_265_2)"/>
<mask id="path-5-outside-3_265_2" maskUnits="userSpaceOnUse" x="101.492" y="44" width="24" height="12" fill="black">
<rect fill="white" x="101.492" y="44" width="24" height="12"/>
<path d="M107.827 51.35L107.354 52.637L107.123 52.835L105.748 52.989L105.77 52.703C105.858 51.515 105.906 50.767 105.913 50.459C105.605 50.943 105.334 51.2583 105.099 51.405C104.967 51.4857 104.81 51.5517 104.626 51.603C104.45 51.647 104.278 51.669 104.109 51.669C103.721 51.669 103.409 51.548 103.174 51.306C102.94 51.064 102.822 50.7853 102.822 50.47C102.822 50.074 102.958 49.6413 103.229 49.172C103.508 48.6953 103.845 48.292 104.241 47.962C104.637 47.632 105 47.467 105.33 47.467C105.917 47.467 106.368 47.6833 106.683 48.116C107.006 48.5487 107.167 49.1573 107.167 49.942C107.16 50.096 107.149 50.3013 107.134 50.558C107.12 50.8147 107.105 51.0383 107.09 51.229L107.761 51.163L107.827 51.35ZM105.022 50.14C105.338 50.14 105.613 50.063 105.847 49.909C105.759 49.6303 105.591 49.4323 105.341 49.315C105.092 49.1977 104.758 49.139 104.34 49.139C104.106 49.139 103.897 49.172 103.713 49.238C103.765 49.502 103.919 49.7183 104.175 49.887C104.432 50.0557 104.714 50.14 105.022 50.14ZM104.329 45.96L106.32 45.421L106.1 46.554L104.142 46.983L104.329 45.96ZM109.245 50.305C109.142 51.2803 108.904 52.1493 108.53 52.912C108.193 53.0147 107.723 53.099 107.122 53.165L107.76 51.493C108.127 51.449 108.424 51.394 108.651 51.328C108.754 50.9247 108.834 50.58 108.893 50.294L109.245 50.305ZM107.1 54.254L109.091 53.715L108.871 54.848L106.913 55.277L107.1 54.254ZM115.278 49.271L114.805 50.558L114.574 50.756L113.991 50.811C113.793 51.493 113.489 52.065 113.078 52.527C112.667 52.989 112.161 53.22 111.56 53.22C111.237 53.22 110.852 53.1357 110.405 52.967C109.958 52.791 109.642 52.6113 109.459 52.428C110.134 52.23 110.863 51.9843 111.648 51.691C112.44 51.3903 113.067 51.1153 113.529 50.866L114.09 49.722C114.2 49.502 114.31 49.3553 114.42 49.282C114.53 49.2013 114.713 49.1463 114.97 49.117L115.212 49.084L115.278 49.271ZM121.122 49.284L120.649 50.571L120.418 50.769C119.619 50.8497 119.076 50.89 118.79 50.89C118.38 50.89 118.035 50.802 117.756 50.626C117.14 50.868 116.469 51.033 115.743 51.121L115.556 51.143L115.655 50.835C115.355 51.0037 114.992 51.1137 114.566 51.165L115.204 49.493C115.578 49.449 115.897 49.3537 116.161 49.207L116.326 48.679L116.667 48.712L116.502 49.438L116.689 49.416L117.151 49.361C117.159 49.0603 117.221 48.745 117.338 48.415C117.456 48.0777 117.599 47.7917 117.767 47.557C117.973 47.2783 118.233 47.062 118.548 46.908C118.871 46.7467 119.183 46.666 119.483 46.666C119.813 46.666 120.048 46.765 120.187 46.963C120.327 47.161 120.396 47.4507 120.396 47.832C120.396 48.338 120.235 48.8 119.912 49.218L120.231 49.185L121.056 49.097L121.122 49.284ZM117.514 49.174C117.514 49.2253 117.533 49.2693 117.569 49.306C118.061 49.2327 118.475 49.1483 118.812 49.053C119.157 48.9577 119.41 48.866 119.571 48.778C119.74 48.6827 119.824 48.6057 119.824 48.547C119.824 48.4957 119.777 48.4517 119.681 48.415C119.593 48.3783 119.454 48.36 119.263 48.36C118.977 48.36 118.699 48.404 118.427 48.492C118.156 48.5727 117.936 48.679 117.767 48.811C117.599 48.9357 117.514 49.0567 117.514 49.174ZM123.105 47.601C123.362 47.601 123.585 47.6523 123.776 47.755C123.967 47.8503 124.062 47.9677 124.062 48.107C124.062 48.4663 124.003 48.822 123.886 49.174C123.769 49.5187 123.611 49.823 123.413 50.087C123.222 50.3437 123.021 50.5307 122.808 50.648C122.192 50.89 121.393 51.0623 120.41 51.165L121.048 49.493L121.356 49.46C121.503 49.4453 121.613 49.4307 121.686 49.416C121.642 49.328 121.62 49.2473 121.62 49.174C121.62 49.0127 121.679 48.778 121.796 48.47C121.921 48.1547 122.045 47.953 122.17 47.865C122.28 47.7843 122.416 47.722 122.577 47.678C122.746 47.6267 122.922 47.601 123.105 47.601Z"/>
</mask>
<path d="M107.827 51.35L108.296 51.5225L108.359 51.3534L108.299 51.1836L107.827 51.35ZM107.354 52.637L107.68 53.0166L107.779 52.9318L107.823 52.8095L107.354 52.637ZM107.123 52.835L107.179 53.3319L107.332 53.3148L107.449 53.2146L107.123 52.835ZM105.748 52.989L105.25 52.9507L105.203 53.5532L105.804 53.4859L105.748 52.989ZM105.77 52.703L106.269 52.7413L106.269 52.7399L105.77 52.703ZM105.913 50.459L106.413 50.4709L106.456 48.675L105.491 50.1906L105.913 50.459ZM105.099 51.405L105.36 51.8317L105.364 51.829L105.099 51.405ZM104.626 51.603L104.748 52.0883L104.761 52.0845L104.626 51.603ZM103.174 51.306L103.533 50.9579H103.533L103.174 51.306ZM103.229 49.172L102.798 48.9196L102.796 48.9217L103.229 49.172ZM104.241 47.962L103.921 47.5779H103.921L104.241 47.962ZM106.683 48.116L106.279 48.4105L106.282 48.4149L106.683 48.116ZM107.167 49.942L107.667 49.9658L107.667 49.9539V49.942H107.167ZM107.134 50.558L106.635 50.5295V50.5295L107.134 50.558ZM107.09 51.229L106.592 51.1907L106.546 51.7849L107.139 51.7266L107.09 51.229ZM107.761 51.163L108.233 50.9966L108.102 50.627L107.712 50.6654L107.761 51.163ZM105.847 49.909L106.122 50.327L106.438 50.1194L106.324 49.7584L105.847 49.909ZM105.341 49.315L105.128 49.7674V49.7674L105.341 49.315ZM103.713 49.238L103.544 48.7676L103.141 48.9127L103.222 49.3334L103.713 49.238ZM104.175 49.887L104.45 49.4691H104.45L104.175 49.887ZM104.329 45.96L104.199 45.4774L103.894 45.5598L103.837 45.8701L104.329 45.96ZM106.32 45.421L106.811 45.5163L106.964 44.7287L106.19 44.9384L106.32 45.421ZM106.1 46.554L106.207 47.0424L106.528 46.972L106.591 46.6493L106.1 46.554ZM104.142 46.983L103.65 46.8931L103.515 47.6322L104.249 47.4714L104.142 46.983ZM107.827 51.35L107.358 51.1775L106.885 52.4645L107.354 52.637L107.823 52.8095L108.296 51.5225L107.827 51.35ZM107.354 52.637L107.029 52.2574L106.798 52.4554L107.123 52.835L107.449 53.2146L107.68 53.0166L107.354 52.637ZM107.123 52.835L107.068 52.3381L105.693 52.4921L105.748 52.989L105.804 53.4859L107.179 53.3319L107.123 52.835ZM105.748 52.989L106.247 53.0273L106.269 52.7413L105.77 52.703L105.272 52.6647L105.25 52.9507L105.748 52.989ZM105.77 52.703L106.269 52.7399C106.356 51.5563 106.405 50.7942 106.413 50.4709L105.913 50.459L105.413 50.4471C105.406 50.7398 105.36 51.4737 105.272 52.6661L105.77 52.703ZM105.913 50.459L105.491 50.1906C105.189 50.6651 104.968 50.8974 104.834 50.981L105.099 51.405L105.364 51.829C105.7 51.6192 106.021 51.2209 106.335 50.7274L105.913 50.459ZM105.099 51.405L104.838 50.9784C104.754 51.0303 104.64 51.0799 104.491 51.1215L104.626 51.603L104.761 52.0845C104.979 52.0235 105.181 51.9411 105.36 51.8316L105.099 51.405ZM104.626 51.603L104.505 51.1179C104.366 51.1528 104.234 51.169 104.109 51.169V51.669V52.169C104.322 52.169 104.535 52.1412 104.747 52.0881L104.626 51.603ZM104.109 51.669V51.169C103.833 51.169 103.659 51.0877 103.533 50.9579L103.174 51.306L102.815 51.6541C103.159 52.0083 103.608 52.169 104.109 52.169V51.669ZM103.174 51.306L103.533 50.9579C103.382 50.8021 103.322 50.6458 103.322 50.47H102.822H102.322C102.322 50.9248 102.497 51.3259 102.815 51.6541L103.174 51.306ZM102.822 50.47H103.322C103.322 50.1884 103.419 49.8424 103.662 49.4223L103.229 49.172L102.796 48.9217C102.497 49.4403 102.322 49.9596 102.322 50.47H102.822ZM103.229 49.172L103.661 49.4243C103.912 48.9942 104.213 48.6364 104.561 48.3461L104.241 47.962L103.921 47.5779C103.477 47.9476 103.103 48.3965 102.798 48.9197L103.229 49.172ZM104.241 47.962L104.561 48.3461C104.915 48.0511 105.167 47.967 105.33 47.967V47.467V46.967C104.833 46.967 104.359 47.2129 103.921 47.5779L104.241 47.962ZM105.33 47.467V47.967C105.775 47.967 106.068 48.1207 106.279 48.4105L106.683 48.116L107.087 47.8215C106.668 47.246 106.059 46.967 105.33 46.967V47.467ZM106.683 48.116L106.282 48.4149C106.517 48.7299 106.667 49.2181 106.667 49.942H107.167H107.667C107.667 49.0966 107.494 48.3674 107.084 47.8171L106.683 48.116ZM107.167 49.942L106.668 49.9182C106.661 50.0699 106.65 50.2735 106.635 50.5295L107.134 50.558L107.633 50.5865C107.648 50.3292 107.659 50.1221 107.667 49.9658L107.167 49.942ZM107.134 50.558L106.635 50.5295C106.62 50.7839 106.606 51.0041 106.592 51.1907L107.09 51.229L107.589 51.2673C107.604 51.0725 107.619 50.8454 107.633 50.5865L107.134 50.558ZM107.09 51.229L107.139 51.7266L107.81 51.6606L107.761 51.163L107.712 50.6654L107.041 50.7314L107.09 51.229ZM107.761 51.163L107.29 51.3294L107.356 51.5164L107.827 51.35L108.299 51.1836L108.233 50.9966L107.761 51.163ZM105.022 50.14V50.64C105.423 50.64 105.796 50.5409 106.122 50.327L105.847 49.909L105.573 49.491C105.429 49.5851 105.252 49.64 105.022 49.64V50.14ZM105.847 49.909L106.324 49.7584C106.197 49.3558 105.938 49.0432 105.554 48.8626L105.341 49.315L105.128 49.7674C105.243 49.8214 105.322 49.9049 105.37 50.0596L105.847 49.909ZM105.341 49.315L105.554 48.8626C105.213 48.7019 104.797 48.639 104.34 48.639V49.139V49.639C104.719 49.639 104.971 49.6934 105.128 49.7674L105.341 49.315ZM104.34 49.139V48.639C104.059 48.639 103.791 48.6785 103.544 48.7676L103.713 49.238L103.883 49.7084C104.002 49.6655 104.152 49.639 104.34 49.639V49.139ZM103.713 49.238L103.222 49.3334C103.303 49.7488 103.549 50.0737 103.901 50.3049L104.175 49.887L104.45 49.4691C104.288 49.363 104.226 49.2552 104.204 49.1426L103.713 49.238ZM104.175 49.887L103.901 50.3049C104.239 50.5273 104.617 50.64 105.022 50.64V50.14V49.64C104.811 49.64 104.625 49.5841 104.45 49.4691L104.175 49.887ZM104.329 45.96L104.46 46.4426L106.451 45.9036L106.32 45.421L106.19 44.9384L104.199 45.4774L104.329 45.96ZM106.32 45.421L105.829 45.3257L105.609 46.4587L106.1 46.554L106.591 46.6493L106.811 45.5163L106.32 45.421ZM106.1 46.554L105.993 46.0656L104.035 46.4946L104.142 46.983L104.249 47.4714L106.207 47.0424L106.1 46.554ZM104.142 46.983L104.634 47.0729L104.821 46.0499L104.329 45.96L103.837 45.8701L103.65 46.8931L104.142 46.983ZM109.245 50.305L109.742 50.3573L109.799 49.8221L109.261 49.8052L109.245 50.305ZM108.53 52.912L108.676 53.3903L108.883 53.3271L108.979 53.1321L108.53 52.912ZM107.122 53.165L106.655 52.9867L106.363 53.7513L107.177 53.662L107.122 53.165ZM107.76 51.493L107.7 50.9966L107.401 51.0325L107.293 51.3147L107.76 51.493ZM108.651 51.328L108.79 51.8082L109.065 51.7284L109.136 51.4513L108.651 51.328ZM108.893 50.294L108.909 49.7942L108.488 49.7811L108.403 50.1935L108.893 50.294ZM107.1 54.254L106.969 53.7714L106.665 53.8538L106.608 54.1641L107.1 54.254ZM109.091 53.715L109.582 53.8103L109.735 53.0227L108.96 53.2324L109.091 53.715ZM108.871 54.848L108.978 55.3364L109.299 55.266L109.362 54.9433L108.871 54.848ZM106.913 55.277L106.421 55.1871L106.286 55.9262L107.02 55.7654L106.913 55.277ZM109.245 50.305L108.748 50.2527C108.65 51.1785 108.426 51.9893 108.081 52.6919L108.53 52.912L108.979 53.1321C109.382 52.3094 109.634 51.3821 109.742 50.3573L109.245 50.305ZM108.53 52.912L108.384 52.4337C108.091 52.5231 107.657 52.6033 107.068 52.668L107.122 53.165L107.177 53.662C107.79 53.5947 108.295 53.5062 108.676 53.3903L108.53 52.912ZM107.122 53.165L107.589 53.3433L108.227 51.6713L107.76 51.493L107.293 51.3147L106.655 52.9867L107.122 53.165ZM107.76 51.493L107.82 51.9894C108.2 51.9438 108.527 51.8847 108.79 51.8082L108.651 51.328L108.512 50.8478C108.321 50.9033 108.053 50.9542 107.7 50.9966L107.76 51.493ZM108.651 51.328L109.136 51.4513C109.239 51.0433 109.322 50.6906 109.383 50.3945L108.893 50.294L108.403 50.1935C108.347 50.4694 108.268 50.806 108.167 51.2047L108.651 51.328ZM108.893 50.294L108.877 50.7938L109.229 50.8048L109.245 50.305L109.261 49.8052L108.909 49.7942L108.893 50.294ZM107.1 54.254L107.231 54.7366L109.222 54.1976L109.091 53.715L108.96 53.2324L106.969 53.7714L107.1 54.254ZM109.091 53.715L108.6 53.6197L108.38 54.7527L108.871 54.848L109.362 54.9433L109.582 53.8103L109.091 53.715ZM108.871 54.848L108.764 54.3596L106.806 54.7886L106.913 55.277L107.02 55.7654L108.978 55.3364L108.871 54.848ZM106.913 55.277L107.405 55.3669L107.592 54.3439L107.1 54.254L106.608 54.1641L106.421 55.1871L106.913 55.277ZM115.278 49.271L115.747 49.4435L115.809 49.2744L115.749 49.1046L115.278 49.271ZM114.805 50.558L115.13 50.9376L115.229 50.8528L115.274 50.7305L114.805 50.558ZM114.574 50.756L114.621 51.2538L114.779 51.2389L114.899 51.1356L114.574 50.756ZM113.991 50.811L113.944 50.3132L113.606 50.3451L113.511 50.6716L113.991 50.811ZM113.078 52.527L112.704 52.1948V52.1948L113.078 52.527ZM110.405 52.967L110.222 53.4323L110.229 53.4348L110.405 52.967ZM109.459 52.428L109.318 51.9482L108.509 52.1856L109.105 52.7816L109.459 52.428ZM111.648 51.691L111.823 52.1594L111.825 52.1584L111.648 51.691ZM113.529 50.866L113.766 51.306L113.907 51.2299L113.978 51.0861L113.529 50.866ZM114.09 49.722L113.643 49.4984L113.641 49.5019L114.09 49.722ZM114.42 49.282L114.697 49.698L114.707 49.6918L114.716 49.6852L114.42 49.282ZM114.97 49.117L115.027 49.6139L115.038 49.6124L114.97 49.117ZM115.212 49.084L115.683 48.9176L115.548 48.5336L115.144 48.5886L115.212 49.084ZM115.278 49.271L114.809 49.0985L114.336 50.3855L114.805 50.558L115.274 50.7305L115.747 49.4435L115.278 49.271ZM114.805 50.558L114.48 50.1784L114.249 50.3764L114.574 50.756L114.899 51.1356L115.13 50.9376L114.805 50.558ZM114.574 50.756L114.527 50.2582L113.944 50.3132L113.991 50.811L114.038 51.3088L114.621 51.2538L114.574 50.756ZM113.991 50.811L113.511 50.6716C113.33 51.2928 113.059 51.7961 112.704 52.1948L113.078 52.527L113.452 52.8592C113.919 52.3339 114.256 51.6932 114.471 50.9504L113.991 50.811ZM113.078 52.527L112.704 52.1948C112.385 52.5535 112.014 52.72 111.56 52.72V53.22V53.72C112.309 53.72 112.949 53.4245 113.452 52.8592L113.078 52.527ZM111.56 53.22V52.72C111.319 52.72 110.997 52.6558 110.581 52.4992L110.405 52.967L110.229 53.4348C110.708 53.6155 111.155 53.72 111.56 53.72V53.22ZM110.405 52.967L110.588 52.5017C110.159 52.333 109.922 52.1838 109.813 52.0744L109.459 52.428L109.105 52.7816C109.363 53.0389 109.756 53.249 110.222 53.4323L110.405 52.967ZM109.459 52.428L109.6 52.9078C110.288 52.7058 111.029 52.4561 111.823 52.1593L111.648 51.691L111.473 51.2227C110.697 51.5125 109.979 51.7542 109.318 51.9482L109.459 52.428ZM111.648 51.691L111.825 52.1584C112.627 51.8541 113.277 51.5701 113.766 51.306L113.529 50.866L113.292 50.426C112.857 50.6605 112.253 50.9266 111.471 51.2236L111.648 51.691ZM113.529 50.866L113.978 51.0861L114.539 49.9421L114.09 49.722L113.641 49.5019L113.08 50.6459L113.529 50.866ZM114.09 49.722L114.537 49.9456C114.583 49.854 114.623 49.7898 114.655 49.747C114.688 49.7028 114.704 49.6937 114.697 49.698L114.42 49.282L114.143 48.866C113.921 49.0135 113.763 49.2571 113.643 49.4984L114.09 49.722ZM114.42 49.282L114.716 49.6852C114.71 49.6892 114.726 49.6764 114.784 49.6592C114.839 49.6425 114.918 49.6262 115.027 49.6138L114.97 49.117L114.913 48.6202C114.635 48.6521 114.343 48.7185 114.124 48.8788L114.42 49.282ZM114.97 49.117L115.038 49.6124L115.28 49.5794L115.212 49.084L115.144 48.5886L114.902 48.6216L114.97 49.117ZM115.212 49.084L114.74 49.2504L114.806 49.4374L115.278 49.271L115.749 49.1046L115.683 48.9176L115.212 49.084ZM121.122 49.284L121.592 49.4565L121.654 49.2874L121.594 49.1176L121.122 49.284ZM120.649 50.571L120.975 50.9506L121.074 50.8658L121.119 50.7435L120.649 50.571ZM120.418 50.769L120.469 51.2665L120.625 51.2507L120.744 51.1486L120.418 50.769ZM117.756 50.626L118.023 50.2033L117.809 50.068L117.574 50.1606L117.756 50.626ZM115.743 51.121L115.802 51.6176L115.804 51.6174L115.743 51.121ZM115.556 51.143L115.08 50.99L114.842 51.7305L115.615 51.6396L115.556 51.143ZM115.655 50.835L116.131 50.988L116.521 49.7762L115.411 50.3989L115.655 50.835ZM114.566 51.165L114.099 50.9867L113.804 51.7606L114.626 51.6614L114.566 51.165ZM115.204 49.493L115.146 48.9964L114.845 49.0318L114.737 49.3147L115.204 49.493ZM116.161 49.207L116.404 49.6441L116.579 49.547L116.639 49.3561L116.161 49.207ZM116.326 48.679L116.375 48.1813L115.97 48.1422L115.849 48.5299L116.326 48.679ZM116.667 48.712L117.155 48.8228L117.281 48.269L116.716 48.2143L116.667 48.712ZM116.502 49.438L116.015 49.3272L115.858 50.0173L116.561 49.9346L116.502 49.438ZM116.689 49.416L116.748 49.9126L116.749 49.9125L116.689 49.416ZM117.151 49.361L117.211 49.8575L117.641 49.8063L117.651 49.3732L117.151 49.361ZM117.338 48.415L117.81 48.5825L117.811 48.5793L117.338 48.415ZM117.767 47.557L117.365 47.2604L117.361 47.2652L117.767 47.557ZM118.548 46.908L118.768 47.3573L118.772 47.3552L118.548 46.908ZM120.187 46.963L120.596 46.6753V46.6753L120.187 46.963ZM119.912 49.218L119.517 48.9125L118.804 49.8353L119.964 49.7153L119.912 49.218ZM120.231 49.185L120.283 49.6823L120.284 49.6822L120.231 49.185ZM121.056 49.097L121.528 48.9306L121.396 48.5579L121.003 48.5998L121.056 49.097ZM117.569 49.306L117.216 49.6596L117.394 49.8377L117.643 49.8005L117.569 49.306ZM118.812 49.053L118.679 48.5711L118.676 48.5718L118.812 49.053ZM119.571 48.778L119.811 49.217L119.817 49.2133L119.571 48.778ZM119.681 48.415L119.489 48.8767L119.502 48.8817L119.681 48.415ZM118.427 48.492L118.57 48.9714L118.582 48.9676L118.427 48.492ZM117.767 48.811L118.065 49.2132L118.076 49.2048L117.767 48.811ZM121.122 49.284L120.653 49.1115L120.18 50.3985L120.649 50.571L121.119 50.7435L121.592 49.4565L121.122 49.284ZM120.649 50.571L120.324 50.1914L120.093 50.3894L120.418 50.769L120.744 51.1486L120.975 50.9506L120.649 50.571ZM120.418 50.769L120.368 50.2715C119.566 50.3525 119.047 50.39 118.79 50.39V50.89V51.39C119.105 51.39 119.672 51.3468 120.469 51.2665L120.418 50.769ZM118.79 50.89V50.39C118.451 50.39 118.205 50.3177 118.023 50.2033L117.756 50.626L117.489 51.0487C117.866 51.2863 118.308 51.39 118.79 51.39V50.89ZM117.756 50.626L117.574 50.1606C117.001 50.3856 116.372 50.5412 115.683 50.6246L115.743 51.121L115.804 51.6174C116.567 51.5248 117.28 51.3504 117.939 51.0914L117.756 50.626ZM115.743 51.121L115.685 50.6244L115.498 50.6464L115.556 51.143L115.615 51.6396L115.802 51.6176L115.743 51.121ZM115.556 51.143L116.032 51.296L116.131 50.988L115.655 50.835L115.179 50.682L115.08 50.99L115.556 51.143ZM115.655 50.835L115.411 50.3989C115.179 50.5289 114.882 50.6233 114.506 50.6686L114.566 51.165L114.626 51.6614C115.101 51.6041 115.53 51.4785 115.9 51.2711L115.655 50.835ZM114.566 51.165L115.034 51.3433L115.672 49.6713L115.204 49.493L114.737 49.3147L114.099 50.9867L114.566 51.165ZM115.204 49.493L115.263 49.9896C115.686 49.9398 116.071 49.8292 116.404 49.6441L116.161 49.207L115.919 48.7699C115.724 48.8782 115.471 48.9582 115.146 48.9964L115.204 49.493ZM116.161 49.207L116.639 49.3561L116.804 48.8281L116.326 48.679L115.849 48.5299L115.684 49.0579L116.161 49.207ZM116.326 48.679L116.278 49.1767L116.619 49.2097L116.667 48.712L116.716 48.2143L116.375 48.1813L116.326 48.679ZM116.667 48.712L116.18 48.6012L116.015 49.3272L116.502 49.438L116.99 49.5488L117.155 48.8228L116.667 48.712ZM116.502 49.438L116.561 49.9346L116.748 49.9126L116.689 49.416L116.631 48.9194L116.444 48.9414L116.502 49.438ZM116.689 49.416L116.749 49.9125L117.211 49.8575L117.151 49.361L117.092 48.8645L116.63 48.9195L116.689 49.416ZM117.151 49.361L117.651 49.3732C117.657 49.1334 117.707 48.8706 117.81 48.5825L117.338 48.415L116.867 48.2475C116.735 48.6194 116.66 48.9873 116.652 49.3488L117.151 49.361ZM117.338 48.415L117.811 48.5793C117.916 48.2772 118.039 48.0364 118.173 47.8488L117.767 47.557L117.361 47.2652C117.159 47.5469 116.996 47.8782 116.866 48.2507L117.338 48.415ZM117.767 47.557L118.17 47.8536C118.327 47.6408 118.524 47.4764 118.768 47.3573L118.548 46.908L118.329 46.4587C117.942 46.6476 117.619 46.9159 117.365 47.2604L117.767 47.557ZM118.548 46.908L118.772 47.3552C119.039 47.2217 119.274 47.166 119.483 47.166V46.666V46.166C119.091 46.166 118.703 46.2716 118.325 46.4608L118.548 46.908ZM119.483 46.666V47.166C119.715 47.166 119.765 47.2309 119.779 47.2507L120.187 46.963L120.596 46.6753C120.332 46.2991 119.912 46.166 119.483 46.166V46.666ZM120.187 46.963L119.779 47.2507C119.833 47.3287 119.896 47.4989 119.896 47.832H120.396H120.896C120.896 47.4025 120.82 46.9933 120.596 46.6753L120.187 46.963ZM120.396 47.832H119.896C119.896 48.2224 119.775 48.5779 119.517 48.9125L119.912 49.218L120.308 49.5235C120.695 49.0221 120.896 48.4536 120.896 47.832H120.396ZM119.912 49.218L119.964 49.7153L120.283 49.6823L120.231 49.185L120.18 48.6877L119.861 48.7207L119.912 49.218ZM120.231 49.185L120.284 49.6822L121.109 49.5942L121.056 49.097L121.003 48.5998L120.178 48.6878L120.231 49.185ZM121.056 49.097L120.585 49.2634L120.651 49.4504L121.122 49.284L121.594 49.1176L121.528 48.9306L121.056 49.097ZM117.514 49.174H117.014C117.014 49.3594 117.086 49.5302 117.216 49.6596L117.569 49.306L117.923 48.9524C117.947 48.9762 117.972 49.0098 117.99 49.0532C118.008 49.0967 118.014 49.1388 118.014 49.174H117.514ZM117.569 49.306L117.643 49.8005C118.148 49.7252 118.584 49.6371 118.948 49.5342L118.812 49.053L118.676 48.5718C118.366 48.6596 117.974 48.7401 117.496 48.8115L117.569 49.306ZM118.812 49.053L118.946 49.5349C119.3 49.437 119.598 49.3333 119.811 49.2169L119.571 48.778L119.332 48.3391C119.223 48.3987 119.015 48.4783 118.679 48.5711L118.812 49.053ZM119.571 48.778L119.817 49.2133C119.915 49.158 120.016 49.0934 120.098 49.018C120.157 48.9647 120.324 48.8027 120.324 48.547H119.824H119.324C119.324 48.4404 119.362 48.3651 119.384 48.3305C119.395 48.312 119.406 48.2991 119.412 48.2918C119.419 48.2844 119.423 48.2803 119.424 48.2795C119.425 48.2785 119.419 48.2843 119.401 48.2967C119.383 48.3087 119.358 48.324 119.325 48.3427L119.571 48.778ZM119.824 48.547H120.324C120.324 48.3469 120.225 48.1981 120.128 48.1081C120.039 48.0258 119.938 47.9778 119.861 47.9483L119.681 48.415L119.502 48.8817C119.521 48.8889 119.491 48.8812 119.45 48.8429C119.4 48.7969 119.324 48.6958 119.324 48.547H119.824ZM119.681 48.415L119.874 47.9535C119.69 47.8769 119.467 47.86 119.263 47.86V48.36V48.86C119.344 48.86 119.404 48.864 119.446 48.8695C119.49 48.8753 119.5 48.8811 119.489 48.8765L119.681 48.415ZM119.263 48.36V47.86C118.925 47.86 118.594 47.9122 118.273 48.0164L118.427 48.492L118.582 48.9676C118.803 48.8958 119.03 48.86 119.263 48.86V48.36ZM118.427 48.492L118.285 48.0127C117.972 48.1058 117.69 48.2364 117.459 48.4172L117.767 48.811L118.076 49.2048C118.182 49.1216 118.34 49.0395 118.57 48.9713L118.427 48.492ZM117.767 48.811L117.47 48.4089C117.271 48.5564 117.014 48.8075 117.014 49.174H117.514H118.014C118.014 49.2057 118.009 49.2325 118.002 49.2521C117.995 49.2709 117.988 49.2806 117.988 49.2811C117.988 49.2816 117.992 49.2752 118.005 49.2625C118.018 49.25 118.037 49.2334 118.065 49.2131L117.767 48.811ZM123.776 47.755L123.539 48.1952L123.546 48.1988L123.553 48.2022L123.776 47.755ZM123.886 49.174L124.359 49.3351L124.36 49.3321L123.886 49.174ZM123.413 50.087L123.013 49.787L123.012 49.7888L123.413 50.087ZM122.808 50.648L122.991 51.1134L123.021 51.1015L123.05 51.0858L122.808 50.648ZM120.41 51.165L119.943 50.9867L119.653 51.7468L120.462 51.6623L120.41 51.165ZM121.048 49.493L120.995 48.9958L120.69 49.0285L120.581 49.3147L121.048 49.493ZM121.356 49.46L121.306 48.9625L121.303 48.9628L121.356 49.46ZM121.686 49.416L121.784 49.9063L122.426 49.7779L122.133 49.1924L121.686 49.416ZM121.796 48.47L121.331 48.2862L121.329 48.292L121.796 48.47ZM122.17 47.865L122.459 48.2736L122.466 48.2682L122.17 47.865ZM122.577 47.678L122.709 48.1604L122.716 48.1585L122.723 48.1563L122.577 47.678ZM123.105 47.601V48.101C123.294 48.101 123.434 48.1385 123.539 48.1952L123.776 47.755L124.013 47.3148C123.737 47.1662 123.429 47.101 123.105 47.101V47.601ZM123.776 47.755L123.553 48.2022C123.579 48.2154 123.595 48.2258 123.603 48.2319C123.611 48.2379 123.609 48.2379 123.603 48.2298C123.596 48.2212 123.585 48.2048 123.576 48.1807C123.566 48.1561 123.562 48.1305 123.562 48.107H124.062H124.562C124.562 47.6882 124.26 47.4381 124 47.3078L123.776 47.755ZM124.062 48.107H123.562C123.562 48.4108 123.513 48.7132 123.412 49.0159L123.886 49.174L124.36 49.3321C124.494 48.9308 124.562 48.5218 124.562 48.107H124.062ZM123.886 49.174L123.413 49.0129C123.311 49.3128 123.176 49.5693 123.013 49.787L123.413 50.087L123.813 50.387C124.046 50.0767 124.227 49.7245 124.359 49.3351L123.886 49.174ZM123.413 50.087L123.012 49.7888C122.851 50.0054 122.7 50.1366 122.567 50.2102L122.808 50.648L123.05 51.0858C123.342 50.9248 123.594 50.6819 123.815 50.3852L123.413 50.087ZM122.808 50.648L122.625 50.1826C122.066 50.4022 121.316 50.5677 120.358 50.6677L120.41 51.165L120.462 51.6623C121.47 51.557 122.318 51.3778 122.991 51.1134L122.808 50.648ZM120.41 51.165L120.877 51.3433L121.515 49.6713L121.048 49.493L120.581 49.3147L119.943 50.9867L120.41 51.165ZM121.048 49.493L121.101 49.9902L121.409 49.9572L121.356 49.46L121.303 48.9628L120.995 48.9958L121.048 49.493ZM121.356 49.46L121.406 49.9575C121.556 49.9425 121.686 49.9259 121.784 49.9063L121.686 49.416L121.588 48.9257C121.539 48.9354 121.449 48.9482 121.306 48.9625L121.356 49.46ZM121.686 49.416L122.133 49.1924C122.124 49.1728 122.12 49.1615 122.119 49.1579C122.118 49.1546 122.12 49.1605 122.12 49.174H121.62H121.12C121.12 49.3468 121.172 49.5048 121.239 49.6396L121.686 49.416ZM121.62 49.174H122.12C122.12 49.1089 122.15 48.9459 122.263 48.648L121.796 48.47L121.329 48.292C121.208 48.6101 121.12 48.9165 121.12 49.174H121.62ZM121.796 48.47L122.261 48.6538C122.317 48.513 122.367 48.4127 122.408 48.3452C122.453 48.2732 122.473 48.2632 122.458 48.2735L122.17 47.865L121.882 47.4565C121.743 47.5548 121.638 47.6896 121.558 47.8193C121.475 47.9535 121.4 48.1117 121.331 48.2862L121.796 48.47ZM122.17 47.865L122.466 48.2682C122.517 48.2309 122.594 48.1918 122.709 48.1604L122.577 47.678L122.446 47.1956C122.238 47.2522 122.044 47.3377 121.874 47.4618L122.17 47.865ZM122.577 47.678L122.723 48.1563C122.842 48.1199 122.969 48.101 123.105 48.101V47.601V47.101C122.874 47.101 122.649 47.1334 122.432 47.1997L122.577 47.678Z" fill="#FFB627" mask="url(#path-5-outside-3_265_2)"/>
</svg>
