<svg width="124" height="60" viewBox="0 0 124 60" fill="none" xmlns="http://www.w3.org/2000/svg">
<path d="M2.71484 31.8711C2.71484 29.9831 2.75391 28.0169 2.83203 25.9727C2.89714 23.8242 3.0013 21.9297 3.14453 20.2891H3.10547L0.898438 19.8789C0.755208 19.2409 0.651042 18.7005 0.585938 18.2578C0.533854 17.8021 0.507812 17.3333 0.507812 16.8516C0.507812 16.513 0.514323 16.2526 0.527344 16.0703C0.800781 15.7188 1.21745 15.3672 1.77734 15.0156C2.35026 14.651 3.01432 14.3451 3.76953 14.0977C4.52474 13.8503 5.30599 13.7266 6.11328 13.7266C7.76693 13.7266 8.9974 14.1497 9.80469 14.9961C10.612 15.8424 10.9766 17.1055 10.8984 18.7852L10.8398 20.4844C10.7878 23.3359 10.6706 25.6536 10.4883 27.4375H17.1289C17.168 24.8464 17.2852 22.457 17.4805 20.2695H17.4414L14.6484 19.8594C14.5052 19.2214 14.401 18.681 14.3359 18.2383C14.2839 17.7826 14.2578 17.3138 14.2578 16.832C14.2578 16.4935 14.2643 16.2331 14.2773 16.0508C14.5508 15.7122 15.0195 15.3607 15.6836 14.9961C16.3477 14.6315 17.1094 14.3255 17.9688 14.0781C18.8411 13.8307 19.7005 13.707 20.5469 13.707C22.2005 13.707 23.4635 14.1367 24.3359 14.9961C25.2214 15.8424 25.6641 17.099 25.6641 18.7656C25.6641 23.4271 24.9414 29.957 23.4961 38.3555L26.3867 37.1055C27.3763 37.9648 27.9427 39.1237 28.0859 40.582C28.0859 40.6732 27.7799 41.0508 27.168 41.7148C26.569 42.3659 25.7812 42.9779 24.8047 43.5508C23.8411 44.1107 22.7409 44.3906 21.5039 44.3906C20.1888 44.3906 19.1016 44.0391 18.2422 43.3359C17.3958 42.6328 16.9792 41.4023 16.9922 39.6445V38.375C16.9922 36.2135 17.0378 34.4167 17.1289 32.9844C16.8294 33.0104 16.3737 33.0234 15.7617 33.0234C14.8633 33.0234 13.5417 32.9453 11.7969 32.7891C10.9635 32.7109 10.3711 32.6589 10.0195 32.6328C10.0586 33.9479 10.1562 35.2565 10.3125 36.5586C10.4688 37.8477 10.6706 39.306 10.918 40.9336C11.0742 41.9622 11.1849 42.737 11.25 43.2578C10.7161 43.5833 9.86979 43.8503 8.71094 44.0586C7.55208 44.2669 6.56901 44.3711 5.76172 44.3711C5.35807 44.3711 4.97396 44.3385 4.60938 44.2734C4.25781 44.2083 3.86719 44.1107 3.4375 43.9805C2.95573 40.9727 2.71484 36.9362 2.71484 31.8711ZM35.8789 31.1289C36.6471 31.1289 37.4935 31.207 38.418 31.3633C39.3555 31.5195 40.2148 31.7083 40.9961 31.9297V31.3242C40.9961 30.9206 40.9831 30.4714 40.957 29.9766C40.944 29.4818 40.918 29.1562 40.8789 29C40.7617 28.7786 40.4232 28.5508 39.8633 28.3164C39.3164 28.082 38.418 27.9648 37.168 27.9648C36.3997 27.9648 35.6055 28.0625 34.7852 28.2578C33.9779 28.4401 33.0794 28.6875 32.0898 29C31.556 28.1146 31.1263 27.2747 30.8008 26.4805C30.4883 25.6732 30.332 24.8659 30.332 24.0586C30.332 23.8112 30.3516 23.5638 30.3906 23.3164C32.5 21.6758 35.2279 20.8555 38.5742 20.8555C40.4232 20.8555 42.0638 21.0638 43.4961 21.4805C44.9284 21.8971 46.1068 22.7044 47.0312 23.9023C47.9557 25.1003 48.418 26.7995 48.418 29C48.418 31.1484 48.1641 33.2318 47.6562 35.25C47.1615 37.2552 46.9076 38.2773 46.8945 38.3164L49.7266 37.1055C50.1042 37.5091 50.4362 38.0039 50.7227 38.5898C51.0221 39.1628 51.2109 39.8268 51.2891 40.582C51.1068 40.9727 50.7096 41.474 50.0977 42.0859C49.4857 42.6849 48.737 43.2188 47.8516 43.6875C46.9661 44.1562 46.0417 44.3906 45.0781 44.3906C43.9974 44.3906 43.1771 44.0716 42.6172 43.4336C42.0703 42.7956 41.7969 41.9688 41.7969 40.9531C41.7969 40.3802 41.8815 39.8008 42.0508 39.2148L41.4648 39.0391C41.1003 41.0964 40.3255 42.5026 39.1406 43.2578C37.9557 44.013 36.6471 44.3906 35.2148 44.3906C34.2773 44.3906 33.3724 44.1302 32.5 43.6094C31.6276 43.0755 30.918 42.3073 30.3711 41.3047C29.8242 40.2891 29.5508 39.1042 29.5508 37.75C29.5508 35.5885 30.0911 33.9479 31.1719 32.8281C32.2526 31.6953 33.8216 31.1289 35.8789 31.1289ZM38.1055 38.5703C38.431 38.5052 38.8151 38.3229 39.2578 38.0234C39.7135 37.724 40.1172 37.3659 40.4688 36.9492C40.8203 36.5326 41.0286 36.1354 41.0938 35.7578L40.9766 35.2891C40.2865 35.1979 39.5508 35.1523 38.7695 35.1523C38.1055 35.1523 37.6497 35.2044 37.4023 35.3086C36.9857 35.7773 36.7773 36.2982 36.7773 36.8711C36.7773 37.2878 36.8815 37.6654 37.0898 38.0039C37.3112 38.3424 37.6497 38.5312 38.1055 38.5703ZM52.3438 32.7305C52.3438 30.7513 52.6172 28.8568 53.1641 27.0469C53.724 25.237 54.5964 23.7526 55.7812 22.5938C56.9792 21.4349 58.4831 20.8555 60.293 20.8555C62.3242 20.8555 64.2643 21.5 66.1133 22.7891L66.4258 22.5938C66.3867 21.0703 66.1979 19.6901 65.8594 18.4531L61.8945 18.1992C61.7122 17.9648 61.569 17.6198 61.4648 17.1641C61.3607 16.6953 61.3086 16.2135 61.3086 15.7188C61.3086 15.0547 61.3867 14.4818 61.543 14C62.3242 13.4401 63.3268 13.0169 64.5508 12.7305C65.7747 12.444 66.9987 12.3008 68.2227 12.3008C69.5768 12.3008 70.599 12.5872 71.2891 13.1602C71.9792 13.7201 72.4414 14.5729 72.6758 15.7188C72.9232 16.8516 73.0469 18.4271 73.0469 20.4453C73.0469 23.1016 72.9362 26.1159 72.7148 29.4883C72.4935 32.8607 72.207 35.6146 71.8555 37.75L71.7773 38.082L74.043 37.1055C74.4206 37.5091 74.7526 38.0039 75.0391 38.5898C75.3385 39.1628 75.5273 39.8268 75.6055 40.582C75.4232 40.9727 75.026 41.474 74.4141 42.0859C73.8021 42.6849 73.0534 43.2188 72.168 43.6875C71.2826 44.1562 70.3581 44.3906 69.3945 44.3906C68.3138 44.3906 67.4805 44.0716 66.8945 43.4336C66.3216 42.7826 66.0352 41.9557 66.0352 40.9531C66.0352 40.6927 66.1003 40.1589 66.2305 39.3516C66.3737 38.5443 66.4909 37.9844 66.582 37.6719L65.9961 37.4961C65.332 39.8268 64.4531 41.5586 63.3594 42.6914C62.2656 43.8242 60.9115 44.3906 59.2969 44.3906C57.5651 44.3906 56.1784 43.8177 55.1367 42.6719C54.1081 41.513 53.3854 40.0612 52.9688 38.3164C52.5521 36.5716 52.3438 34.7096 52.3438 32.7305ZM65.7422 32.3789C65.8203 31.9102 65.8594 31.3633 65.8594 30.7383C65.8594 30.3346 65.8398 29.9505 65.8008 29.5859C65.7747 29.2214 65.7422 28.9609 65.7031 28.8047C65.1823 28.4271 64.5898 28.1602 63.9258 28.0039C63.2747 27.8477 62.6758 27.7695 62.1289 27.7695C61.7904 27.7695 61.4258 27.8021 61.0352 27.8672C60.7747 28.1276 60.5664 28.694 60.4102 29.5664C60.2539 30.4258 60.1758 31.3958 60.1758 32.4766C60.1758 33.6354 60.2539 34.7617 60.4102 35.8555C60.5794 36.9362 60.8138 37.7826 61.1133 38.3945C61.3216 38.3945 61.7253 38.0755 62.3242 37.4375C62.9362 36.7865 63.5677 35.9922 64.2188 35.0547C64.8698 34.1042 65.3776 33.2122 65.7422 32.3789Z" fill="#9D4EDD"/>
<path d="M104.6 36L106.32 40.68L107.16 41.4L112.16 41.96L112.08 40.92C111.76 36.6 111.587 33.88 111.56 32.76C112.68 34.52 113.667 35.6667 114.52 36.2C115 36.4933 115.573 36.7333 116.24 36.92C116.88 37.08 117.507 37.16 118.12 37.16C119.533 37.16 120.667 36.72 121.52 35.84C122.373 34.96 122.8 33.9467 122.8 32.8C122.8 31.36 122.307 29.7867 121.32 28.08C120.307 26.3467 119.08 24.88 117.64 23.68C116.2 22.48 114.88 21.88 113.68 21.88C111.547 21.88 109.907 22.6667 108.76 24.24C107.587 25.8133 107 28.0267 107 30.88C107.027 31.44 107.067 32.1867 107.12 33.12C107.173 34.0533 107.227 34.8667 107.28 35.56L104.84 35.32L104.6 36ZM114.8 31.6C113.653 31.6 112.653 31.32 111.8 30.76C112.12 29.7467 112.733 29.0267 113.64 28.6C114.547 28.1733 115.76 27.96 117.28 27.96C118.133 27.96 118.893 28.08 119.56 28.32C119.373 29.28 118.813 30.0667 117.88 30.68C116.947 31.2933 115.92 31.6 114.8 31.6ZM117.32 16.4L110.08 14.44L110.88 18.56L118 20.12L117.32 16.4ZM99.4441 31.2C99.8174 34.7467 100.684 37.9067 102.044 40.68C103.271 41.0533 104.977 41.36 107.164 41.6L104.844 35.52C103.511 35.36 102.431 35.16 101.604 34.92C101.231 33.4533 100.937 32.2 100.724 31.16L99.4441 31.2ZM104.404 24.52L97.1641 22.56L97.9641 26.68L105.084 28.24L104.404 24.52ZM82.2262 30.28C82.2262 32.3333 82.6129 34.3067 83.3862 36.2C84.1329 38.0933 85.1996 39.64 86.5862 40.84C87.9729 42.0133 89.5329 42.6 91.2662 42.6C92.4662 42.6 93.8529 42.3067 95.4262 41.72C96.9996 41.1067 98.1596 40.44 98.9063 39.72C96.7996 39.1067 94.4529 38.3333 91.8662 37.4C89.2529 36.44 87.1062 35.5733 85.4262 34.8L85.6662 33.4H87.5462C88.5596 33.4 89.3729 33.2533 89.9862 32.96C90.5996 32.64 90.9062 32.2 90.9062 31.64C90.9062 30.9733 90.5462 30.08 89.8262 28.96C89.1062 27.84 88.2529 26.8533 87.2662 26C86.2796 25.12 85.4262 24.68 84.7062 24.68C83.9862 24.68 83.3996 25.2 82.9462 26.24C82.4662 27.28 82.2262 28.6267 82.2262 30.28Z" fill="#FFB627"/>
<path d="M107.335 51.35L106.862 52.637L106.631 52.835L105.256 52.989L105.278 52.703C105.366 51.515 105.414 50.767 105.421 50.459C105.113 50.943 104.842 51.2583 104.607 51.405C104.475 51.4857 104.317 51.5517 104.134 51.603C103.958 51.647 103.786 51.669 103.617 51.669C103.228 51.669 102.917 51.548 102.682 51.306C102.447 51.064 102.33 50.7853 102.33 50.47C102.33 50.074 102.466 49.6413 102.737 49.172C103.016 48.6953 103.353 48.292 103.749 47.962C104.145 47.632 104.508 47.467 104.838 47.467C105.425 47.467 105.876 47.6833 106.191 48.116C106.514 48.5487 106.675 49.1573 106.675 49.942C106.668 50.096 106.657 50.3013 106.642 50.558C106.627 50.8147 106.613 51.0383 106.598 51.229L107.269 51.163L107.335 51.35ZM104.53 50.14C104.845 50.14 105.12 50.063 105.355 49.909C105.267 49.6303 105.098 49.4323 104.849 49.315C104.6 49.1977 104.266 49.139 103.848 49.139C103.613 49.139 103.404 49.172 103.221 49.238C103.272 49.502 103.426 49.7183 103.683 49.887C103.94 50.0557 104.222 50.14 104.53 50.14ZM103.837 45.96L105.828 45.421L105.608 46.554L103.65 46.983L103.837 45.96ZM108.753 50.305C108.65 51.2803 108.412 52.1493 108.038 52.912C107.701 53.0147 107.231 53.099 106.63 53.165L107.268 51.493C107.635 51.449 107.932 51.394 108.159 51.328C108.262 50.9247 108.342 50.58 108.401 50.294L108.753 50.305ZM106.608 54.254L108.599 53.715L108.379 54.848L106.421 55.277L106.608 54.254ZM114.786 49.271L114.313 50.558L114.082 50.756L113.499 50.811C113.301 51.493 112.996 52.065 112.586 52.527C112.175 52.989 111.669 53.22 111.068 53.22C110.745 53.22 110.36 53.1357 109.913 52.967C109.465 52.791 109.15 52.6113 108.967 52.428C109.641 52.23 110.371 51.9843 111.156 51.691C111.948 51.3903 112.575 51.1153 113.037 50.866L113.598 49.722C113.708 49.502 113.818 49.3553 113.928 49.282C114.038 49.2013 114.221 49.1463 114.478 49.117L114.72 49.084L114.786 49.271ZM120.63 49.284L120.157 50.571L119.926 50.769C119.127 50.8497 118.584 50.89 118.298 50.89C117.888 50.89 117.543 50.802 117.264 50.626C116.648 50.868 115.977 51.033 115.251 51.121L115.064 51.143L115.163 50.835C114.863 51.0037 114.5 51.1137 114.074 51.165L114.712 49.493C115.086 49.449 115.405 49.3537 115.669 49.207L115.834 48.679L116.175 48.712L116.01 49.438L116.197 49.416L116.659 49.361C116.667 49.0603 116.729 48.745 116.846 48.415C116.964 48.0777 117.107 47.7917 117.275 47.557C117.481 47.2783 117.741 47.062 118.056 46.908C118.379 46.7467 118.691 46.666 118.991 46.666C119.321 46.666 119.556 46.765 119.695 46.963C119.835 47.161 119.904 47.4507 119.904 47.832C119.904 48.338 119.743 48.8 119.42 49.218L119.739 49.185L120.564 49.097L120.63 49.284ZM117.022 49.174C117.022 49.2253 117.041 49.2693 117.077 49.306C117.569 49.2327 117.983 49.1483 118.32 49.053C118.665 48.9577 118.918 48.866 119.079 48.778C119.248 48.6827 119.332 48.6057 119.332 48.547C119.332 48.4957 119.285 48.4517 119.189 48.415C119.101 48.3783 118.962 48.36 118.771 48.36C118.485 48.36 118.207 48.404 117.935 48.492C117.664 48.5727 117.444 48.679 117.275 48.811C117.107 48.9357 117.022 49.0567 117.022 49.174ZM122.613 47.601C122.87 47.601 123.093 47.6523 123.284 47.755C123.475 47.8503 123.57 47.9677 123.57 48.107C123.57 48.4663 123.511 48.822 123.394 49.174C123.277 49.5187 123.119 49.823 122.921 50.087C122.73 50.3437 122.529 50.5307 122.316 50.648C121.7 50.89 120.901 51.0623 119.918 51.165L120.556 49.493L120.864 49.46C121.011 49.4453 121.121 49.4307 121.194 49.416C121.15 49.328 121.128 49.2473 121.128 49.174C121.128 49.0127 121.187 48.778 121.304 48.47C121.429 48.1547 121.553 47.953 121.678 47.865C121.788 47.7843 121.924 47.722 122.085 47.678C122.254 47.6267 122.43 47.601 122.613 47.601Z" fill="#FFB627"/>
</svg>
