<svg width="78" height="35" viewBox="0 0 78 35" fill="none" xmlns="http://www.w3.org/2000/svg">
<mask id="path-1-outside-1_169_3" maskUnits="userSpaceOnUse" x="0" y="0" width="78" height="35" fill="black">
<rect fill="white" width="78" height="35"/>
<path d="M3.71484 20.8711C3.71484 18.9831 3.75391 17.0169 3.83203 14.9727C3.89714 12.8242 4.0013 10.9297 4.14453 9.28906H4.10547L1.89844 8.87891C1.75521 8.24089 1.65104 7.70052 1.58594 7.25781C1.53385 6.80208 1.50781 6.33333 1.50781 5.85156C1.50781 5.51302 1.51432 5.2526 1.52734 5.07031C1.80078 4.71875 2.21745 4.36719 2.77734 4.01562C3.35026 3.65104 4.01432 3.34505 4.76953 3.09766C5.52474 2.85026 6.30599 2.72656 7.11328 2.72656C8.76693 2.72656 9.9974 3.14974 10.8047 3.99609C11.612 4.84245 11.9766 6.10547 11.8984 7.78516L11.8398 9.48438C11.7878 12.3359 11.6706 14.6536 11.4883 16.4375H18.1289C18.168 13.8464 18.2852 11.457 18.4805 9.26953H18.4414L15.6484 8.85938C15.5052 8.22135 15.401 7.68099 15.3359 7.23828C15.2839 6.78255 15.2578 6.3138 15.2578 5.83203C15.2578 5.49349 15.2643 5.23307 15.2773 5.05078C15.5508 4.71224 16.0195 4.36068 16.6836 3.99609C17.3477 3.63151 18.1094 3.32552 18.9688 3.07812C19.8411 2.83073 20.7005 2.70703 21.5469 2.70703C23.2005 2.70703 24.4635 3.13672 25.3359 3.99609C26.2214 4.84245 26.6641 6.09896 26.6641 7.76562C26.6641 12.4271 25.9414 18.957 24.4961 27.3555L27.3867 26.1055C28.3763 26.9648 28.9427 28.1237 29.0859 29.582C29.0859 29.6732 28.7799 30.0508 28.168 30.7148C27.569 31.3659 26.7812 31.9779 25.8047 32.5508C24.8411 33.1107 23.7409 33.3906 22.5039 33.3906C21.1888 33.3906 20.1016 33.0391 19.2422 32.3359C18.3958 31.6328 17.9792 30.4023 17.9922 28.6445V27.375C17.9922 25.2135 18.0378 23.4167 18.1289 21.9844C17.8294 22.0104 17.3737 22.0234 16.7617 22.0234C15.8633 22.0234 14.5417 21.9453 12.7969 21.7891C11.9635 21.7109 11.3711 21.6589 11.0195 21.6328C11.0586 22.9479 11.1562 24.2565 11.3125 25.5586C11.4688 26.8477 11.6706 28.306 11.918 29.9336C12.0742 30.9622 12.1849 31.737 12.25 32.2578C11.7161 32.5833 10.8698 32.8503 9.71094 33.0586C8.55208 33.2669 7.56901 33.3711 6.76172 33.3711C6.35807 33.3711 5.97396 33.3385 5.60938 33.2734C5.25781 33.2083 4.86719 33.1107 4.4375 32.9805C3.95573 29.9727 3.71484 25.9362 3.71484 20.8711ZM36.8789 20.1289C37.6471 20.1289 38.4935 20.207 39.418 20.3633C40.3555 20.5195 41.2148 20.7083 41.9961 20.9297V20.3242C41.9961 19.9206 41.9831 19.4714 41.957 18.9766C41.944 18.4818 41.918 18.1562 41.8789 18C41.7617 17.7786 41.4232 17.5508 40.8633 17.3164C40.3164 17.082 39.418 16.9648 38.168 16.9648C37.3997 16.9648 36.6055 17.0625 35.7852 17.2578C34.9779 17.4401 34.0794 17.6875 33.0898 18C32.556 17.1146 32.1263 16.2747 31.8008 15.4805C31.4883 14.6732 31.332 13.8659 31.332 13.0586C31.332 12.8112 31.3516 12.5638 31.3906 12.3164C33.5 10.6758 36.2279 9.85547 39.5742 9.85547C41.4232 9.85547 43.0638 10.0638 44.4961 10.4805C45.9284 10.8971 47.1068 11.7044 48.0312 12.9023C48.9557 14.1003 49.418 15.7995 49.418 18C49.418 20.1484 49.1641 22.2318 48.6562 24.25C48.1615 26.2552 47.9076 27.2773 47.8945 27.3164L50.7266 26.1055C51.1042 26.5091 51.4362 27.0039 51.7227 27.5898C52.0221 28.1628 52.2109 28.8268 52.2891 29.582C52.1068 29.9727 51.7096 30.474 51.0977 31.0859C50.4857 31.6849 49.737 32.2188 48.8516 32.6875C47.9661 33.1562 47.0417 33.3906 46.0781 33.3906C44.9974 33.3906 44.1771 33.0716 43.6172 32.4336C43.0703 31.7956 42.7969 30.9688 42.7969 29.9531C42.7969 29.3802 42.8815 28.8008 43.0508 28.2148L42.4648 28.0391C42.1003 30.0964 41.3255 31.5026 40.1406 32.2578C38.9557 33.013 37.6471 33.3906 36.2148 33.3906C35.2773 33.3906 34.3724 33.1302 33.5 32.6094C32.6276 32.0755 31.918 31.3073 31.3711 30.3047C30.8242 29.2891 30.5508 28.1042 30.5508 26.75C30.5508 24.5885 31.0911 22.9479 32.1719 21.8281C33.2526 20.6953 34.8216 20.1289 36.8789 20.1289ZM39.1055 27.5703C39.431 27.5052 39.8151 27.3229 40.2578 27.0234C40.7135 26.724 41.1172 26.3659 41.4688 25.9492C41.8203 25.5326 42.0286 25.1354 42.0938 24.7578L41.9766 24.2891C41.2865 24.1979 40.5508 24.1523 39.7695 24.1523C39.1055 24.1523 38.6497 24.2044 38.4023 24.3086C37.9857 24.7773 37.7773 25.2982 37.7773 25.8711C37.7773 26.2878 37.8815 26.6654 38.0898 27.0039C38.3112 27.3424 38.6497 27.5312 39.1055 27.5703ZM53.3438 21.7305C53.3438 19.7513 53.6172 17.8568 54.1641 16.0469C54.724 14.237 55.5964 12.7526 56.7812 11.5938C57.9792 10.4349 59.4831 9.85547 61.293 9.85547C63.3242 9.85547 65.2643 10.5 67.1133 11.7891L67.4258 11.5938C67.3867 10.0703 67.1979 8.6901 66.8594 7.45312L62.8945 7.19922C62.7122 6.96484 62.569 6.61979 62.4648 6.16406C62.3607 5.69531 62.3086 5.21354 62.3086 4.71875C62.3086 4.05469 62.3867 3.48177 62.543 3C63.3242 2.4401 64.3268 2.01693 65.5508 1.73047C66.7747 1.44401 67.9987 1.30078 69.2227 1.30078C70.5768 1.30078 71.599 1.58724 72.2891 2.16016C72.9792 2.72005 73.4414 3.57292 73.6758 4.71875C73.9232 5.85156 74.0469 7.42708 74.0469 9.44531C74.0469 12.1016 73.9362 15.1159 73.7148 18.4883C73.4935 21.8607 73.207 24.6146 72.8555 26.75L72.7773 27.082L75.043 26.1055C75.4206 26.5091 75.7526 27.0039 76.0391 27.5898C76.3385 28.1628 76.5273 28.8268 76.6055 29.582C76.4232 29.9727 76.026 30.474 75.4141 31.0859C74.8021 31.6849 74.0534 32.2188 73.168 32.6875C72.2826 33.1562 71.3581 33.3906 70.3945 33.3906C69.3138 33.3906 68.4805 33.0716 67.8945 32.4336C67.3216 31.7826 67.0352 30.9557 67.0352 29.9531C67.0352 29.6927 67.1003 29.1589 67.2305 28.3516C67.3737 27.5443 67.4909 26.9844 67.582 26.6719L66.9961 26.4961C66.332 28.8268 65.4531 30.5586 64.3594 31.6914C63.2656 32.8242 61.9115 33.3906 60.2969 33.3906C58.5651 33.3906 57.1784 32.8177 56.1367 31.6719C55.1081 30.513 54.3854 29.0612 53.9688 27.3164C53.5521 25.5716 53.3438 23.7096 53.3438 21.7305ZM66.7422 21.3789C66.8203 20.9102 66.8594 20.3633 66.8594 19.7383C66.8594 19.3346 66.8398 18.9505 66.8008 18.5859C66.7747 18.2214 66.7422 17.9609 66.7031 17.8047C66.1823 17.4271 65.5898 17.1602 64.9258 17.0039C64.2747 16.8477 63.6758 16.7695 63.1289 16.7695C62.7904 16.7695 62.4258 16.8021 62.0352 16.8672C61.7747 17.1276 61.5664 17.694 61.4102 18.5664C61.2539 19.4258 61.1758 20.3958 61.1758 21.4766C61.1758 22.6354 61.2539 23.7617 61.4102 24.8555C61.5794 25.9362 61.8138 26.7826 62.1133 27.3945C62.3216 27.3945 62.7253 27.0755 63.3242 26.4375C63.9362 25.7865 64.5677 24.9922 65.2188 24.0547C65.8698 23.1042 66.3776 22.2122 66.7422 21.3789Z"/>
</mask>
<path d="M3.83203 14.9727L4.83133 15.0108L4.83157 15.0029L3.83203 14.9727ZM4.14453 9.28906L5.14074 9.37603L5.23564 8.28906H4.14453V9.28906ZM4.10547 9.28906L3.92276 10.2722L4.01334 10.2891H4.10547V9.28906ZM1.89844 8.87891L0.922721 9.09794L1.0672 9.74155L1.71573 9.86207L1.89844 8.87891ZM1.58594 7.25781L0.592405 7.37136L0.594234 7.38737L0.596578 7.40331L1.58594 7.25781ZM1.52734 5.07031L0.737992 4.45637L0.551524 4.69612L0.529885 4.99907L1.52734 5.07031ZM2.77734 4.01562L3.30912 4.86253L3.31422 4.85929L2.77734 4.01562ZM10.8047 3.99609L10.0811 4.6863L10.8047 3.99609ZM11.8984 7.78516L10.8994 7.73869L10.899 7.75069L11.8984 7.78516ZM11.8398 9.48438L10.8404 9.44991L10.8402 9.45801L10.84 9.46611L11.8398 9.48438ZM11.4883 16.4375L10.4935 16.3358L10.3809 17.4375H11.4883V16.4375ZM18.1289 16.4375V17.4375H19.1139L19.1288 16.4526L18.1289 16.4375ZM18.4805 9.26953L19.4765 9.35846L19.5737 8.26953H18.4805V9.26953ZM18.4414 9.26953L18.2961 10.2589L18.3684 10.2695H18.4414V9.26953ZM15.6484 8.85938L14.6727 9.07841L14.8232 9.74892L15.5031 9.84876L15.6484 8.85938ZM15.3359 7.23828L14.3424 7.35183L14.3442 7.36784L14.3466 7.38378L15.3359 7.23828ZM15.2773 5.05078L14.4994 4.42244L14.3022 4.66655L14.2799 4.97953L15.2773 5.05078ZM18.9688 3.07812L18.6959 2.11605L18.6921 2.11715L18.9688 3.07812ZM25.3359 3.99609L24.6342 4.7085L24.6395 4.71377L24.645 4.71897L25.3359 3.99609ZM24.4961 27.3555L23.5106 27.1859L23.1972 29.0066L24.893 28.2733L24.4961 27.3555ZM27.3867 26.1055L28.0424 25.3504L27.5673 24.9379L26.9898 25.1876L27.3867 26.1055ZM29.0859 29.582H30.0859V29.533L30.0811 29.4843L29.0859 29.582ZM28.168 30.7148L27.4326 30.0372L27.432 30.0378L28.168 30.7148ZM25.8047 32.5508L26.3071 33.4154L26.3107 33.4133L25.8047 32.5508ZM19.2422 32.3359L18.6031 33.1051L18.6089 33.1099L19.2422 32.3359ZM17.9922 28.6445L18.9922 28.6519V28.6445H17.9922ZM18.1289 21.9844L19.1269 22.0479L19.2007 20.8874L18.0423 20.9881L18.1289 21.9844ZM12.7969 21.7891L12.7035 22.7847L12.7077 22.7851L12.7969 21.7891ZM11.0195 21.6328L11.0934 20.6355L9.98703 20.5536L10.02 21.6625L11.0195 21.6328ZM11.3125 25.5586L10.3196 25.6777L10.3198 25.6789L11.3125 25.5586ZM11.918 29.9336L12.9066 29.7834L12.9066 29.7833L11.918 29.9336ZM12.25 32.2578L12.7706 33.1116L13.3224 32.7751L13.2423 32.1338L12.25 32.2578ZM5.60938 33.2734L5.42728 34.2567L5.43358 34.2579L5.60938 33.2734ZM4.4375 32.9805L3.45009 33.1386L3.54899 33.7561L4.14749 33.9375L4.4375 32.9805ZM3.71484 20.8711H4.71484C4.71484 18.9968 4.75362 17.0434 4.8313 15.0108L3.83203 14.9727L2.83276 14.9345C2.75419 16.9904 2.71484 18.9693 2.71484 20.8711H3.71484ZM3.83203 14.9727L4.83157 15.0029C4.89627 12.8681 4.99957 10.9931 5.14074 9.37603L4.14453 9.28906L3.14832 9.20209C3.00304 10.8662 2.89801 12.7804 2.83249 14.9424L3.83203 14.9727ZM4.14453 9.28906V8.28906H4.10547V9.28906V10.2891H4.14453V9.28906ZM4.10547 9.28906L4.28818 8.3059L2.08115 7.89574L1.89844 8.87891L1.71573 9.86207L3.92276 10.2722L4.10547 9.28906ZM1.89844 8.87891L2.87415 8.65987C2.73415 8.0362 2.63554 7.52196 2.5753 7.11232L1.58594 7.25781L0.596578 7.40331C0.666546 7.87908 0.776271 8.44558 0.922721 9.09794L1.89844 8.87891ZM1.58594 7.25781L2.57947 7.14427C2.5319 6.72806 2.50781 6.29728 2.50781 5.85156H1.50781H0.507812C0.507812 6.36938 0.535804 6.8761 0.592405 7.37136L1.58594 7.25781ZM1.50781 5.85156H2.50781C2.50781 5.52045 2.51434 5.28807 2.5248 5.14156L1.52734 5.07031L0.529885 4.99907C0.514309 5.21713 0.507812 5.50559 0.507812 5.85156H1.50781ZM1.52734 5.07031L2.3167 5.68425C2.49274 5.45791 2.80477 5.17919 3.30911 4.86251L2.77734 4.01562L2.24558 3.16874C1.63012 3.55518 1.10882 3.97959 0.737992 4.45637L1.52734 5.07031ZM2.77734 4.01562L3.31422 4.85929C3.80595 4.54637 4.39189 4.27366 5.08084 4.04797L4.76953 3.09766L4.45822 2.14735C3.63676 2.41645 2.89457 2.75572 2.24047 3.17196L2.77734 4.01562ZM4.76953 3.09766L5.08084 4.04797C5.73395 3.83401 6.41003 3.72656 7.11328 3.72656V2.72656V1.72656C6.20195 1.72656 5.31552 1.86651 4.45822 2.14735L4.76953 3.09766ZM7.11328 2.72656V3.72656C8.60877 3.72656 9.5295 4.10804 10.0811 4.6863L10.8047 3.99609L11.5283 3.30588C10.4653 2.19144 8.92508 1.72656 7.11328 1.72656V2.72656ZM10.8047 3.99609L10.0811 4.6863C10.6301 5.26188 10.9706 6.21102 10.8995 7.73869L11.8984 7.78516L12.8974 7.83162C12.9826 5.99992 12.5939 4.42302 11.5283 3.30588L10.8047 3.99609ZM11.8984 7.78516L10.899 7.75069L10.8404 9.44991L11.8398 9.48438L12.8392 9.51884L12.8978 7.81962L11.8984 7.78516ZM11.8398 9.48438L10.84 9.46611C10.7882 12.304 10.6718 14.5909 10.4935 16.3358L11.4883 16.4375L12.4831 16.5392C12.6694 14.7164 12.7873 12.3679 12.8397 9.50264L11.8398 9.48438ZM11.4883 16.4375V17.4375H18.1289V16.4375V15.4375H11.4883V16.4375ZM18.1289 16.4375L19.1288 16.4526C19.1675 13.8818 19.2837 11.5175 19.4765 9.35846L18.4805 9.26953L17.4844 9.1806C17.2866 11.3966 17.1684 13.8109 17.129 16.4224L18.1289 16.4375ZM18.4805 9.26953V8.26953H18.4414V9.26953V10.2695H18.4805V9.26953ZM18.4414 9.26953L18.5867 8.28014L15.7937 7.86999L15.6484 8.85938L15.5031 9.84876L18.2961 10.2589L18.4414 9.26953ZM15.6484 8.85938L16.6242 8.64034C16.4841 8.01666 16.3855 7.50243 16.3253 7.09279L15.3359 7.23828L14.3466 7.38378C14.4165 7.85955 14.5263 8.42604 14.6727 9.07841L15.6484 8.85938ZM15.3359 7.23828L16.3295 7.12473C16.2819 6.70853 16.2578 6.27775 16.2578 5.83203H15.2578H14.2578C14.2578 6.34985 14.2858 6.85657 14.3424 7.35183L15.3359 7.23828ZM15.2578 5.83203H16.2578C16.2578 5.50092 16.2643 5.26854 16.2748 5.12203L15.2773 5.05078L14.2799 4.97953C14.2643 5.1976 14.2578 5.48606 14.2578 5.83203H15.2578ZM15.2773 5.05078L16.0553 5.67912C16.2076 5.4905 16.543 5.21411 17.1649 4.87267L16.6836 3.99609L16.2023 3.11952C15.4961 3.50725 14.8939 3.93398 14.4994 4.42244L15.2773 5.05078ZM16.6836 3.99609L17.1649 4.87267C17.7537 4.54941 18.4448 4.26958 19.2454 4.0391L18.9688 3.07812L18.6921 2.11715C17.774 2.38146 16.9417 2.71361 16.2023 3.11952L16.6836 3.99609ZM18.9688 3.07812L19.2416 4.04019C20.0315 3.81617 20.7991 3.70703 21.5469 3.70703V2.70703V1.70703C20.6019 1.70703 19.6508 1.84529 18.6959 2.11606L18.9688 3.07812ZM21.5469 2.70703V3.70703C23.0323 3.70703 24.0068 4.09049 24.6342 4.7085L25.3359 3.99609L26.0377 3.28369C24.9203 2.18295 23.3687 1.70703 21.5469 1.70703V2.70703ZM25.3359 3.99609L24.645 4.71897C25.2699 5.31633 25.6641 6.27027 25.6641 7.76562H26.6641H27.6641C27.6641 5.92764 27.1728 4.36856 26.0269 3.27322L25.3359 3.99609ZM26.6641 7.76562H25.6641C25.6641 12.3417 24.9528 18.8056 23.5106 27.1859L24.4961 27.3555L25.4816 27.5251C26.9301 19.1084 27.6641 12.5125 27.6641 7.76562H26.6641ZM24.4961 27.3555L24.893 28.2733L27.7836 27.0233L27.3867 26.1055L26.9898 25.1876L24.0992 26.4376L24.4961 27.3555ZM27.3867 26.1055L26.731 26.8605C27.5042 27.5319 27.9693 28.4433 28.0907 29.6798L29.0859 29.582L30.0811 29.4843C29.9161 27.8041 29.2484 26.3977 28.0424 25.3504L27.3867 26.1055ZM29.0859 29.582H28.0859C28.0859 29.4566 28.1107 29.3612 28.1249 29.314C28.1406 29.2619 28.1573 29.2239 28.1666 29.2043C28.1844 29.1664 28.1972 29.1482 28.1912 29.1575C28.1804 29.174 28.1476 29.2199 28.0795 29.304C27.9467 29.4679 27.7342 29.7099 27.4326 30.0372L28.168 30.7148L28.9033 31.3925C29.2138 31.0557 29.4602 30.7769 29.6334 30.5632C29.7182 30.4585 29.8002 30.3514 29.8659 30.2507C29.8981 30.2014 29.9397 30.1336 29.9766 30.055C29.9994 30.0064 30.0859 29.8238 30.0859 29.582H29.0859ZM28.168 30.7148L27.432 30.0378C26.9158 30.5989 26.2125 31.1522 25.2987 31.6883L25.8047 32.5508L26.3107 33.4133C27.35 32.8036 28.2222 32.1329 28.9039 31.3919L28.168 30.7148ZM25.8047 32.5508L25.3023 31.6862C24.5077 32.1479 23.5843 32.3906 22.5039 32.3906V33.3906V34.3906C23.8975 34.3906 25.1746 34.0735 26.3071 33.4154L25.8047 32.5508ZM22.5039 33.3906V32.3906C21.3752 32.3906 20.5245 32.0931 19.8754 31.562L19.2422 32.3359L18.6089 33.1099C19.6786 33.9851 21.0024 34.3906 22.5039 34.3906V33.3906ZM19.2422 32.3359L19.8812 31.5667C19.3744 31.1457 18.98 30.2881 18.9922 28.6519L17.9922 28.6445L16.9922 28.6371C16.9783 30.5166 17.4173 32.1199 18.6032 33.1051L19.2422 32.3359ZM17.9922 28.6445H18.9922V27.375H17.9922H16.9922V28.6445H17.9922ZM17.9922 27.375H18.9922C18.9922 25.2253 19.0376 23.4513 19.1269 22.0479L18.1289 21.9844L17.1309 21.9209C17.0379 23.382 16.9922 25.2018 16.9922 27.375H17.9922ZM18.1289 21.9844L18.0423 20.9881C17.7879 21.0103 17.3679 21.0234 16.7617 21.0234V22.0234V23.0234C17.3795 23.0234 17.8709 23.0106 18.2155 22.9806L18.1289 21.9844ZM16.7617 22.0234V21.0234C15.9092 21.0234 14.6234 20.9486 12.8861 20.793L12.7969 21.7891L12.7077 22.7851C14.4599 22.942 15.8174 23.0234 16.7617 23.0234V22.0234ZM12.7969 21.7891L12.8902 20.7934C12.0568 20.7153 11.4557 20.6624 11.0934 20.6355L11.0195 21.6328L10.9457 22.6301C11.2865 22.6553 11.8703 22.7066 12.7035 22.7847L12.7969 21.7891ZM11.0195 21.6328L10.02 21.6625C10.0599 23.0074 10.1598 24.3459 10.3196 25.6777L11.3125 25.5586L12.3054 25.4394C12.1527 24.1672 12.0573 22.8884 12.0191 21.6031L11.0195 21.6328ZM11.3125 25.5586L10.3198 25.6789C10.4775 26.9802 10.6808 28.4488 10.9293 30.0839L11.918 29.9336L12.9066 29.7833C12.6604 28.1632 12.46 26.7151 12.3052 25.4383L11.3125 25.5586ZM11.918 29.9336L10.9293 30.0838C11.0853 31.1104 11.1943 31.8745 11.2577 32.3818L12.25 32.2578L13.2423 32.1338C13.1755 31.5994 13.0632 30.8141 12.9066 29.7834L11.918 29.9336ZM12.25 32.2578L11.7294 31.404C11.3571 31.631 10.6592 31.8721 9.534 32.0744L9.71094 33.0586L9.88788 34.0428C11.0803 33.8284 12.0752 33.5357 12.7706 33.1116L12.25 32.2578ZM9.71094 33.0586L9.534 32.0744C8.40959 32.2765 7.4895 32.3711 6.76172 32.3711V33.3711V34.3711C7.64852 34.3711 8.69458 34.2573 9.88788 34.0428L9.71094 33.0586ZM6.76172 33.3711V32.3711C6.4118 32.3711 6.08681 32.3429 5.78517 32.289L5.60938 33.2734L5.43358 34.2579C5.8611 34.3342 6.30434 34.3711 6.76172 34.3711V33.3711ZM5.60938 33.2734L5.79146 32.2902C5.48414 32.2332 5.13025 32.1455 4.72751 32.0234L4.4375 32.9805L4.14749 33.9375C4.60412 34.0759 5.03148 34.1834 5.42729 34.2567L5.60938 33.2734ZM4.4375 32.9805L5.42491 32.8223C4.95519 29.8897 4.71484 25.913 4.71484 20.8711H3.71484H2.71484C2.71484 25.9594 2.95627 30.0556 3.45009 33.1386L4.4375 32.9805ZM39.418 20.3633L39.2513 21.3493L39.2536 21.3497L39.418 20.3633ZM41.9961 20.9297L41.7235 21.8918L42.9961 22.2524V20.9297H41.9961ZM41.957 18.9766L40.9574 19.0029L40.9577 19.016L40.9584 19.0291L41.957 18.9766ZM41.8789 18L42.849 17.7575L42.8196 17.6395L42.7627 17.5321L41.8789 18ZM40.8633 17.3164L40.4693 18.2356L40.4771 18.2388L40.8633 17.3164ZM35.7852 17.2578L36.0054 18.2333L36.0168 18.2306L35.7852 17.2578ZM33.0898 18L32.2335 18.5163L32.6401 19.1907L33.391 18.9536L33.0898 18ZM31.8008 15.4805L30.8682 15.8415L30.8718 15.8506L30.8755 15.8597L31.8008 15.4805ZM31.3906 12.3164L30.7767 11.5271L30.4645 11.7698L30.4029 12.1604L31.3906 12.3164ZM48.0312 12.9023L48.8229 12.2914L48.0312 12.9023ZM48.6562 24.25L47.6865 24.006L47.6854 24.0104L48.6562 24.25ZM47.8945 27.3164L46.9458 27.0002L46.2424 29.1104L48.2877 28.2359L47.8945 27.3164ZM50.7266 26.1055L51.4568 25.4223L50.9779 24.9104L50.3334 25.186L50.7266 26.1055ZM51.7227 27.5898L50.8243 28.0291L50.8302 28.0412L50.8364 28.0531L51.7227 27.5898ZM52.2891 29.582L53.1952 30.0049L53.3122 29.7543L53.2838 29.4791L52.2891 29.582ZM51.0977 31.0859L51.7972 31.8006L51.8048 31.793L51.0977 31.0859ZM48.8516 32.6875L49.3195 33.5713L48.8516 32.6875ZM43.6172 32.4336L42.8579 33.0844L42.8656 33.0932L43.6172 32.4336ZM43.0508 28.2148L44.0115 28.4924L44.2862 27.5414L43.3381 27.257L43.0508 28.2148ZM42.4648 28.0391L42.7522 27.0812L41.6762 26.7584L41.4802 27.8646L42.4648 28.0391ZM40.1406 32.2578L40.6781 33.1011L40.1406 32.2578ZM33.5 32.6094L32.978 33.4624L32.9874 33.468L33.5 32.6094ZM31.3711 30.3047L30.4906 30.7788L30.4932 30.7835L31.3711 30.3047ZM32.1719 21.8281L32.8914 22.5226L32.8954 22.5184L32.1719 21.8281ZM39.1055 27.5703L39.0201 28.5667L39.1619 28.5788L39.3016 28.5509L39.1055 27.5703ZM40.2578 27.0234L39.7086 26.1877L39.6975 26.1952L40.2578 27.0234ZM42.0938 24.7578L43.0792 24.9277L43.115 24.7199L43.0639 24.5153L42.0938 24.7578ZM41.9766 24.2891L42.9467 24.0465L42.7818 23.3867L42.1075 23.2977L41.9766 24.2891ZM38.4023 24.3086L38.0143 23.387L37.8055 23.4749L37.6549 23.6442L38.4023 24.3086ZM38.0898 27.0039L37.2382 27.528L37.2454 27.5397L37.2529 27.5512L38.0898 27.0039ZM36.8789 20.1289V21.1289C37.5807 21.1289 38.3704 21.2004 39.2513 21.3493L39.418 20.3633L39.5846 19.3773C38.6166 19.2137 37.7136 19.1289 36.8789 19.1289V20.1289ZM39.418 20.3633L39.2536 21.3497C40.1606 21.5008 40.9832 21.6821 41.7235 21.8918L41.9961 20.9297L42.2687 19.9676C41.4465 19.7346 40.5504 19.5382 39.5824 19.3769L39.418 20.3633ZM41.9961 20.9297H42.9961V20.3242H41.9961H40.9961V20.9297H41.9961ZM41.9961 20.3242H42.9961C42.9961 19.8996 42.9824 19.4325 42.9556 18.924L41.957 18.9766L40.9584 19.0291C40.9837 19.5102 40.9961 19.9415 40.9961 20.3242H41.9961ZM41.957 18.9766L42.9567 18.9503C42.9442 18.4763 42.9193 18.0386 42.849 17.7575L41.8789 18L40.9088 18.2425C40.9074 18.237 40.9188 18.2894 40.9309 18.4411C40.942 18.5795 40.9511 18.7652 40.9574 19.0029L41.957 18.9766ZM41.8789 18L42.7627 17.5321C42.5931 17.2118 42.3248 16.9879 42.0955 16.8335C41.8527 16.6701 41.5635 16.5255 41.2494 16.394L40.8633 17.3164L40.4771 18.2388C40.7229 18.3417 40.883 18.4282 40.9787 18.4927C41.0252 18.524 41.0448 18.5422 41.0475 18.5449C41.0509 18.5483 41.0247 18.5238 40.9951 18.4679L41.8789 18ZM40.8633 17.3164L41.2572 16.3973C40.511 16.0775 39.4369 15.9648 38.168 15.9648V16.9648V17.9648C39.399 17.9648 40.1218 18.0866 40.4694 18.2356L40.8633 17.3164ZM38.168 16.9648V15.9648C37.3146 15.9648 36.4424 16.0734 35.5535 16.285L35.7852 17.2578L36.0168 18.2306C36.7685 18.0516 37.4849 17.9648 38.168 17.9648V16.9648ZM35.7852 17.2578L35.5649 16.2824C34.7246 16.4721 33.7986 16.7275 32.7887 17.0464L33.0898 18L33.391 18.9536C34.3603 18.6475 35.2312 18.4081 36.0054 18.2333L35.7852 17.2578ZM33.0898 18L33.9462 17.4837C33.4337 16.6336 33.0287 15.8397 32.7261 15.1012L31.8008 15.4805L30.8755 15.8597C31.2239 16.7098 31.6783 17.5956 32.2335 18.5163L33.0898 18ZM31.8008 15.4805L32.7333 15.1195C32.4622 14.4189 32.332 13.7337 32.332 13.0586H31.332H30.332C30.332 13.998 30.5144 14.9274 30.8682 15.8415L31.8008 15.4805ZM31.332 13.0586H32.332C32.332 12.8641 32.3474 12.6688 32.3784 12.4724L31.3906 12.3164L30.4029 12.1604C30.3558 12.4588 30.332 12.7583 30.332 13.0586H31.332ZM31.3906 12.3164L32.0046 13.1058C33.8981 11.633 36.3931 10.8555 39.5742 10.8555V9.85547V8.85547C36.0626 8.85547 33.1019 9.71853 30.7767 11.5271L31.3906 12.3164ZM39.5742 9.85547V10.8555C41.3503 10.8555 42.8939 11.0558 44.2168 11.4407L44.4961 10.4805L44.7754 9.52027C43.2337 9.07178 41.4961 8.85547 39.5742 8.85547V9.85547ZM44.4961 10.4805L44.2168 11.4407C45.4425 11.7972 46.4426 12.4805 47.2396 13.5133L48.0312 12.9023L48.8229 12.2914C47.771 10.9283 46.4143 9.99704 44.7754 9.52027L44.4961 10.4805ZM48.0312 12.9023L47.2396 13.5133C47.9798 14.4724 48.418 15.9236 48.418 18H49.418H50.418C50.418 15.6753 49.9317 13.7281 48.8229 12.2914L48.0312 12.9023ZM49.418 18H48.418C48.418 20.0688 48.1736 22.0701 47.6865 24.006L48.6562 24.25L49.626 24.494C50.1546 22.3934 50.418 20.228 50.418 18H49.418ZM48.6562 24.25L47.6854 24.0104C47.438 25.0129 47.251 25.7691 47.1242 26.2794C47.0608 26.5347 47.0127 26.7277 46.9797 26.8588C46.9374 27.0271 46.9334 27.0376 46.9458 27.0002L47.8945 27.3164L48.8432 27.6326C48.8622 27.5757 48.8948 27.4438 48.9193 27.3467C48.953 27.2126 49.0017 27.0174 49.0652 26.7616C49.1924 26.2497 49.3797 25.4923 49.6271 24.4896L48.6562 24.25ZM47.8945 27.3164L48.2877 28.2359L51.1197 27.0249L50.7266 26.1055L50.3334 25.186L47.5014 26.3969L47.8945 27.3164ZM50.7266 26.1055L49.9963 26.7886C50.2951 27.1081 50.5738 27.5167 50.8243 28.0291L51.7227 27.5898L52.621 27.1506C52.2986 26.4911 51.9132 25.9101 51.4568 25.4223L50.7266 26.1055ZM51.7227 27.5898L50.8364 28.0531C51.068 28.4961 51.227 29.034 51.2944 29.6849L52.2891 29.582L53.2838 29.4791C53.1948 28.6196 52.9763 27.8294 52.6089 27.1266L51.7227 27.5898ZM52.2891 29.582L51.3829 29.1591C51.278 29.384 50.986 29.7834 50.3905 30.3788L51.0977 31.0859L51.8048 31.793C52.4333 31.1645 52.9356 30.5614 53.1952 30.0049L52.2891 29.582ZM51.0977 31.0859L50.3982 30.3713C49.8654 30.8927 49.1982 31.3725 48.3837 31.8037L48.8516 32.6875L49.3195 33.5713C50.2757 33.065 51.106 32.477 51.7971 31.8006L51.0977 31.0859ZM48.8516 32.6875L48.3837 31.8037C47.6365 32.1993 46.872 32.3906 46.0781 32.3906V33.3906V34.3906C47.2114 34.3906 48.2958 34.1132 49.3195 33.5713L48.8516 32.6875ZM46.0781 33.3906V32.3906C45.2009 32.3906 44.6895 32.1395 44.3688 31.774L43.6172 32.4336L42.8656 33.0932C43.6646 34.0038 44.7939 34.3906 46.0781 34.3906V33.3906ZM43.6172 32.4336L44.3764 31.7828C44.0157 31.3619 43.7969 30.782 43.7969 29.9531H42.7969H41.7969C41.7969 31.1555 42.1249 32.2292 42.8579 33.0844L43.6172 32.4336ZM42.7969 29.9531H43.7969C43.7969 29.48 43.8666 28.9939 44.0115 28.4924L43.0508 28.2148L42.0901 27.9373C41.8964 28.6076 41.7969 29.2804 41.7969 29.9531H42.7969ZM43.0508 28.2148L43.3381 27.257L42.7522 27.0812L42.4648 28.0391L42.1775 28.9969L42.7634 29.1727L43.0508 28.2148ZM42.4648 28.0391L41.4802 27.8646C41.1405 29.7811 40.4569 30.8704 39.6032 31.4145L40.1406 32.2578L40.6781 33.1011C42.1941 32.1349 43.06 30.4116 43.4495 28.2136L42.4648 28.0391ZM40.1406 32.2578L39.6032 31.4145C38.5821 32.0653 37.4606 32.3906 36.2148 32.3906V33.3906V34.3906C37.8337 34.3906 39.3294 33.9607 40.6781 33.1011L40.1406 32.2578ZM36.2148 33.3906V32.3906C35.4729 32.3906 34.7435 32.1871 34.0126 31.7508L33.5 32.6094L32.9874 33.468C34.0013 34.0733 35.0818 34.3906 36.2148 34.3906V33.3906ZM33.5 32.6094L34.022 31.7564C33.3158 31.3243 32.722 30.6931 32.249 29.8258L31.3711 30.3047L30.4932 30.7835C31.1139 31.9215 31.9394 32.8268 32.978 33.4623L33.5 32.6094ZM31.3711 30.3047L32.2516 29.8306C31.7958 28.9841 31.5508 27.9675 31.5508 26.75H30.5508H29.5508C29.5508 28.2408 29.8527 29.594 30.4906 30.7788L31.3711 30.3047ZM30.5508 26.75H31.5508C31.5508 24.7456 32.0508 23.3936 32.8914 22.5226L32.1719 21.8281L31.4523 21.1337C30.1315 22.5022 29.5508 24.4315 29.5508 26.75H30.5508ZM32.1719 21.8281L32.8954 22.5184C33.7333 21.6401 35.0052 21.1289 36.8789 21.1289V20.1289V19.1289C34.638 19.1289 32.7719 19.7505 31.4483 21.1378L32.1719 21.8281ZM39.1055 27.5703L39.3016 28.5509C39.8128 28.4487 40.3245 28.1857 40.8181 27.8517L40.2578 27.0234L39.6975 26.1952C39.3057 26.4602 39.0492 26.5618 38.9094 26.5897L39.1055 27.5703ZM40.2578 27.0234L40.807 27.8591C41.3432 27.5068 41.8193 27.0844 42.233 26.5941L41.4688 25.9492L40.7045 25.3043C40.4151 25.6474 40.0839 25.9412 39.7086 26.1877L40.2578 27.0234ZM41.4688 25.9492L42.233 26.5941C42.6534 26.0959 42.9738 25.5393 43.0792 24.9277L42.0938 24.7578L41.1083 24.5879C41.0835 24.7315 40.9872 24.9692 40.7045 25.3043L41.4688 25.9492ZM42.0938 24.7578L43.0639 24.5153L42.9467 24.0465L41.9766 24.2891L41.0064 24.5316L41.1236 25.0003L42.0938 24.7578ZM41.9766 24.2891L42.1075 23.2977C41.3691 23.2001 40.5894 23.1523 39.7695 23.1523V24.1523V25.1523C40.5122 25.1523 41.2038 25.1957 41.8456 25.2805L41.9766 24.2891ZM39.7695 24.1523V23.1523C39.1129 23.1523 38.4689 23.1956 38.0143 23.387L38.4023 24.3086L38.7904 25.2302C38.786 25.2321 38.8531 25.2067 39.0432 25.1849C39.2208 25.1646 39.4603 25.1523 39.7695 25.1523V24.1523ZM38.4023 24.3086L37.6549 23.6442C37.0922 24.2773 36.7773 25.0293 36.7773 25.8711H37.7773H38.7773C38.7773 25.567 38.8791 25.2774 39.1498 24.973L38.4023 24.3086ZM37.7773 25.8711H36.7773C36.7773 26.4635 36.9281 27.0241 37.2382 27.528L38.0898 27.0039L38.9415 26.4798C38.8349 26.3066 38.7773 26.112 38.7773 25.8711H37.7773ZM38.0898 27.0039L37.2529 27.5512C37.6659 28.1829 38.3036 28.5052 39.0201 28.5667L39.1055 27.5703L39.1909 26.574C38.9959 26.5573 38.9565 26.502 38.9268 26.4567L38.0898 27.0039ZM54.1641 16.0469L53.2087 15.7513L53.2068 15.7576L54.1641 16.0469ZM56.7812 11.5938L56.0859 10.875L56.082 10.8788L56.7812 11.5938ZM67.1133 11.7891L66.5414 12.6094L67.0832 12.9871L67.6433 12.6371L67.1133 11.7891ZM67.4258 11.5938L67.9558 12.4417L68.4401 12.1391L68.4255 11.5681L67.4258 11.5938ZM66.8594 7.45312L67.8239 7.18915L67.6355 6.50078L66.9233 6.45517L66.8594 7.45312ZM62.8945 7.19922L62.1052 7.81316L62.3815 8.16841L62.8306 8.19717L62.8945 7.19922ZM62.4648 6.16406L61.4886 6.381L61.49 6.38689L62.4648 6.16406ZM62.543 3L61.9604 2.18718L61.6932 2.37872L61.5917 2.6915L62.543 3ZM72.2891 2.16016L71.6503 2.92962L71.659 2.93672L72.2891 2.16016ZM73.6758 4.71875L72.696 4.91916L72.6988 4.93211L73.6758 4.71875ZM72.8555 26.75L73.8289 26.979L73.8367 26.946L73.8422 26.9124L72.8555 26.75ZM72.7773 27.082L71.8039 26.853L71.3489 28.7867L73.1732 28.0004L72.7773 27.082ZM75.043 26.1055L75.7732 25.4223L75.2929 24.9088L74.6471 25.1871L75.043 26.1055ZM76.0391 27.5898L75.1407 28.0291L75.1466 28.0412L75.1528 28.0531L76.0391 27.5898ZM76.6055 29.582L77.5117 30.0049L77.6286 29.7543L77.6002 29.4791L76.6055 29.582ZM75.4141 31.0859L76.1136 31.8006L76.1212 31.793L75.4141 31.0859ZM67.8945 32.4336L67.1438 33.0942L67.1508 33.1022L67.158 33.11L67.8945 32.4336ZM67.2305 28.3516L66.2458 28.1769L66.2445 28.1846L66.2432 28.1923L67.2305 28.3516ZM67.582 26.6719L68.542 26.9519L68.8199 25.9992L67.8694 25.714L67.582 26.6719ZM66.9961 26.4961L67.2834 25.5383L66.3122 25.2469L66.0344 26.2221L66.9961 26.4961ZM56.1367 31.6719L55.3888 32.3358L55.3968 32.3445L56.1367 31.6719ZM66.7422 21.3789L67.6583 21.7797L67.7082 21.6659L67.7286 21.5433L66.7422 21.3789ZM66.8008 18.5859L65.8033 18.6572L65.8046 18.6749L65.8065 18.6925L66.8008 18.5859ZM66.7031 17.8047L67.6733 17.5622L67.5849 17.2088L67.2901 16.9951L66.7031 17.8047ZM64.9258 17.0039L64.6924 17.9763L64.6967 17.9773L64.9258 17.0039ZM62.0352 16.8672L61.8708 15.8808L61.5547 15.9335L61.328 16.1601L62.0352 16.8672ZM61.4102 18.5664L62.394 18.7453L62.3945 18.7427L61.4102 18.5664ZM61.4102 24.8555L60.4201 24.9969L60.4222 25.0102L61.4102 24.8555ZM62.1133 27.3945L61.2151 27.8341L61.4893 28.3945H62.1133V27.3945ZM63.3242 26.4375L62.5956 25.7526L62.5951 25.7531L63.3242 26.4375ZM65.2188 24.0547L66.0401 24.6251L66.0438 24.6198L65.2188 24.0547ZM53.3438 21.7305H54.3438C54.3438 19.8447 54.6041 18.0479 55.1213 16.3361L54.1641 16.0469L53.2068 15.7576C52.6303 17.6656 52.3438 19.6579 52.3438 21.7305H53.3438ZM54.1641 16.0469L55.1194 16.3424C55.6372 14.6685 56.4306 13.3355 57.4805 12.3087L56.7812 11.5938L56.082 10.8788C54.7621 12.1697 53.8107 13.8055 53.2087 15.7513L54.1641 16.0469ZM56.7812 11.5938L57.4765 12.3125C58.4711 11.3504 59.7181 10.8555 61.293 10.8555V9.85547V8.85547C59.248 8.85547 57.4872 9.51944 56.086 10.875L56.7812 11.5938ZM61.293 9.85547V10.8555C63.0975 10.8555 64.841 11.4239 66.5414 12.6094L67.1133 11.7891L67.6852 10.9687C65.6877 9.5761 63.551 8.85547 61.293 8.85547V9.85547ZM67.1133 11.7891L67.6433 12.6371L67.9558 12.4417L67.4258 11.5938L66.8958 10.7458L66.5833 10.9411L67.1133 11.7891ZM67.4258 11.5938L68.4255 11.5681C68.3847 9.97873 68.1873 8.51681 67.8239 7.18915L66.8594 7.45312L65.8948 7.7171C66.2086 8.8634 66.3887 10.1619 66.4261 11.6194L67.4258 11.5938ZM66.8594 7.45312L66.9233 6.45517L62.9584 6.20126L62.8945 7.19922L62.8306 8.19717L66.7955 8.45108L66.8594 7.45312ZM62.8945 7.19922L63.6839 6.58528C63.628 6.51349 63.528 6.32773 63.4397 5.94124L62.4648 6.16406L61.49 6.38689C61.61 6.91186 61.7964 7.4162 62.1052 7.81316L62.8945 7.19922ZM62.4648 6.16406L63.441 5.94713C63.3532 5.55174 63.3086 5.1428 63.3086 4.71875H62.3086H61.3086C61.3086 5.28428 61.3682 5.83888 61.4887 6.38099L62.4648 6.16406ZM62.3086 4.71875H63.3086C63.3086 4.12878 63.3785 3.66514 63.4942 3.3085L62.543 3L61.5917 2.6915C61.3949 3.2984 61.3086 3.98059 61.3086 4.71875H62.3086ZM62.543 3L63.1255 3.81282C63.7729 3.34883 64.6449 2.96949 65.7787 2.70416L65.5508 1.73047L65.3229 0.756781C64.0087 1.06436 62.8755 1.53138 61.9604 2.18718L62.543 3ZM65.5508 1.73047L65.7787 2.70416C66.9299 2.43471 68.0775 2.30078 69.2227 2.30078V1.30078V0.300781C67.9199 0.300781 66.6195 0.453313 65.3229 0.756781L65.5508 1.73047ZM69.2227 1.30078V2.30078C70.4577 2.30078 71.2114 2.56517 71.6503 2.92957L72.2891 2.16016L72.9278 1.39075C71.9865 0.609309 70.6959 0.300781 69.2227 0.300781V1.30078ZM72.2891 2.16016L71.659 2.93672C72.1194 3.31024 72.4933 3.92774 72.6961 4.91915L73.6758 4.71875L74.6555 4.51835C74.3895 3.2181 73.8389 2.12986 72.9191 1.38359L72.2891 2.16016ZM73.6758 4.71875L72.6988 4.93211C72.9237 5.9618 73.0469 7.45445 73.0469 9.44531H74.0469H75.0469C75.0469 7.39972 74.9227 5.74132 74.6528 4.50539L73.6758 4.71875ZM74.0469 9.44531H73.0469C73.0469 12.0748 72.9373 15.0666 72.717 18.4228L73.7148 18.4883L74.7127 18.5538C74.9351 15.1651 75.0469 12.1283 75.0469 9.44531H74.0469ZM73.7148 18.4883L72.717 18.4228C72.4967 21.7785 72.213 24.4968 71.8688 26.5876L72.8555 26.75L73.8422 26.9124C74.2011 24.7324 74.4902 21.9428 74.7127 18.5538L73.7148 18.4883ZM72.8555 26.75L71.8821 26.521L71.8039 26.853L72.7773 27.082L73.7508 27.3111L73.8289 26.979L72.8555 26.75ZM72.7773 27.082L73.1732 28.0004L75.4388 27.0238L75.043 26.1055L74.6471 25.1871L72.3815 26.1637L72.7773 27.082ZM75.043 26.1055L74.3127 26.7886C74.6115 27.1081 74.8902 27.5167 75.1407 28.0291L76.0391 27.5898L76.9374 27.1506C76.615 26.4911 76.2296 25.9101 75.7732 25.4223L75.043 26.1055ZM76.0391 27.5898L75.1528 28.0531C75.3844 28.4961 75.5434 29.034 75.6108 29.6849L76.6055 29.582L77.6002 29.4791C77.5112 28.6196 77.2927 27.8294 76.9253 27.1266L76.0391 27.5898ZM76.6055 29.582L75.6993 29.1591C75.5944 29.384 75.3024 29.7834 74.707 30.3788L75.4141 31.0859L76.1212 31.793C76.7497 31.1645 77.252 30.5614 77.5117 30.0049L76.6055 29.582ZM75.4141 31.0859L74.7146 30.3713C74.1818 30.8927 73.5146 31.3725 72.7001 31.8037L73.168 32.6875L73.6359 33.5713C74.5922 33.065 75.4224 32.477 76.1135 31.8006L75.4141 31.0859ZM73.168 32.6875L72.7001 31.8037C71.9529 32.1993 71.1884 32.3906 70.3945 32.3906V33.3906V34.3906C71.5278 34.3906 72.6122 34.1132 73.6359 33.5713L73.168 32.6875ZM70.3945 33.3906V32.3906C69.5195 32.3906 68.9826 32.14 68.6311 31.7572L67.8945 32.4336L67.158 33.11C67.9783 34.0032 69.1081 34.3906 70.3945 34.3906V33.3906ZM67.8945 32.4336L68.6452 31.773C68.2578 31.3327 68.0352 30.7529 68.0352 29.9531H67.0352H66.0352C66.0352 31.1586 66.3855 32.2325 67.1438 33.0942L67.8945 32.4336ZM67.0352 29.9531H68.0352C68.0352 29.7871 68.0849 29.3342 68.2177 28.5108L67.2305 28.3516L66.2432 28.1923C66.1156 28.9835 66.0352 29.5983 66.0352 29.9531H67.0352ZM67.2305 28.3516L68.2151 28.5263C68.3586 27.7171 68.4678 27.2063 68.542 26.9519L67.582 26.6719L66.622 26.3919C66.5139 26.7625 66.3888 27.3714 66.2458 28.1769L67.2305 28.3516ZM67.582 26.6719L67.8694 25.714L67.2834 25.5383L66.9961 26.4961L66.7087 27.4539L67.2947 27.6297L67.582 26.6719ZM66.9961 26.4961L66.0344 26.2221C65.3932 28.4724 64.5744 30.029 63.64 30.9968L64.3594 31.6914L65.0788 32.386C66.3319 31.0881 67.2708 29.1813 67.9578 26.7701L66.9961 26.4961ZM64.3594 31.6914L63.64 30.9968C62.74 31.9289 61.6479 32.3906 60.2969 32.3906V33.3906V34.3906C62.175 34.3906 63.7913 33.7195 65.0788 32.386L64.3594 31.6914ZM60.2969 33.3906V32.3906C58.8098 32.3906 57.7053 31.9107 56.8767 30.9992L56.1367 31.6719L55.3968 32.3445C56.6515 33.7248 58.3204 34.3906 60.2969 34.3906V33.3906ZM56.1367 31.6719L56.8846 31.008C55.9814 29.9905 55.3259 28.6942 54.9414 27.0841L53.9688 27.3164L52.9961 27.5487C53.445 29.4282 54.2348 31.0356 55.3888 32.3357L56.1367 31.6719ZM53.9688 27.3164L54.9414 27.0841C54.5447 25.4228 54.3438 23.6394 54.3438 21.7305H53.3438H52.3438C52.3438 23.7799 52.5595 25.7204 52.9961 27.5487L53.9688 27.3164ZM66.7422 21.3789L67.7286 21.5433C67.8181 21.0064 67.8594 20.4023 67.8594 19.7383H66.8594H65.8594C65.8594 20.3243 65.8226 20.8139 65.7558 21.2145L66.7422 21.3789ZM66.8594 19.7383H67.8594C67.8594 19.3026 67.8383 18.8827 67.7951 18.4794L66.8008 18.5859L65.8065 18.6925C65.8414 19.0183 65.8594 19.3667 65.8594 19.7383H66.8594ZM66.8008 18.5859L67.7982 18.5147C67.7719 18.1462 67.7352 17.8099 67.6733 17.5622L66.7031 17.8047L65.733 18.0472C65.7492 18.1119 65.7776 18.2965 65.8033 18.6572L66.8008 18.5859ZM66.7031 17.8047L67.2901 16.9951C66.6556 16.5351 65.94 16.2152 65.1548 16.0305L64.9258 17.0039L64.6967 17.9773C65.2397 18.1051 65.709 18.3191 66.1162 18.6143L66.7031 17.8047ZM64.9258 17.0039L65.1592 16.0315C64.448 15.8609 63.7696 15.7695 63.1289 15.7695V16.7695V17.7695C63.582 17.7695 64.1014 17.8345 64.6924 17.9763L64.9258 17.0039ZM63.1289 16.7695V15.7695C62.727 15.7695 62.3068 15.8081 61.8708 15.8808L62.0352 16.8672L62.1996 17.8536C62.5447 17.7961 62.8538 17.7695 63.1289 17.7695V16.7695ZM62.0352 16.8672L61.328 16.1601C61.0503 16.4378 60.8712 16.7993 60.7451 17.1421C60.6138 17.4991 60.5099 17.9204 60.4258 18.3901L61.4102 18.5664L62.3945 18.7427C62.4666 18.34 62.5451 18.0419 62.6221 17.8325C62.7044 17.6089 62.7596 17.557 62.7423 17.5743L62.0352 16.8672ZM61.4102 18.5664L60.4263 18.3875C60.2571 19.3178 60.1758 20.3493 60.1758 21.4766H61.1758H62.1758C62.1758 20.4423 62.2507 19.5337 62.394 18.7453L61.4102 18.5664ZM61.1758 21.4766H60.1758C60.1758 22.6804 60.2569 23.8541 60.4202 24.9969L61.4102 24.8555L62.4001 24.714C62.2509 23.6694 62.1758 22.5904 62.1758 21.4766H61.1758ZM61.4102 24.8555L60.4222 25.0102C60.5988 26.1377 60.8532 27.0946 61.2151 27.8341L62.1133 27.3945L63.0115 26.955C62.7744 26.4705 62.5601 25.7347 62.3981 24.7007L61.4102 24.8555ZM62.1133 27.3945V28.3945C62.399 28.3945 62.6318 28.2927 62.7684 28.2215C62.9205 28.1422 63.0636 28.0416 63.1923 27.9398C63.4505 27.7358 63.7399 27.4558 64.0533 27.1219L63.3242 26.4375L62.5951 25.7531C62.3096 26.0573 62.0977 26.2557 61.9522 26.3707C61.9177 26.398 61.8908 26.4175 61.871 26.4308C61.8507 26.4445 61.842 26.4489 61.8439 26.448C61.8448 26.4475 61.8659 26.4364 61.9044 26.4245C61.9417 26.4129 62.0145 26.3945 62.1133 26.3945V27.3945ZM63.3242 26.4375L64.0528 27.1224C64.7063 26.4273 65.3683 25.5925 66.0401 24.6251L65.2188 24.0547L64.3974 23.4843C63.7671 24.3919 63.1661 25.1456 62.5956 25.7526L63.3242 26.4375ZM65.2188 24.0547L66.0438 24.6198C66.7214 23.6305 67.263 22.6834 67.6583 21.7797L66.7422 21.3789L65.826 20.9781C65.4922 21.7411 65.0182 22.5779 64.3937 23.4896L65.2188 24.0547Z" fill="#9D4EDD" mask="url(#path-1-outside-1_169_3)"/>
</svg>
